<?xml version="1.0" encoding="UTF-8" standalone="no"?>
<!DOCTYPE svg  PUBLIC '-//W3C//DTD SVG 1.1//EN'  'http://www.w3.org/Graphics/SVG/1.1/DTD/svg11.dtd'>
<svg xmlns="http://www.w3.org/2000/svg">
<defs>
<font id="Pennellino-Regular" horiz-adv-x="445">
<font-face underline-position="-50" font-weight="400" descent="-200" panose-1="2 0 5 6 0 0 0 2 0 3" units-per-em="1000" unicode-range="U+000D-25CA" bbox="-134 -418 988 930" x-height="361" underline-thickness="50" font-family="Pennellino" ascent="800" cap-height="748"/>
<missing-glyph horiz-adv-x="1000"/>
<glyph glyph-name=".notdef" horiz-adv-x="1000"/>
<glyph glyph-name=".null" horiz-adv-x="0"/>
<glyph glyph-name="nonmarkingreturn" horiz-adv-x="0" unicode=""/>
<glyph glyph-name="space" horiz-adv-x="199" unicode=" "/>
<glyph glyph-name="exclam" horiz-adv-x="296" unicode="!" d="M80 55q2 14 11 23q5 6 10.5 12.5t10.5 12.5q7 8 13 11t10 3q11 0 34 -8q19 -25 19 -36q0 -5 -8 -10.5t-38 -28.5q-12 -8 -23 -8q-4 0 -8 1q-4 2 -7.5 2t-7.5 1q-16 3 -16 20v5zM68 688q0 12 5 21.5t14 17t20 11t21 3.5q19 0 35 -13.5t24 -39.5q-1 -8 -1 -16v-16v-31 v-13.5t-1 -13.5q0 -2 -0.5 -13t-0.5 -17q0 -15 2 -34q3 -28 3 -58q0 -24 -3 -64.5t-12 -92.5t-20.5 -94.5t-21.5 -66.5q-5 30 -8.5 64t-6.5 69t-5.5 69t-5.5 64q0 1 -1.5 15t-4 30t-4 30t-1.5 15q-1 10 -5 28t-8.5 41.5t-9 53t-4.5 51.5z"/>
<glyph glyph-name="quotedbl" horiz-adv-x="275" unicode='&quot;' d="M61 603q-1 9 3 15t10 9q6 2 12 0t13 -10q19 -13 25 -37q3 -11 3 -20q0 -13 -4 -26q-5 -10 -5 -12t0 1q0 2 1 6q1 3 1 5t-2 0t-9 -13q0 -9 -6 -15t-13 -6t-13 4q-6 5 -7 15q-11 21 -15 29t-4 13q0 6 4 15q3 8 6 27zM160 616q1 9 7 14q7 5 13 5t12 -4t7 -13q9 -14 17 -22 t12 -17q2 -6 2 -13q0 -4 -1 -10q-2 -14 -12 -37v-2l-1 -3v-1q-1 -2 -1 -3t-1 -2q-6 -12 -20 -12q-6 0 -10 3l-3 3q-2 2 -2 3q-1 0 -1 1q-3 4 -3 12q-6 11 -13 21q-6 10 -10 21q-3 9 -3 19v5q1 14 11 32z"/>
<glyph glyph-name="numbersign" horiz-adv-x="530" unicode="#" d="M196 126q14 2 28 2q12 2 22 2q-4 0 -8.5 -0.5t-6.5 -0.5q23 5 49 7t54 2l-13 93q-60 -11 -120 -15zM46 62q-9 1 -14 6t-5.5 11.5t3.5 12.5t12 9q24 6 39.5 10.5t40.5 8.5q-2 24 -3.5 48t-3.5 48q-17 1 -34.5 2.5t-35.5 4.5q-16 1 -23.5 10t-7.5 19q0 11 9 20t24 10 q16 3 30.5 5.5t29.5 6.5v1q-8 -2 -19.5 -4t-6.5 0q6 2 12 5t14 5l-12 123q6 28 22 42.5t26 15.5h10q18 0 35.5 -13t25.5 -40q-2 -26 -4 -51t-4 -51q26 5 51 9.5t48 6.5q-2 17 -4 35l-4 36q6 28 22 42.5t26 15.5h10q18 0 35.5 -13t25.5 -40q-2 -19 -3 -37l-2 -36 q14 -1 27.5 -3t30.5 -4h-4.5t-3.5 -1q1 -1 3.5 -1h4.5q4 0 6.5 1t5.5 0q6 0 14 -1.5t16.5 -4t15.5 -6t10 -9.5q8 -11 8 -21t-5.5 -17.5t-14.5 -10.5t-19 0q8 -6 -5 -1h-6q-8 0 -17 -3q-16 -3 -31.5 -6.5t-31.5 -7.5l-7 -2l-2 -113q26 -2 48.5 -3.5t37.5 -3.5h3h2q9 -2 13 -8 t4 -12.5t-4.5 -12.5t-13.5 -7q-23 -5 -45.5 -6.5t-45.5 -6.5l-3 -62q0 -2 -0.5 -4t-0.5 -4q0 -1 -0.5 -1.5t-0.5 -1.5q-2 -2 -3 -4.5t-3 -4.5l-3 -3q0 -1 -1 -1q-2 -2 -4 -2q-2 -2 -4 -2q-1 -1 -4 -1q-1 -1 -3 -1q-6 0 -12 2q-1 1 -2 1q-4 2 -5 4l-3 3l-5 7l-2 8v3l-4 52 q-17 -3 -34.5 -5.5t-34.5 -3.5q-21 -2 -41.5 -2t-41.5 1q-1 -12 -2 -24.5t-3 -24.5q-5 -12 -14 -17t-17 -5h-6q-6 1 -14 8.5t-9 20.5v23t-1 24q-20 2 -39 2.5t-39 1.5z"/>
<glyph glyph-name="dollar" horiz-adv-x="393" unicode="$" d="M196 325l5 -2q-4 2 -5 2zM11 131q4 18 20 18q6 0 12 -4t8 -13q0 -2 1 -16t7 -31l8 -10q11 -14 23 -28t28 -19q13 -3 28 -3q36 1 72 15t68 29l5 2l16 7h1l2 1q6 9 13 16q5 8 14 36l3 4q-1 17 -9 34t-20 32q-13 15 -27 27t-27 17q-17 8 -36 8t-37 6q-29 10 -55 29 q-26 18 -45 44t-30 56t-11 61v8q1 31 13 55t32 40t44 26t51 14q-5 10 -5 24q0 10 2 20t1 19q0 15 -7 26q3 14 4 25q0 10 2 18t6 12t14 3q19 1 27 -11t16 -38q-5 -6 -6 -12t-1 -11v-9t1 -8q0 -10 -5 -19l-13 -22q1 0 -2 -5l-6 -10q43 0 83 -14t67 -41q7 -5 13 -17t10 -19 q4 -12 4 -25q0 -28 -16 -44t-39 -16q-28 0 -52 24q-10 24 -36 38t-53 13q-26 1 -46 -13t-19 -44v-10t2 -11q5 -19 15 -35t24 -30q7 -7 15 -13t16 -11q1 0 5 -2t5 -2l-1 -1q8 -2 17 -4t17 -4q18 -3 32 -9t30 -17q38 -25 60 -68t22 -88q0 -23 -9 -39t-26 -30q-1 -2 -3 -5 t-6 -3q-14 -16 -26 -30t-33 -22q-15 -6 -33 -8t-37 -3q4 -5 5 -15q0 -10 2 -22t5 -23q3 -12 10 -24q-3 -34 -7 -48t-26 -14q-10 0 -14 3t-5 10t-1 18t-1 27q2 4 2 11q0 8 -1 18t-1 20q0 11 2 21t7 18q-29 1 -57 9t-48 22q-15 11 -23 23q-20 17 -32 40t-19 46zM219 609 q-3 0 -9 -15z"/>
<glyph glyph-name="percent" horiz-adv-x="675" unicode="%" d="M134 -99q1 1 1 2zM227 482h-5q-12 1 -18 -1t-11 -9h2q3 0 0 -4t-4 -8v-13q1 1 1 -3t1 -5q7 -9 10 -11t11 -6q4 6 6 14t5 14zM445 126q-4 -2 -5 -2l-14 -14t-11 -18q-3 -7 -3 -16q0 -10 3 -18t9 -14t15 -7q11 -1 23 2t21 10t13 17t1 23q-3 10 -9 24t-19 17q-9 -10 -24 -4z M198 343q-30 9 -48 29t-24 42q-4 14 -4 29q0 9 2 18q4 24 17 41t35 24q9 3 18 3q14 0 31 -6q7 7 21 4q19 -6 29 -24q11 -19 13 -41q1 -7 0 -14q0 -16 -4 -32q-6 -24 -16 -42q-12 -18 -30 -28q-10 -5 -21 -6q-9 0 -19 3zM364 121q8 9 24 23t34 22q6 7 18 10t25 3t25 -2t18 -5 q10 -4 20 -13t16 -19q16 -26 20 -56q1 -8 1 -17q-1 -23 -7 -41q-10 -26 -32 -45q-23 -19 -60 -21q-11 0 -22 -1t-22 2q-24 8 -42 26q-18 19 -28 41q-8 19 -7 38v8q2 24 19 47zM468 635q5 9 13 11q3 1 6 1q4 0 8 -2q5 -3 9 -11q2 -4 2 -7q0 -5 -2 -10q-14 -31 -24 -65 t-21 -66q-23 -67 -49 -133t-59 -129q-37 -71 -85 -134t-90 -130q-2 -2 -8 -14t-15 -24q-9 -13 -15 -24t-7 -11v2q-6 -9 -17 -9h-4q-14 2 -15 19q-1 11 5 21t11 17l-1 -1q4 20 16 42t20 39q20 39 43 75t43 75q47 85 88 172t86 172q16 30 30 63t32 61z"/>
<glyph glyph-name="ampersand" horiz-adv-x="531" unicode="&amp;" d="M418 278q7 -14 16 -37.5t16.5 -49t12.5 -49.5t5 -40q0 -11 -0.5 -20.5t-4.5 -15.5q-1 -2 -1 -9q-5 -32 -14 -49.5t-23.5 -28.5t-35 -18.5t-48.5 -17.5q-35 -12 -56 -20.5t-47 -8.5q-12 0 -35.5 0.5t-49.5 5t-50 13.5t-38 26l-3 2q-11 10 -23 21.5t-20 25.5 q-11 22 -16.5 49.5t-5.5 56.5q0 50 14 97.5t40 79.5q11 14 25.5 23t30.5 14q-6 15 -13.5 31.5t-14.5 31t-11.5 24t-4.5 10.5q-7 20 -11 40t-4 40q0 44 19.5 83t62.5 64q11 6 23 8.5t23 5.5q22 7 43 7q29 0 46.5 -17.5t31.5 -56.5q4 -10 6.5 -23.5t2.5 -26.5q0 -8 -2 -18 q-6 -23 -23.5 -38.5t-34.5 -15.5q-5 0 -13.5 2.5t-17 6t-16.5 8.5t-11 11q2 -2 8 -4t13 -4t13.5 -3.5t9.5 -1.5q10 0 17 5q11 8 20 16t12 22q1 2 1 8q0 9 -4 19t-9 21q-8 17 -17.5 28.5t-25.5 19.5q-11 -1 -29.5 -8t-36 -20.5t-30.5 -34t-13 -48.5q0 -3 0.5 -6t0.5 -6 q2 -23 16 -45t27 -42q17 -24 32 -49t31 -51l75 -116q9 -15 9 -32q0 -23 -7.5 -26.5t-33.5 -3.5q-18 0 -37 9l-87 108q-31 -18 -47 -53t-16 -74q0 -25 7.5 -43t21.5 -31.5t34.5 -25t46.5 -22.5q22 -10 62 -10q26 0 50 3t45.5 14t39.5 32.5t32 58.5q0 4 0.5 8t0.5 8 q0 57 -26 111q-2 2 -1.5 4.5t-8.5 7.5q-11 5 -24.5 18t-22.5 18t-9 11q0 7 8.5 13t8.5 9q0 5 12 5q22 0 42 4.5t41 10.5q11 3 26 9t31 11q17 9 33.5 16.5t33.5 7.5q23 0 41 -18q6 -5 8 -12.5t2 -15.5v-6.5t-1 -6.5q-4 -21 -20 -32q-6 -8 -15.5 -12.5t-19.5 -4.5q-13 0 -22 8 q-4 6 -4 8t2 6q5 8 16 8q4 0 7.5 -0.5t7.5 -0.5q12 0 19 8v1q0 11 -10 14t-22 6q-2 0 -4 0.5t-4 0.5t-9 -5t-9 -5z"/>
<glyph glyph-name="quotesingle" horiz-adv-x="175" unicode="&apos;" d="M85 588q1 9 7 14t12 5t12 -4t8 -13q18 -21 18 -48q0 -25 -24 -41q-6 -7 -13 -9h-5q-4 0 -8 2q-6 4 -8 10q-4 6 -2 15q0 9 0 4t-3 -7q-1 -2 -3 4t-4 8q-6 13 -6 22q0 5 2 10q6 12 17 28z"/>
<glyph glyph-name="parenleft" horiz-adv-x="362" unicode="(" d="M168 599q25 19 49 19q23 0 39 -15t16 -41q0 -16 -7 -33q-14 -21 -26 -56.5t-20.5 -75.5t-13.5 -78.5t-5 -64.5q0 4 2 16q0 -12 -2 -26q-2 -20 -2 -41q0 -65 10.5 -128.5t27.5 -126.5l3 -7q0 -1 0.5 -1.5t0.5 -1.5q7 -16 12.5 -32.5t5.5 -34.5v-6q-5 -11 -13 -17t-17 -6 q-18 0 -28 21q-8 17 -12 35.5t-11 35.5q-34 89 -48.5 177t-14.5 181q0 25 1 49.5t3 50.5q0 4 0.5 8t0.5 9q4 51 12 99.5t37 90.5z"/>
<glyph glyph-name="parenright" horiz-adv-x="283" unicode=")" d="M158 599q29 -42 37 -90.5t12 -99.5q0 -5 0.5 -9t0.5 -8q2 -26 3 -50.5t1 -49.5q0 -93 -14.5 -181t-48.5 -177q-7 -17 -11 -35.5t-12 -35.5q-11 -21 -28 -21q-9 0 -17 6t-13 17v6q0 18 5.5 34.5t12.5 32.5q0 1 0.5 1.5t0.5 1.5l3 7q17 63 27.5 126.5t10.5 128.5 q0 21 -2 41v10q0 26 -5 64.5t-13.5 78.5t-20.5 75.5t-26 56.5q-7 17 -7 33q0 26 16 41t39 15q24 0 49 -19z"/>
<glyph glyph-name="asterisk" horiz-adv-x="239" unicode="*" d="M54 585q-2 7 3 13t13 0q10 -8 18 -14t15 -14q1 14 3 28t7 28q1 8 9 9h2q6 0 8 -6v-5v-2l1 2l3 -30q21 13 35 13h2q9 -2 9 -10t-10 -10q-6 -1 -12 -13t-14 -20h8q10 0 16 2t13 4q5 2 13 3t22 0q12 2 12 -9q0 -8 -10 -10q-8 -2 -12 -6t-21 -12q-9 -4 -15 -6t-13 -3 q6 -4 16 -7q5 -2 7 -6t2 -6q0 -4 -4 -6t-9 -2q-19 0 -37 8l-3 -15q-2 -11 -10 -11t-10 10q-3 8 -3 15t-2 15q-21 -19 -42 -34h-1l-7 -9q-2 -8 -9 -8q-2 1 -3 1q-9 2 -7 12q2 8 11 22t22 32q-8 2 -14 4t-13 4q-11 2 -11 9q0 9 12 11h14t14 1z"/>
<glyph glyph-name="plus" horiz-adv-x="311" unicode="+" d="M70 272q-4 4 -4 8t2 6q4 6 12 4q4 -4 9 0t22 6l15 3v4q-4 10 -8 18q-4 9 -6 17t0 16t9 20q7 6 14 6q5 9 15 10h2q9 0 17 -10l6 -17q5 -11 10 -25t10 -30q3 1 11 1q12 2 28 5t27 -3q4 0 2 -2q6 -5 6 -9q1 -2 -1 -5q-4 -7 -15 -4q-1 3 -9 -3t-33 -13q-4 -2 -8 -2 q4 -19 4 -33q0 -9 -2 -17q-4 -15 -18 -15h-1q-14 0 -25 7q-14 -8 -22 7q-3 10 -5 20t-3 21q-10 -1 -19 -1q-10 0 -18 1q-16 2 -24 9z"/>
<glyph glyph-name="comma" horiz-adv-x="230" unicode="," d="M150 92q12 -7 15 -20q1 -5 1 -10q0 -8 -3 -17q2 -8 2 -15q0 -11 -4 -20q-6 -15 -15 -27t-19 -22t-15 -19q-2 -8 -9 -8h-3q-9 2 -7 13l3 10q-4 6 1 12q2 5 4 15t4 21q-13 13 -15 31v6q0 15 6 28q8 16 22 24q6 4 13 4q9 0 19 -6z"/>
<glyph glyph-name="hyphen" horiz-adv-x="401" unicode="-" d="M320 282q0 -12 -11 -19q-12 -5 -26 -7t-28 -2q-3 0 -13.5 0.5t-29 1.5t-36.5 2q-18 -2 -29.5 -3t-18.5 -1t-12 1q-13 3 -15 14q-3 0 -7 2q-13 7 -13 18q0 14 15 20q2 0 2.5 0.5t2.5 0.5q4 3 11 3q23 5 48 5q11 0 35 -2t56 -4h12q12 0 26 1.5t31 1.5q4 -2 7 -4q7 -5 7 -12 v-1q0 -2 -1 -3q0 -3 -3 -6q-3 -4 -10 -7z"/>
<glyph glyph-name="period" horiz-adv-x="181" unicode="." d="M102 52q-4 -4 -12 -4l-5 -3q-5 -1 -9 -1h-4q-4 1 -9 6q-11 4 -15 16q-3 7 -3 14q0 4 1 9q0 10 7 17q6 6 14 8q5 6 13 9q3 1 6 1q5 0 11 -3q12 -6 17 -16q5 -11 5 -21q-1 -10 -5 -19t-12 -13z"/>
<glyph glyph-name="slash" horiz-adv-x="392" unicode="/" d="M255 384l1 2q-1 -1 -1 -2zM117 -76q-11 -26 -29 -38q-15 -9 -30 -10h-6q-18 2 -34 19q-15 16 -19 44q12 55 32 105q21 50 45 99t50 97t51 97q35 70 59 144t50 146q12 29 26 55t25 55q12 18 27 18q2 -1 4 -1q18 -2 26 -25q-2 -43 -19 -83t-37 -78q-8 -26 -16 -54t-15 -55 q-15 -53 -35 -105t-40 -103q-21 -51 -42 -101t-40 -103v-2q-8 -31 -18 -60t-15 -61z"/>
<glyph glyph-name="zero" horiz-adv-x="382" unicode="0" d="M289 415q-2 9 -4 23t-6 30q-3 16 -9 31t-14 24q-4 -9 -10 -17t-14 -16q-28 -13 -41 -37t-25 -53q-8 -20 -17 -50t-15 -64t-9 -70q-1 -10 -1 -19q0 -26 4 -49q6 -32 20 -57t43 -37q15 5 25 17t18 23q50 73 60 154q4 32 4 66q0 49 -9 101zM180 597q11 2 21 2q27 1 43 -15 q17 -16 17 -39q0 -7 -2 -14q9 -9 19 -35t19 -52q9 -28 15 -50t7 -23q13 -56 13 -110q0 -28 -4 -55q-10 -79 -59 -153q-9 -15 -21 -29t-29 -22q-13 -6 -27 -6q-8 0 -15 2q-21 5 -41 18q-20 14 -36 32t-22 36l-25 71q-12 36 -12 84q1 6 1 11q2 55 12 112q11 57 30 109t41 87 q9 14 25 22t30 17z"/>
<glyph glyph-name="one" horiz-adv-x="288" unicode="1" d="M15 -24q-10 2 -15 8t-5 12q0 13 15 19q20 1 46 3l20 2q2 -4 4 -6q6 -8 14 -10t20 -1q10 1 20 1h21q9 0 17 2q8 3 13 11q3 5 5 13q18 1 35 1q14 0 27 -1t24 -3q9 -4 9 -10t-7 -9q-8 -4 -16 -5t-15 -1h-59t-62 -2q-30 -2 -58 -8t-53 -16zM191 42q-1 10 -1 18v17v33t1 34 q-1 12 -1 24t-1 23q-1 -8 -1 -15q-2 64 -2 126v148v30v21q-1 1 -1 3q-6 16 -18 24q-6 4 -9 5q-4 0 -5 1h-5q-7 0 -10 -1q-8 -2 -12 -6l-5 -3q0 -2 -2 -2q-1 -2 -3 -4t-4 -6t-4 -10l-30 -28q-8 -7 -22 -15q-14 -7 -28 -17t-23 -21q-10 -11 -11 -24q1 11 13 17q13 6 29 13 t35 13t35 17q-2 -55 -6 -107t-10 -103q-5 -51 -10 -103t-8 -107q1 -10 4 -17l36 4q28 3 58 5q10 1 20 1q1 5 1 12z"/>
<glyph glyph-name="two" horiz-adv-x="362" unicode="2" d="M114 97v-3q0 2 1 3v2q-1 -1 -1 -2zM110 451q-1 -10 -7 -16t-14 -6q-12 0 -18 14q-1 9 -4.5 16.5t-7 14.5t-6.5 13.5t-3 14.5q0 9 4 18q11 23 29.5 35t40.5 15q27 10 60 12t66 2q5 0 15 -3t19.5 -8t16.5 -11.5t7 -12.5q2 -8 3.5 -13.5t1.5 -12.5v-6.5t-1 -7.5 q-3 -20 -18 -52.5t-34.5 -67t-38.5 -66t-29 -49.5q-9 -16 -19 -35.5t-18.5 -38.5t-15.5 -36.5t-10 -30.5q-3 -16 -8 -27q-2 -7 -6 -14q19 -5 39 -17.5t39.5 -27t37 -26t31.5 -14.5q12 -3 19 -3q9 0 14 2.5t8.5 6.5t7.5 9t11 9q-2 -3 -3.5 -8.5t-3.5 -7.5q-8 -14 -20.5 -18.5 t-26.5 -4.5t-28 3t-25 7q-5 1 -19 9t-31 17t-33 16t-25 7q-6 0 -7 -3q-8 -9 -17 -11h-6q-3 1 -5.5 2t-5.5 3l-3 3q0 1 -1 1.5t-2 2.5l-2 4q-1 2 -1 7t1 8q5 13 4.5 25.5t6.5 25.5q8 19 10 42.5t7 43.5q15 54 37 104t39 102l19 61q-3 3 -3 9v4q0 30 -18 42t-36 12 q-14 0 -23.5 -4.5t-9.5 -11.5q-1 -2 -3 -4t-3 -4.5t-3 -4.5q-2 -4 -2 -6q0 -6 4 -13t9.5 -14t10 -14t6.5 -12z"/>
<glyph glyph-name="three" horiz-adv-x="428" unicode="3" d="M295 290q-5 27 -11.5 42t-15 22t-18 8.5t-19.5 1.5q-15 0 -32.5 -9t-36 -20.5t-36.5 -20.5t-32 -9q-11 0 -17.5 11.5t-6.5 43.5q0 21 13.5 41.5t43.5 31.5q7 5 16.5 12.5t11.5 9.5q4 3 12 8.5t22 16.5q1 1 5 5.5t8 10.5t7 11t3 7q-2 8 -4 16.5t-10 13.5q-19 13 -46 13 q-13 0 -30 -7t-33.5 -18t-30 -25t-18.5 -27v5q0 23 10 41t26.5 30t37.5 18.5t43 6.5q26 0 49 -8.5t39 -26.5q11 -13 14 -26t3 -30q0 -4 -4.5 -10.5t-10 -13t-10.5 -13t-6 -10.5q2 -2 2 -3q6 -2 17 -2h23t22.5 -0.5t16.5 -3.5q23 -14 42.5 -35t33.5 -45.5t22 -52t8 -54.5 q0 -31 -11.5 -61t-25.5 -56q-17 -32 -34 -54t-46 -45q-9 -8 -23 -13.5t-29 -10t-29.5 -7.5t-26.5 -6q-4 -1 -7.5 -1.5t-8.5 -0.5q-15 0 -34 4.5t-36.5 12.5t-31 19t-18.5 25q-2 5 -2.5 11t-1.5 11q-2 11 -2 18v12q0 9 2 9q3 0 11 -13.5t20 -29.5t27.5 -29.5t35.5 -13.5h4 q8 1 14.5 1.5t11.5 2.5q28 11 50 36t37.5 59.5t23 73.5t7.5 79v10z"/>
<glyph glyph-name="four" horiz-adv-x="408" unicode="4" d="M313 267q-8 -9 -10.5 -23.5t-2.5 -29.5v-27q0 -6 -1 -7q0 -2 -1 -4q6 -1 12 -1h12q12 0 24 0.5t24 0.5h10q2 12 4 19.5t2 21.5q0 24 -8 42t-34 18h-6q-16 0 -25 -10zM45 586q-1 4 -1 12q0 32 18 48.5t40 16.5q19 0 35.5 -13t24.5 -40q3 -21 3 -43q0 -30 -4 -60t-9 -60 l-2 -12q-11 -67 -22.5 -133t-21.5 -133q25 3 51 3q11 0 22.5 -1.5t23.5 -3.5q1 0 1.5 -0.5t1.5 -0.5h29v27q-1 12 -2 17t-1 19q0 17 10 32.5t21 28.5q14 15 30.5 22t33.5 7q18 0 35 -6.5t32 -17.5t25.5 -26.5t14.5 -33.5q4 -15 4 -32q0 -7 -0.5 -11t-1.5 -8t-2.5 -8.5 t-2.5 -12.5q-2 -11 -3.5 -24t-11.5 -21q-13 -11 -27 -13.5t-29 -2.5h-13h-6h-18.5t-18.5 1q-1 -3 -1 -6.5v-6.5v-13q0 -7 -1 -11v-4q0 -10 0.5 -19.5t0.5 -17.5q0 -14 -15 -22.5t-32 -8.5q-9 0 -12 8t-3 19q0 12 1.5 25.5t1.5 23.5v16t1 16q-7 0 -16 0.5t-16 0.5h-5 q-27 0 -61 -5t-63 -5q-17 0 -29 3q-14 6 -19.5 14.5t-7.5 22.5q-1 11 -1 22v22q0 68 8.5 136t12.5 135q1 19 2.5 39.5t1.5 40.5q0 15 -1.5 29.5t-5.5 28.5z"/>
<glyph glyph-name="five" horiz-adv-x="353" unicode="5" d="M51 512q23 17 44 17q15 0 23 -3t21 -7q16 -2 32 -6t28 -5h6q25 0 49.5 8t49.5 8q5 -1 6.5 -1h3.5q1 0 2 -1v-3q0 -1 -1 -2v-1q-2 0 -9.5 -3t-9.5 -3q-9 0 -15.5 -4t-14.5 -5q-9 -2 -30.5 -9.5t-44.5 -7.5h-6q-2 0 -14.5 1.5t-27.5 3.5v-7q0 -11 -3 -26q-1 -9 -2.5 -21.5 t-2.5 -14.5q-2 -4 -2 -7t-1 -7q37 -5 67 -27q18 -13 33.5 -30.5t30.5 -33.5q35 -38 55 -79t20 -86q0 -29 -8.5 -58.5t-28.5 -58.5q-14 -22 -45.5 -31.5t-68.5 -9.5q-14 0 -27 1t-27 3q-10 0 -22 3q-15 3 -26 10q-26 8 -45.5 21t-25.5 30q-3 7 -4 14t-1 14q0 23 9 45.5 t25 39.5q9 11 21.5 18.5t29.5 10.5q3 1 9 1h5h8q0 -2 -2 -3t-3 -2q-6 -5 -18 -18t-24 -37l-7.5 -21t-2.5 -12t0.5 -10.5t5.5 -10.5l7 -14q10 -27 24 -37t29 -10q6 0 12 1t11 3q11 6 27.5 18t33 26.5t30.5 29t19 26.5q2 5 4 11q0 12 -2.5 23.5t-5.5 22.5q-5 15 -19 32.5 t-30.5 34.5t-34 31t-30.5 23l-12 2q-5 0 -8 0.5t-5 0.5q-6 0 -9 -2t-11 -9q-9 -5 -17 -7t-16 -2q-20 0 -33.5 13.5t-13.5 36.5q0 4 0.5 7t1.5 8l4 12l4 12q0 11 2 29t5 37.5t8 37t11 26.5z"/>
<glyph glyph-name="six" horiz-adv-x="352" unicode="6" d="M261 153q-24 19 -56 30.5t-63 11.5q-9 0 -18 -6.5t-18 -10.5q0 -9 0.5 -13t1.5 -6.5t2 -6t2 -11.5q2 -12 10 -26t13 -26q21 -22 39 -34.5t36 -12.5q16 0 29 1t21 6t12.5 15.5t4.5 30.5q0 22 -3 40t-13 18zM210 607q5 2 6.5 2.5t3.5 0.5h8q18 0 27.5 -1t9.5 -9 q0 -7 -6 -17q-6 -11 -15.5 -24.5t-35.5 -34.5q-16 -16 -28.5 -34t-21.5 -35t-15 -30.5t-8 -19.5l-3 -9q-8 -20 -13 -34.5t-8 -27.5t-4.5 -26.5t-1.5 -31.5q0 -14 1.5 -28.5t2.5 -30.5q9 4 19.5 4.5t25.5 2.5q5 1 10.5 1.5t10.5 0.5q18 0 35 -4.5t34 -12.5q10 -4 18.5 -11.5 t14.5 -15.5q17 -22 26 -47.5t9 -50.5q0 -36 -20.5 -63t-68.5 -32q-7 -1 -13.5 -1.5t-13.5 -0.5q-8 0 -12 1q-5 1 -16.5 2.5t-25 4.5t-26 8t-19.5 13q-6 7 -15.5 15t-19 16.5t-17.5 17.5t-11 18q-7 25 -11.5 41.5t-7 30t-3.5 25.5t-1 29q0 10 0.5 21t0.5 25v10q2 51 18.5 102 t33.5 98q9 24 22.5 41.5t29 32t33 27.5t35.5 28z"/>
<glyph glyph-name="seven" horiz-adv-x="413" unicode="7" d="M238 -38q-20 -24 -34.5 -26t-19.5 -2q-17 0 -30 9q-13 0 -24 6.5t-18.5 17t-9.5 21t-2 17.5q0 9 2 20q25 38 45.5 80t38.5 85.5t34 87.5t31 87q13 34 20 64.5t15 64.5q1 3 3.5 12t6.5 20h-3l-86 2q-30 1 -55.5 3.5t-40.5 2.5q-22 0 -44 -3q7 -12 7.5 -26.5t-2 -29.5 t-7.5 -29.5t-9 -26.5q0 -2 -5 -4q8 9 8 29q0 16 -4 33.5t-11 33.5t-14 20q-4 5 -4 9q0 5 8 8q20 6 43.5 9.5t46.5 5.5t45 3t40 3q31 3 56.5 5t42.5 2q14 0 28 -1q11 -3 15.5 -7.5t7.5 -15.5v-7q0 -10 -5.5 -21t-7.5 -25t-2.5 -29.5t-2.5 -30.5q-1 -17 -3 -35t-4 -33 q-5 -36 -9 -71.5t-8.5 -71t-11 -71t-16.5 -69.5q-9 -33 -24 -63.5t-27 -62.5z"/>
<glyph glyph-name="eight" horiz-adv-x="347" unicode="8" d="M181 524q-2 16 -2.5 24t2.5 23q-17 3 -27.5 3.5t-12.5 0.5q-15 0 -30 -3t-27.5 -9.5t-18.5 -18.5q-1 -2 -4.5 -13t-7.5 -24.5t-7 -24.5t-2 -12q10 -14 16 -32t19 -31q10 -10 27.5 -15t33.5 -11l13 21q10 23 16 46t11 47q2 5 2 9t1 8v1q0 3 -1 6t-1 5zM238 230 q-9 14 -19 28t-21 27l-7 -11q-2 -3 -4 -10t-3 -5q-1 -1 -1 -2q-8 -20 -20 -40q-2 -2 -9 -11q-7 -8 -13 -16q-4 -5 -6 -8l8 9l-3 -3q-4 -6 -6 -11q-7 -22 -14 -41.5t-7 -37.5q0 -15 7 -30t30 -33q12 -8 25 -15t27 -13q5 -2 12 -4.5t14 -3.5q3 0 4 1l10 4t6 2q13 13 20.5 20 t14.5 24q6 17 6 36q0 5 -1 19.5t-8.5 38.5t-19 46.5t-22.5 39.5zM34 69q-4 11 -4 25q0 13 5 38.5t19 65t32.5 79.5t35.5 72q-20 11 -35 18.5t-27 18t-21.5 27.5t-19.5 49q-2 5 -2 10q0 8 5 18.5t10 21.5q7 16 12 31t17 26q10 9 25 15t27.5 7t20.5 1t21.5 -1t29.5 -7 q16 10 29.5 12t20.5 2q11 0 24.5 -3t25.5 -13q10 -8 12 -21q1 3 0.5 -5t0.5 -14q2 -11 2.5 -24t-3.5 -24q-8 -31 -18 -61.5t-24 -59.5q-7 -14 -15.5 -26t-17.5 -24q30 -30 57 -68q29 -41 46.5 -86t19.5 -96v-8q0 -18 -7.5 -40t-21.5 -39q-21 -24 -39 -36.5t-30.5 -14.5 t-19.5 -2q-13 0 -32 5t-49 17q-39 17 -68.5 44.5t-43.5 69.5z"/>
<glyph glyph-name="nine" horiz-adv-x="334" unicode="9" d="M34 449q24 -19 56 -30.5t63 -11.5q9 0 18 6.5t18 10.5q0 9 -1 13t-1.5 6.5t-1.5 6t-2 11.5q-2 12 -10 26t-13 26q-21 22 -39 34.5t-36 12.5q-17 0 -29.5 -1t-20.5 -6t-12.5 -15.5t-4.5 -30.5q0 -22 3 -40t13 -18zM128 -1q-5 -2 -6.5 -2.5t-3.5 -0.5h-8q-18 0 -27.5 1 t-9.5 9q0 6 6 17t15.5 24.5t35.5 34.5q16 16 28.5 34t21.5 35t15 30.5t8 19.5l3 9q7 20 7 35q0 10 -0.5 16t-0.5 12t-0.5 13.5t-0.5 20.5q0 14 -8 35.5t-9 37.5q-9 -4 -19.5 -4.5t-25.5 -2.5q-5 -1 -10.5 -1.5t-10.5 -0.5q-18 0 -35 4.5t-34 12.5q-10 4 -18.5 11.5 t-14.5 15.5q-17 22 -26 47.5t-9 50.5q0 36 20.5 63t68.5 32q7 1 13.5 1.5t13.5 0.5q8 0 12 -1q5 -1 16.5 -2.5t25 -4.5t26 -8t19.5 -13q6 -8 15.5 -15.5t19 -16t17.5 -17.5t11 -18q7 -25 11.5 -41.5t7 -30t3.5 -26t1 -28.5q0 -10 -0.5 -21t-0.5 -25v-10v-23v-45 q0 -32 -3 -62.5t-14 -60.5q-9 -24 -22.5 -41.5t-29 -32t-33 -27.5t-35.5 -28z"/>
<glyph glyph-name="colon" horiz-adv-x="291" unicode=":" d="M161 317q-4 -4 -12 -4l-5 -3q-8 -2 -12 -1t-10 6q-12 5 -16 17t-1 22q0 10 7 17q6 6 14 8q6 6 14 9q3 1 5 1q5 0 11 -3q12 -6 17 -16t5 -20t-4 -20q-4 -9 -13 -13zM152 151q-4 -4 -12 -4l-5 -3q-5 -1 -9 -1h-4q-4 1 -9 6q-11 5 -15 17q-3 7 -3 13q0 4 1 9q0 10 7 17 q6 6 14 8q5 6 13 9q3 1 6 1q5 0 11 -3q12 -6 17 -16t5 -20q-1 -10 -5 -20q-4 -9 -12 -13z"/>
<glyph glyph-name="semicolon" horiz-adv-x="240" unicode=";" d="M150 92q12 -7 15 -20t-2 -27q2 -8 2 -15q0 -11 -4 -20q-6 -15 -15 -27t-19 -22t-15 -19q-2 -8 -9 -8h-3q-9 2 -7 13l3 10q-4 6 1 12q2 5 4 15t4 21q-13 13 -15 31v6q0 15 6 28q8 16 22 24q6 4 13 4q9 0 19 -6zM155 152q-4 -4 -12 -4l-5 -3q-5 -1 -9 -1h-3q-4 1 -10 6 q-12 4 -16 16q-3 7 -2 14q0 4 1 9q0 10 7 17q6 6 14 8q6 6 14 9q3 1 5 1q5 0 11 -3q12 -6 17 -16q5 -11 5 -21t-4 -19t-13 -13z"/>
<glyph glyph-name="less" horiz-adv-x="333" unicode="&lt;" d="M295 337q-5 -16 -12.5 -30.5t-18.5 -27.5q-7 -8 -13.5 -14t-15.5 -10q-3 -2 -5.5 -4.5l-4.5 -4.5q-10 -8 -19 -17t-19 -17q-9 -7 -19 -12t-20 -11q-13 -8 -26.5 -16t-24.5 -18q14 -11 31.5 -20.5t33.5 -20.5q22 -15 44 -30.5t45 -30.5l8 -6t6 -8q2 -4 1.5 -9.5t-4.5 -7.5 q-3 -2 -7 -2q-2 0 -5.5 1t-8.5 3q-61 33 -119 74q-14 10 -27.5 21.5t-28.5 19.5q-14 8 -24 12.5t-18 20.5q-2 5 -2.5 9.5t-1.5 9.5q3 38 25 63l26 26q22 23 43.5 46.5t44.5 46.5q7 7 13 13.5t14 13.5q1 2 4 2q2 0 4 -1l42 -12q3 -1 6.5 -1.5t5.5 0.5q6 2 10 0.5t9 -4.5 q5 -5 10.5 -9t10.5 -9q8 -10 8 -20q0 -5 -1 -9z"/>
<glyph glyph-name="equal" horiz-adv-x="444" unicode="=" d="M321 181q0 -12 -11 -19q-12 -5 -26 -7t-28 -2q-3 0 -13.5 0.5t-29 1.5t-36.5 2q-18 -2 -29.5 -2.5t-18.5 -0.5h-12q-13 3 -15 14q-3 0 -7 2q-14 7 -13 19.5t15 18.5q2 0 2.5 0.5t2.5 0.5q4 3 11 3q23 5 48 5q11 0 35 -2t56 -4h12q12 0 26 1.5t31 1.5q4 -2 7 -4 q7 -5 7 -12v-1q0 -2 -1 -3q0 -3 -3 -6q-3 -4 -10 -7zM320 282q0 -12 -11 -19q-12 -5 -26 -7t-28 -2q-3 0 -13.5 0.5t-29 1.5t-36.5 2q-18 -2 -29.5 -3t-18.5 -1t-12 1q-13 3 -15 14q-3 0 -7 2q-13 7 -13 18q0 14 15 20q2 0 2.5 0.5t2.5 0.5q4 3 11 3q23 5 48 5q11 0 35 -2 t56 -4h12q12 0 26 1.5t31 1.5q4 -2 7 -4q7 -5 7 -12v-1q0 -2 -1 -3q0 -3 -3 -6q-3 -4 -10 -7z"/>
<glyph glyph-name="greater" horiz-adv-x="348" unicode="&gt;" d="M267 221q-2 -4 -5 -8t-6 -9q-1 -2 -3.5 -3t-3.5 -3q-4 -18 -25 -23q-3 -1 -6 -4l-6 -6q-15 -14 -28.5 -28.5t-31.5 -24.5q-3 -2 -5.5 -5t-5.5 -6q-12 -12 -24 -24.5t-24 -25.5q-4 -4 -6.5 -8t-6.5 -8l-10.5 -10.5t-11.5 -10.5q-2 -2 -4 -2q-1 0 -3.5 0.5t-4.5 2.5 q-8 5 -11.5 15.5t1.5 18.5q14 26 28 51.5t37 45.5q12 11 21.5 23t19.5 24q5 6 11 11.5t11 12.5q3 4 4 7.5t-4 8.5q-8 8 -14.5 17t-14.5 17q-14 15 -28.5 29t-28.5 29q-13 14 -25.5 28.5t-24.5 29.5q-6 7 -11.5 13.5t-10.5 13.5q-2 2 -2.5 4t-1.5 4q5 0 7 1q10 3 21 3 q14 0 28 -5q5 -2 9.5 -4.5t9.5 -4.5q8 -3 16.5 -6.5t16.5 -7.5q8 -3 15 -8t14 -11q11 -11 23 -22t24 -21q29 -23 50 -55q8 -11 14 -22l12 -22q2 -2 2.5 -5t2.5 -7z"/>
<glyph glyph-name="question" horiz-adv-x="406" unicode="?" d="M172 19q16 -22 16 -43q0 -5 -3 -19.5t-20 -27.5t-38 -13q-2 0 -15.5 1t-30.5 25q-14 19 -14 36q0 4 2.5 16.5t18.5 25.5t28 13.5t14 0.5q21 0 42 -15zM139 467q-11 -3 -20 -3q-6 0 -15.5 2t-20 10t-16 19.5t-5.5 24.5q0 14 6 27.5t19 24.5q31 15 63 24t63 9 q42 0 80 -17.5t65 -60.5v1q5 -8 9.5 -15.5t9.5 -21.5l2 -6q4 -14 8 -31.5t4 -34.5q0 -26 -11 -45q-23 -42 -55.5 -68.5t-68.5 -50.5q-17 -11 -34.5 -22.5t-33.5 -25.5q-12 -10 -17 -24.5t-9 -29.5q-3 -10 -13 -28.5t-17 -31.5l-3 27q2 5 3 14t3 20q3 20 8.5 41t19.5 39 q11 16 28.5 30.5t36.5 28.5q28 23 55 51t37 55v8q0 16 -7 40t-22 39q-8 2 -12 8q0 1 -3 4q-2 2 -6 3.5t-8 2.5q-12 3 -24 3h-13.5t-12.5 -2q-4 -5 -8.5 -6.5t-9.5 -2.5h-5q-11 -5 -20.5 -11t-20.5 -14z"/>
<glyph glyph-name="at" horiz-adv-x="676" unicode="@" d="M370 364q-2 8 -4 20q-1 0 -1 1v2l-7 5h1q-2 2 -5 4t-5 3q-9 4 -19 4q-9 0 -24.5 -5t-33.5 -18.5t-30 -32t-12 -36.5q0 -3 4 -13l1 -6q28 -21 47 -21q20 0 35.5 15t30.5 38l13 22q1 5 8 16zM436 382q5 -17 -2.5 -29.5t-20.5 -16.5q-1 -3 -2 -5.5t-3 -5.5q-2 -12 -3.5 -26 t0.5 -28q1 -12 5 -25.5t10.5 -25t15.5 -18.5t21 -7q5 0 13 2.5t15 6.5q5 5 12.5 11.5t15.5 14.5v-1q8 8 16.5 20.5t13.5 22.5q11 22 14.5 44t3.5 45q0 27 -5 51t-13 39q-6 9 -17 16t-23 14l-15 9q-38 23 -79 40.5t-85 17.5q-30 0 -57 -10q-35 -12 -62.5 -39t-46 -62.5 t-28.5 -75t-10 -75.5q0 -8 0.5 -16t1.5 -15q5 -32 15 -58t26 -53q5 -2 6.5 -7t4.5 -11q0 -1 1 -1h2q8 -10 18 -18.5t22 -14.5q17 -8 30.5 -11t26.5 -3q7 0 14.5 0.5t15.5 1.5q9 1 18.5 2t20.5 1v-10l-32 -3l-22 -2t-21 -1q-20 0 -38 4.5t-36 17.5q-20 14 -34.5 33.5 t-26.5 41.5l-2 3q-17 29 -25.5 62.5t-8.5 68.5q0 23 3 45t9 41q5 21 11.5 35.5t17.5 31.5q3 4 8 14q18 34 46 63t64 40q18 6 36.5 8.5t36.5 2.5q42 0 83 -14t79 -37q4 -2 9.5 -5t9.5 -4q17 -8 34 -18.5t26 -25.5q17 -25 24.5 -56t7.5 -60q0 -11 -0.5 -22t-2.5 -20 q-3 -22 -12 -45.5t-21 -43.5q-22 -32 -54 -54.5t-61 -22.5q-26 0 -49.5 17.5t-37.5 59.5q0 1 -0.5 2.5t-0.5 3.5q-2 5 -4 9.5t-2 9.5q-11 -11 -22 -19.5t-22 -12.5q-15 -5 -31 -5q-17 0 -34 6.5t-33 15.5q-7 4 -16 10t-14 14q-2 2 -4 8.5t-4 13.5q-3 8 -5 18q-2 7 -2 14 q0 8 4 22.5t12 28.5q3 3 3.5 5t1.5 4q3 6 9 14l4 6q22 29 52.5 45.5t63.5 24.5q11 2 20 1.5t18 -2.5q6 -2 7 -2q17 -2 33.5 -13t23.5 -23q8 -18 10 -27q0 -2 0.5 -3.5t0.5 -3.5t1 -6z"/>
<glyph glyph-name="A" horiz-adv-x="529" unicode="A" d="M276 316h1h-1zM341 314q-3 25 -4 55.5t-1 55.5q0 12 0.5 37t0.5 59t-1 55q-5 -19 -12 -51.5t-15 -69t-15.5 -72.5t-13.5 -61l-2 -7h25q13 0 19.5 1t18.5 -2zM267 640q6 32 24 52h-2q14 14 29 17q8 2 16 2q7 0 18.5 -2.5t24 -13.5t19 -28.5t6.5 -38.5v-6 q-7 -46 -10.5 -91.5t-3.5 -89.5q0 -131 31 -260.5t88 -265.5q-35 15 -60.5 48t-44.5 78t-31.5 98t-20.5 109l-62 13l-20 1q-16 -68 -32 -126.5t-33 -100.5q-7 -19 -18.5 -33.5t-24.5 -28.5h1l-18 -20q-14 -12 -28 -17t-25 -5q-28 0 -47 20t-19 49q0 12 4.5 25.5t15.5 26.5 l1 1l8 6q8 8 19 20t18 23q5 8 6.5 12t3.5 7q4 8 7 14.5t6 8.5q16 38 29.5 70t27.5 71q-72 12 -136 12h-47.5t-43.5 9q31 15 67.5 21t75.5 6q26 0 49.5 -1.5t49.5 -4.5q23 68 37.5 133.5t34.5 135.5q-1 9 4.5 21t5.5 23z"/>
<glyph glyph-name="B" horiz-adv-x="595" unicode="B" d="M474 76q10 26 11 47.5t1 28.5q0 27 -5 52q-35 -29 -72.5 -53t-70.5 -55q-15 -13 -30.5 -28t-22.5 -27.5t-7 -23.5q0 -5 2.5 -15t27.5 -23q16 -9 34 -9q8 0 25.5 4t40.5 20.5t41 39t25 42.5zM209 417q6 4 8 5l4 2v-1q4 4 7.5 7t7.5 6q20 15 39 29t37 30q14 12 25.5 28.5 t25.5 26.5q10 15 21 35t19 40.5t10.5 34t2.5 19.5q0 11 -4 21q-3 8 -11.5 10t-18 1t-18.5 -4t-13 -4q-15 -5 -36.5 -15t-44.5 -23t-44.5 -27.5t-34.5 -29.5q2 -37 7.5 -73t8.5 -72zM235 43q2 4 4.5 7.5t5.5 7.5q25 32 57 57.5t64 45.5t61 36.5t47 30.5q-2 8 -5.5 15t-7.5 14 q-25 39 -56.5 56.5t-61.5 17.5q-11 0 -22 -2v-1q-5 -7 -13.5 -7.5t-16.5 -4.5q-3 -1 -9.5 -4.5t-14 -7.5t-14.5 -8t-10 -5q-1 -1 -2 -1q-10 -12 -21 -16q-3 -3 -3 -1q-1 -1 -3 -1l2 -18t3 -17q5 -32 8.5 -64.5t4.5 -65.5q1 -9 1 -18v-19v-4l1 1q1 4 0.5 -4t0.5 -12v-8z M149 711q16 -12 22.5 -16t8.5 -17q5 -6 5.5 -13.5t3.5 -17.5v-10.5v-6.5t0.5 -6.5t0.5 -9.5q12 18 33.5 39t47 40.5t53.5 35t48 20.5t32 5q11 0 26 -4.5t27 -26.5q10 -20 10 -42q0 -4 -1 -19t-12 -43.5t-29 -57.5t-39 -57t-42 -53.5t-38 -46.5q8 -1 25.5 1.5t36.5 5.5 t36.5 4t25.5 -4q32 -20 59.5 -47t44.5 -62l8 -18q26 22 55 39.5t61 25.5q-33 -11 -60 -32t-51 -46q16 -46 16 -95.5t-15 -95t-45 -83t-75 -59.5q-15 -8 -31 -14t-33 -7h-6q-15 0 -34.5 4.5t-38 13.5t-33.5 22t-22 30q-8 -16 -21.5 -24t-28.5 -8q-1 0 -9.5 0.5t-23.5 11 t-25 31.5q0 3 -0.5 5t-0.5 5q-10 9 -14.5 21t-6 25.5t-1 27.5t-0.5 27q-3 67 -9 131l-4 36q0 -2 -1 0q-10 42 -16 84t-14 84q-9 50 -21.5 101t-12.5 99v7q0 23 11 39t28.5 24t38.5 8q1 0 13.5 -0.5t36.5 -10.5z"/>
<glyph glyph-name="C" horiz-adv-x="444" unicode="C" d="M95 526q6 24 11.5 39t13 27t16 23.5t20.5 28.5q29 16 60 33.5t64 17.5q22 0 42 -10q25 -12 36.5 -38t14.5 -55q6 -17 6 -33q-1 -18 -1.5 -29t-1 -18.5t-2 -13t-4.5 -12.5q-2 -12 -6 -21.5t-12 -15.5q-2 -3 -4 -9q0 4 1 7q-11 -8 -28 -8q-11 0 -24 3q26 2 34.5 9.5 t8.5 19.5q0 15 -7.5 35.5t-7.5 45.5h-1q-6 11 -8.5 20.5t-6.5 17.5q-5 -5 -12 -9t-15 -6l-7 -6q-2 -9 -10 -18l-12 -14q-8 -17 -21.5 -33.5t-19.5 -33.5l-12 -28q-3 -21 -14 -33q-10 -26 -18.5 -51t-16.5 -51q-5 -31 -8.5 -62t-9.5 -62l-9 -47v-9q0 -36 7 -72t26 -60 q11 -7 26 -7q13 0 27.5 5.5t27.5 13t24 16.5t19 15q19 16 43 50t49 76t49.5 86.5t45 82.5t36.5 63.5t24 30.5q-25 -51 -49 -107.5t-47.5 -111t-48.5 -103.5t-52 -86.5t-57 -59.5t-64 -22q-6 0 -9 1q-2 0 -4.5 -0.5t-4.5 -0.5q2 -1 4.5 -2t4.5 -1q-8 0 -18 2q-4 0 -7 -0.5 t-7 -0.5q-20 0 -37.5 6.5t-28.5 22.5q-20 27 -30 48q-15 21 -24.5 44.5t-11.5 46.5t-4.5 46t-2.5 46q0 64 11.5 129.5t33.5 128.5q4 18 8.5 36t11.5 37z"/>
<glyph glyph-name="D" horiz-adv-x="492" unicode="D" d="M335 142q11 27 11 54q-27 -13 -53 -34q-12 -10 -13.5 -19.5t1.5 -17.5t7.5 -13.5t5.5 -8.5q13 0 25 15t16 24zM153 43q-10 -27 -27 -37.5t-32 -10.5l-12 1q-13 2 -28 18t-19 44q7 36 19 69q8 19 8 16l-4 -17q9 28 15 60q-2 47 -6.5 93.5t-7.5 79.5l-7 74q-1 5 -1 15 q-3 -3 -4.5 0.5t-2 10.5t-0.5 14t-1 12q-3 13 -4.5 19t-2 10t-1.5 8.5t-2 14.5l-3 26v2q0 4 -2 6q-1 4 -3 9.5t-4 8.5h1q-3 6 -3 15v3q5 24 18 38.5t24 17t16 2.5q12 0 27 -7t29 -27q8 -38 12 -77t5 -79q4 13 9.5 27.5t11 27t9.5 22.5t6 13l-1 1q-3 2 0 6t5 8q3 11 9.5 23.5 t16 23t22 16t27.5 2.5q13 -3 27.5 -16.5t29 -32.5t27.5 -41.5t23 -42.5l4 -3q8 -14 13 -24.5t7 -27.5q2 -5 2 -10.5t1 -10.5q1 -3 1 -7t-1 -2q1 -5 1 -9q2 -10 4 -21q6 -33 9 -62.5t3 -54.5v-15q32 15 62.5 32.5t57.5 26.5q-8 -4 -22.5 -14.5t-29.5 -23t-28.5 -23.5 t-20.5 -16l-20 -13l-1 -9q-2 -17 -4 -30t-5 -25t-7 -25t-10 -28q-5 -14 -11.5 -20t-20.5 -21q-8 -11 -21 -16t-26 -11q-12 -6 -24 -6q-11 0 -27.5 8t-30.5 28t-15 34t-1 16q0 22 15 39q9 11 15.5 18.5t13.5 12.5t15.5 10t22.5 11q23 11 40 17q-2 21 -6 42t-9 40 q-7 29 -16.5 56t-17.5 56q-6 9 -11 22q1 7 -1 15q-1 6 -2 10q1 -2 3 -4l2 13q-1 5 -3.5 13l-5 16t-3.5 15t1 12h1q-3 10 -5 20.5t-3 12.5l-6 14l-7 -3l-30 -21q-4 -5 -12 -17.5t-17 -28.5t-18.5 -32.5t-16.5 -29.5v-28q0 -28 -1.5 -61.5t-3.5 -74.5q5 -33 7.5 -66.5 t4.5 -66.5q1 -10 1 -19q0 -19 -3 -39t-3 -40q0 -10 1 -20zM270 478v2v-2z"/>
<glyph glyph-name="E" horiz-adv-x="367" unicode="E" d="M7 646q-1 5 -1 15q-4 8 -4 20q0 17 12 33.5t36 25.5q76 -6 152.5 -17.5t149.5 -32.5q-27 -6 -50 -7.5t-45.5 -2.5t-46 -3t-50.5 -9l-45 -11q17 -57 26 -135t9 -163q7 -1 13.5 -1h12.5h9t8 1q25 -5 50 -5h8.5h8.5q25 0 50 -5q-10 -3 -28 -6.5t-40 -7t-46 -7.5t-46 -7 q-2 -85 -11.5 -163.5t-26.5 -134.5q22 -2 37.5 -5.5t44.5 -7.5q6 0 22.5 -1.5t37 -2.5t42.5 -2t40 -1q14 0 24.5 0.5t14.5 2.5v-1q-24 -41 -52.5 -53.5t-58.5 -12.5q-23 0 -44.5 -5t-42.5 -11q-26 -7 -37 -10.5t-17.5 -4.5t-14 -0.5t-26.5 0.5q-5 -1 -9 -1.5t-8 -0.5 q-30 0 -46.5 17.5t-16.5 39.5q0 18 10 32v33v65q0 16 1 43t2 59t3 65t3 61t2 47t1 23q1 26 2.5 57t1.5 63q0 37 -4 72t-17 63z"/>
<glyph glyph-name="F" horiz-adv-x="366" unicode="F" d="M6 687q4 20 16.5 33t28 18.5t30.5 5.5q3 0 13 -0.5t25 -8.5q2 0 4.5 0.5t4.5 0.5q31 -6 63 -9t61 -11q0 -2 11.5 -3t29.5 -2.5t40.5 -4t44.5 -8.5q-36 -9 -62.5 -12.5t-51 -5.5t-50.5 -4t-62 -8q-2 -60 -2 -119v-119q9 -1 12.5 -1.5t6 -1t6 -1t11.5 -2.5q21 -2 37.5 -8 t49.5 -19q-30 -7 -46.5 -10t-28 -4.5t-21.5 -2t-27 -2.5q-7 -49 -9 -80.5t-2 -54.5q0 -6 0.5 -22.5t2.5 -36.5t2 -38q0 -5 -0.5 -19t-5 -41.5t-15.5 -64.5q-9 -23 -28.5 -23t-30.5 21q-1 6 -5.5 11.5t-9.5 11t-9 10.5t-4 11v7v4q-4 32 -4 62q0 9 1 33t6 63q-2 47 -4.5 87.5 t-2.5 77.5v25v11q0 61 -10.5 124.5t-15.5 129.5z"/>
<glyph glyph-name="G" horiz-adv-x="548" unicode="G" d="M524 272q-13 -2 -25 -3l-24 -2l5 -9q1 -4 -2 -20q-4 -16 -8 -38q-4 -20 -9 -40t-6 -32q-2 -18 -3 -32q0 -14 -2 -27q-2 -15 -6 -31t-12 -40q-2 20 -6 36t-8 30t-10 29t-11 36q-2 11 -4 21t-4 21q-5 -19 -13 -37t-18 -33q0 -13 -11 -29q-4 -3 -12 -7q-1 -2 -5 -2l-12 -6 q-19 -13 -44 -25t-52 -18q-33 -14 -68 -17h-8q-31 0 -60 19q-42 30 -64 74t-28 94q-3 24 -3 49q-1 27 3 55q6 54 20 107q2 33 10 69t20 69t29 63t40 53q11 19 23 35t29 29q5 13 15 24t30 19q11 0 27 2h5q12 0 20 -6q20 -15 32 -40q12 -26 18 -54t5 -57q0 -29 -3 -51 q-14 20 -28 41t-30 41v-1q4 -5 6 -9t0 -3l-9 11l-8 -6q-11 -3 -24 -21t-25 -40t-22 -43t-13 -28q-17 -34 -33 -72t-28 -80q-2 -14 -2 -30v-31t3 -35t9 -38q6 -20 15 -39t21 -33q14 -6 25 -17q3 -3 7 -5t6 -4q8 -2 16 -2t12 -2q7 1 13 2t13 1l1 1h1q18 9 36 17t39 12h2 q11 10 19 24t19 33q7 14 9 37t8 43q-53 10 -75 24t-16 14q25 -8 55 -8h6q34 1 67 6q33 6 61 12t46 9q16 1 25 -7q11 -10 11 -22q0 -9 -6 -17q-7 -10 -22 -13z"/>
<glyph glyph-name="H" horiz-adv-x="527" unicode="H" d="M32 -3q17 -8 28.5 -9t19.5 2l10 22q1 10 1 21q0 10 -1 18.5t-1 15.5q0 16 3 36l-1 20q-25 -20 -46.5 -44t-32.5 -51q1 -1 2 -1q7 -7 10.5 -14.5t7.5 -15.5zM416 82q0 1 -1 4t-3 11l4 -7q-1 2 -1 4t-1 4t-1 3q-2 0 -2 -1q-2 10 -5.5 23t-7 27t-7 27.5t-6.5 24.5 q-5 18 -9 36t-7 37q-37 -12 -73 -27t-71 -34q-1 -33 -4 -65t-8 -60q-3 -21 -10.5 -46t-16.5 -45q-5 -11 -8.5 -14.5t-6.5 -5.5l-4 -16q-6 -15 -19 -20q-17 -18 -41 -23q-8 -6 -15 -9q-15 -5 -33 -5t-35 5.5t-30 17t-18 28.5q-6 19 -6 38q0 14 5.5 35.5t23 48t42.5 49.5 t50 43q0 11 -0.5 21t-0.5 21q-2 50 -8 98.5t-6 98.5q0 3 0.5 0t1 -8t0.5 -11q-2 42 -4 81q-4 45 -5 91q-1 17 -1 32v31v5q-1 6 -1.5 11.5t-0.5 6.5q0 2 -1 5t0 2q-5 17 5 27q-5 11 -0.5 23t20.5 18q8 4 15 4l9 -1q8 1 14.5 1t12.5 -3q21 -11 34.5 -35.5t22 -53.5t13 -58 t7.5 -48q8 -57 9.5 -95t1.5 -53q0 -44 -5 -86q1 -9 1 -18.5v-18.5q34 16 68.5 27.5t71.5 20.5q-9 60 -10.5 99t-1.5 56q0 43 4 87q0 4 2 19.5t4 32.5t4 31.5t3 16.5v1q-7 14 -3 25.5t13 16.5t21 3t21 -14q11 -15 15 -32t4.5 -30.5t0.5 -22.5t-0.5 -15t-0.5 -8q0 -15 3 -30 q1 -3 1 -0.5v6.5v8.5v7.5q1 3 1 -3v-10q2 -10 4 -19.5t4 -20.5q5 -30 8.5 -61t7.5 -62q2 -17 4 -32.5t4 -31.5q37 3 75 3q9 -2 9 -11q0 -7 -10 -9q-18 -1 -36 -2.5t-35 -4.5q7 -56 11.5 -111.5t7.5 -112.5q5 -12 9 -24t6 -25l5 -10t1 -6q4 -8 4 -20v-1q-9 -23 -27 -23 q-9 0 -20 5q-6 3 -14 14.5t-15.5 25t-14 25t-8.5 15.5q-3 5 -5 13.5t-4 16.5h-1zM411 100q1 -1 1 -3q0 1 -0.5 1.5t-0.5 1.5z"/>
<glyph glyph-name="I" horiz-adv-x="309" unicode="I" d="M207 429q22 -47 28.5 -97t8 -99.5t2.5 -98t12 -93.5q15 0 22.5 0.5t12.5 0.5t9.5 -0.5t13.5 -3.5q16 -4 16 -21q0 -12 -14 -19t-33.5 -9t-37.5 -2q-7 0 -22.5 0.5t-29.5 1.5q-10 -2 -20 -3.5t-21 -3.5q-34 -4 -68 -4q-4 0 -25.5 0.5t-59.5 4.5q-2 0 -3 1h-1q-1 0 -1 0.5 t-1 0.5l-2 2l-2 2q-8 2 -8 10q0 6 8 9q20 8 48.5 14.5t62.5 11.5v4q-9 56 -9 110q0 3 0.5 33.5t0.5 89.5q0 108 -1 167t-1 71q0 95 11 190q-25 2 -49 6t-49 7q-11 2 -10.5 10t11.5 10q38 3 76 3q32 0 64 3q50 10 98 10q21 0 42 -2q8 -2 8.5 -10t-9.5 -10q-29 -5 -59 -13 t-61 -13q11 -69 24 -135.5t18 -135.5z"/>
<glyph glyph-name="J" horiz-adv-x="369" unicode="J" d="M218 109q8 28 8 52q0 7 -1 14q-41 -35 -69 -79q-25 -40 -25 -90v-11q1 -7 3 -16t6 -16q10 -5 23 -5t24 3q1 21 9 59t22 89zM-29 628q-15 -4 -23 8q-4 6 -4 11q0 6 4 11q0 10 10 19q34 15 80 25t97 15q50 5 99 7t88 1q20 5 38 9q12 3 26 3q6 0 13 -1q-5 -1 -11 -2t-12 -3 l18 3l-16 -4t-16 -3q-16 -6 -30 -12t-30 -10q-22 -5 -44 -9t-45 -5q2 -2 3 -4t3 -4q28 -95 48 -203t28 -214q9 6 17 16t16 19t18 15t22 9q21 2 19 -10t-22 -17q-13 1 -21 -5q-8 -7 -16 -17q-7 -10 -12 -22t-11 -22l-5 -3q-2 -5 -2 -11v-11v-21t1 -19q1 -12 -1 -18 q-2 -7 -4 -11t-4 -10t-2 -17q-4 -8 -5 -12q-3 -11 -6 -23t-8 -23q-5 -22 -11 -43t-6 -44q-6 -12 -16 -15q-5 -7 -10 -12q-4 -4 -9 -4h-2q-7 1 -9 2t-3 1h-2t-5 -1q0 1 1 1l1 1v1q-14 -2 -30 -2t-28 5t-20 15t-6 27q0 7 2 17q0 14 2 29t6 25q16 51 40 85t56 63l-4 20t-5 22 l-2 9l-4 16v-5q-20 66 -39 130t-42 130q-6 11 -12 21q-6 9 -13 21t-17 27t-22 38q-2 3 -2 7t1 7v7q-33 -9 -57 -15t-31 -11z"/>
<glyph glyph-name="K" horiz-adv-x="465" unicode="K" d="M6 616q5 17 17 25.5t24 7.5h2q7 4 11.5 5.5t8.5 1.5t8 -1q7 0 11 -2h4q2 -1 5.5 -1h5.5q9 -5 19 -15l3 -3q1 -1 1 -2t1 -3q9 -16 10 -33t1 -29v-16q5 -15 5.5 -31.5t1.5 -32.5l3 -31h3q15 -1 29 9t24 17q13 9 21.5 16.5t15 15t11.5 15t12 16.5q1 2 2.5 3.5t3.5 4.5 q2 2 3 5t3 6q-2 -6 -3.5 -13t-3.5 -13l9 9q2 7 4 17q1 7 4 11v-1q0 -2 -1 -5q-1 -5 -1 -10v-10t-2 -6q-5 -21 -21 -45.5t-32 -39.5q-14 -14 -32 -22t-38 -16q8 -1 13.5 -2t10.5 -2q39 -3 72.5 -19.5t60 -41.5t44.5 -56t27 -62q7 -23 9.5 -47l5 -48t7 -47t14.5 -45 q2 -7 9 -17q5 -3 12.5 -10t12.5 -7q16 -2 26.5 -5t10.5 -6q0 -2 -6.5 -3t-12.5 -1q-8 0 -21 1q-33 3 -52.5 28.5t-32.5 60.5t-23 72t-24 62q-5 9 -20.5 19.5t-34.5 20t-36.5 17t-26.5 11.5q-3 2 -4 1q-11 5 -19.5 8t-16.5 4q-3 0 -5 -0.5t-4 0.5q1 -17 1 -34t-1 -42t-4 -57 q-4 -45 -11.5 -85t-21.5 -69q-6 -22 -17 -30l-8 -4q-6 -8 -15 -13t-19 -5h-3q-9 1 -21 8q-12 11 -18 25.5t-9 31.5q-7 10 -10.5 26.5t-4.5 33t-1 29.5q0 7 0.5 21.5t2.5 35.5q1 20 3.5 39t5.5 34q-7 63 -7 126q0 28 3 88t6 151zM286 575l3 3q-3 -1 -3 -3z"/>
<glyph glyph-name="L" horiz-adv-x="320" unicode="L" d="M112 2h52q34 0 71 2t73 6q7 1 18 0t20 -2.5t13 -3t4 -2.5t-2 -1l-1 1q-7 -1 -24 -4t-36.5 -7t-36.5 -7t-24 -3q-25 -6 -40 -10t-25 -6t-17.5 -4t-17.5 -4q-14 -3 -26.5 -10.5t-29.5 -9.5q-16 0 -31 5q-5 2 -9 3q-3 -1 -7 -1q-7 0 -15 3v0q-8 2 -13 5q-12 1 -23 10 q-12 10 -14 30q5 29 15.5 56t16.5 56q2 5 2 11v12v26q-1 8 -1.5 14.5t-0.5 13.5q0 10 1 15q2 26 7.5 51t7.5 51q3 30 3 61q0 3 -0.5 5.5t-0.5 5.5q-2 18 -4.5 35.5t-5.5 34.5q0 -5 1 -11q-10 43 -16 87q-6 46 -11 94q1 12 8 20q0 1 -0.5 2t-0.5 2v5q0 20 15.5 31t35.5 11 q17 0 32 -8.5t20 -26.5q18 -113 29 -202t11 -157q0 -26 -1 -52q-2 -46 -2 -90.5t-4 -81.5q-4 -35 -16 -61z"/>
<glyph glyph-name="M" horiz-adv-x="684" unicode="M" d="M365 259l-2 2v1v0q-6 -2 -12 1t-9 11l-3 3q-3 5 -6.5 7t-7 3t-6.5 3t-4 8q-21 9 -33.5 34.5t-20.5 54.5t-13 55t-11 37q-8 14 -20.5 22.5t-22.5 20.5q-2 6 -2 9q-3 2 -7 8q-1 1 -1 4q-20 -12 -39 -28q9 -61 16 -117q9 -75 9 -142q0 -26 -1 -52q-2 -46 -2 -90.5 t-4.5 -81.5t-17 -64t-39.5 -37q-17 -18 -35 -18q-11 0 -25 8q-14 0 -26 10t-14 30q5 29 15.5 56t16.5 56q2 5 2 11v12v26q-1 8 -1.5 14.5t-0.5 13.5q0 10 1 15q2 26 7.5 51t7.5 51q3 30 3 61q0 3 -0.5 5.5t-0.5 5.5q-2 18 -4.5 35.5t-5.5 34.5v-7q-10 44 -15.5 88t-10.5 89 q1 12 8 20q0 1 -0.5 2t-0.5 2v5q0 20 15.5 31t35.5 11q17 0 32 -8.5t20 -26.5q7 -42 13 -82q22 25 49 47q0 5 3.5 10.5t11.5 8.5q7 2 13.5 5.5t13.5 1.5q14 -2 30 -26.5t31.5 -58t28 -70t18.5 -62.5q7 -17 12 -32.5t7 -28.5l3 -4q5 -10 9 -20v0q2 9 6 18q2 6 4.5 12t5.5 11 q4 12 14 43t22 66.5t22.5 66.5t16.5 43q0 2 3 7l18 36t19 35v2h1q0 1 1 2q2 4 4 7t4 7q7 6 16 6q1 0 5.5 -0.5t9.5 -5.5q2 0 4.5 -0.5t4.5 -0.5q27 -2 46.5 -14.5t31.5 -31.5t18 -43t6 -48q0 -20 -2.5 -40t-6.5 -40q3 -14 1 -29t-5 -29.5t-6.5 -27t-4.5 -20.5 q-2 -20 -4 -39.5t-3 -39.5q2 -20 6 -37l20 -59h1q9 -10 16.5 -25t12.5 -33t5 -37q0 -15 -4 -28q2 -6 -1 -16q-8 -15 -19.5 -17.5t-19.5 -2.5q-9 0 -23 3t-31.5 11.5t-27.5 16.5q-13 11 -24 31t-14 37q-4 25 -4 50q0 31 6 63q-3 27 -3.5 37.5t-0.5 14.5q0 12 1.5 26t5 30.5 t8.5 42.5q4 20 9.5 40t10.5 40l6 56q-1 2 -1 6q-4 10 -7 20t-8 21l-23 6q-2 0 -3 -0.5t-2 -0.5q-11 -14 -27 -45t-31.5 -65t-29 -62.5t-19.5 -36.5q0 -1 -6 -10q-4 -10 -12 -23q-6 -11 -13 -23q1 -2 1 -5q-1 -9 -6 -15q-3 -4 -7 -5z"/>
<glyph glyph-name="N" horiz-adv-x="430" unicode="N" d="M391 50q-2 -11 -8 -21t-12 -21q-1 -7 -10 -12q-4 -3 -10 -5q-8 0 -12 3q-18 7 -28 20.5t-14.5 31t-6 37t-1.5 39.5v11q-8 32 -16 72q-17 48 -32 96t-30 93q-4 11 -12 36.5t-19 53.5q-10 28 -21 54q-2 4 -4 9q5 -63 9 -125q3 -45 2 -88q0 -46 -3 -89q-2 -11 -2.5 -21.5 t-2.5 -21.5l-1 -18q-1 -14 -1 -26q0 -9 1 -23.5t3 -31t4 -30t1 -23.5q-1 -14 -9 -23.5t-30 -16.5q-16 -15 -32 -15h-4q-12 2 -25 10q-20 2 -30.5 12.5t-10.5 24.5l2 46q3 47 3 62.5v25.5t0.5 22t2.5 29t7 48q3 14 4.5 29.5t3.5 30.5v11q0 18 -1.5 34.5t-3.5 29.5 q-7 45 -9.5 89t-3.5 89q0 4 1.5 13.5t8 20t21 20t41.5 12.5q17 -2 31 -11q12 -8 16 -22q6 5 13 5q11 0 18 -10l18 -36q15 -24 27 -54t21 -63.5t16 -69t13 -71.5l1 -5q7 -24 16 -51t17 -52t14.5 -45t8.5 -30q0 -5 1 -8q4 10 5.5 25t2.5 30q0 16 2 30q1 10 4 18q-1 -4 0 -2 q3 11 5.5 21t4.5 21v8q-1 5 -1.5 9t-0.5 9v8q-1 7 -1 13v13v19q0 29 1 56.5t1 55.5v49v38q-1 9 -1.5 19t-0.5 21v12.5t1 11.5v8q-2 4 -2 11q0 9 5.5 14.5t13.5 5.5q11 0 18 -10l3 -8q4 -4 4 -12q0 -5 -1 -8q5 -5 8 -12q-5 -38 -6.5 -75.5t-2.5 -75.5q5 -55 9 -110t4 -110 q0 -47 -3.5 -92.5t-12.5 -91.5z"/>
<glyph glyph-name="O" horiz-adv-x="412" unicode="O" d="M150 -8q-1 1 -2 1q-2 0 -3 1q2 -2 4 -2h1zM228 78q25 15 44 48.5t31.5 78t19.5 94.5t9 86t2 60q0 19 -1.5 47.5t-6.5 51.5q-3 11 -5 17t-4 9.5t-4.5 6t-6.5 7.5q-9 10 -17.5 14.5t-16.5 6t-15 2t-12 3.5q-1 -3 -1.5 -2.5t-1.5 2t-2 2t-2 -2.5q0 -4 -2 -7.5t-4 -7.5l-3 -2 q-8 -13 -16.5 -24.5t-18.5 -22.5q-2 -2 -4 -6q-6 -11 -14 -20t-16 -19q-11 -18 -18.5 -36t-15.5 -36q-6 -45 -6 -90q0 -43 5 -86.5t13 -88.5v-3.5t2 -2.5q23 -46 37.5 -67t31.5 -21zM207 701q23 0 34.5 -12.5t11.5 -27.5q0 -13 -8 -24q17 -5 35 -9t30 -16q42 -42 57.5 -102 t15.5 -125q0 -60 -9 -118.5t-18 -104.5q-5 -24 -16 -45.5t-22 -43.5v-3q0 -10 -8 -16q-8 -17 -22.5 -34t-25.5 -34q-4 -6 -12.5 -7t-16.5 -6q-10 -5 -23 -5q-12 0 -24 4t-23 10l-25 15l-15 8q-8 4 -15 11q-18 10 -27 19q-14 13 -23 31.5t-16 35.5q-6 14 -10 27.5t-6 27.5 q-14 27 -22 55q-5 15 -6.5 31.5t-1.5 33.5q0 37 8.5 77t21 78t28 74t29.5 66q8 16 15 28.5t15 22.5t17 19t21 19q1 2 3 4t3.5 4t3.5 4q8 20 30 23z"/>
<glyph glyph-name="P" horiz-adv-x="506" unicode="P" d="M401 469q-14 -15 -30.5 -34t-30.5 -39t-23.5 -39.5t-9.5 -34.5q0 -17 14 -25q20 15 39 25t35 33q11 16 18 35t11 39q0 5 0.5 15.5t0.5 22v23t-1 17.5zM285 268q-2 4 -2 11q0 6 1 8q-8 10 -11 22q-1 2 -1 8q1 40 12.5 65.5t28 43t36 29t35.5 22.5t25 23t9 28q0 3 -1 15 t-17 42.5t-53 75.5q-5 5 -13.5 10.5t-19 10t-20.5 7.5t-17 3q-11 0 -22 -9t-22 -12q-3 -1 -7 -1l-17 -18q-4 -4 -7 -6.5t-7 -5.5l13 -71q11 -52 19.5 -107.5t8.5 -112.5q0 -35 -4 -70t-15 -69q-8 -29 -15 -41q-1 -26 -2 -52.5t-3 -52.5q-5 -41 -22 -77l-12 -26q-1 -1 -3 -6 h1h1q-1 -1 -2.5 -5.5t-2.5 -4.5q-6 -11 -15 -15.5t-19 -4.5q-15 0 -27 10.5t-12 30.5q0 7 1 10q-7 7 -7 19v258v129v27.5t1 27.5l-7 40q-8 54 -13 110t-6 110q0 3 1 4l4 5q4 15 16 23q5 14 16 21.5t24 7.5q9 7 16 7q5 0 13 -6q15 -14 25 -34t17 -43l4 4q15 14 31.5 28 t34 25.5t35 18.5t35.5 7q17 0 34.5 -7.5t35.5 -25.5q53 -53 73 -120t20 -137v-31l-2 -25q0 -20 -5 -45q-5 -21 -19.5 -43.5t-35 -40.5t-45 -29.5t-48.5 -11.5h-8t-8 1q-9 2 -18 5.5t-14 12.5z"/>
<glyph glyph-name="Q" horiz-adv-x="399" unicode="Q" d="M149 -8l-4 2q2 -2 4 -2zM200 193q12 11 23.5 19.5t22.5 10t21 -6t19 -27.5q-4 -23 -6 -37q-1 -5 0 -10q14 28 24 62q12 44 19 94.5t9 86.5t2 60q0 19 -1.5 47.5t-6.5 51.5q-3 11 -5 17t-4 9.5t-4.5 6t-6.5 7.5q-9 10 -17.5 14.5t-16.5 6t-15 2t-12 3.5q-1 -3 -1.5 -2.5 t-1.5 2t-2 2t-2 -2.5q0 -4 -2 -7.5t-4 -7.5l-3 -2q-8 -13 -16.5 -24.5t-18.5 -22.5q-2 -2 -4 -6q-6 -11 -14 -20t-16 -19q-11 -18 -18.5 -36t-15.5 -36q-6 -45 -6 -90q0 -43 5 -86.5t13 -88.5v-3.5t2 -2.5q23 -46 37.5 -67t31.5 -21l16 7q-3 7 -7 14q-16 33 -23 54 q-3 11 0 25t5 24zM209 701q22 0 33 -12.5t11 -27.5q0 -13 -8 -24q17 -5 35 -9t30 -16q42 -42 57.5 -102t15.5 -125q0 -60 -9 -118.5t-18 -104.5q-5 -24 -16 -45.5t-22 -43.5v-3q0 -4 -1 -8q7 -12 16 -27q3 -5 11.5 -18t19 -24.5t21.5 -17t20 3.5q0 -7 -3 -15t-11 -10 q-5 -3 -12.5 -3t-12.5 -2q-29 1 -57 23q-18 14 -34 33q-7 -9 -13 -19q-4 -6 -12.5 -7t-16.5 -6q-10 -5 -23 -5q-12 0 -24 4t-23 10l-25 15l-15 8q-8 4 -15 11q-18 10 -27 19q-14 13 -23 31.5t-16 35.5q-6 14 -10 27.5t-6 27.5q-14 27 -22 55q-5 15 -6.5 31.5t-1.5 33.5 q0 37 8.5 77t21 78t28 74t29.5 66q8 16 15 28.5t15 22.5t17 19t21 19q1 2 3 4t3.5 4t3.5 4q8 20 30 23l16 5h2z"/>
<glyph glyph-name="R" horiz-adv-x="491" unicode="R" d="M162 488l3 -31h3q15 -1 29 9t24 17q13 9 21 17t16 14q6 8 11 16t12 16q1 2 3 4t3 4q3 1 5 7l12 26q8 17 14 31t11 30q3 13 2 20q-8 6 -23 6h-1q-15 0 -38 -18q-17 -8 -33 -22t-25 -28q-7 -12 -13 -20t-12 -14t-12 -14t-15 -19zM23 617q5 17 17 25t24 8h2q7 4 13 6t15 0 q7 0 11 -2h4q1 -1 5 -1h6q9 -5 19 -15l3 -3q1 -1 1 -2t1 -3q6 -10 9 -25l36 35q11 9 31 23t43 26q23 11 46 19q16 5 28 6q5 0 11 -2q16 -4 23 -20q2 -6 2 -15q0 -16 -7 -40q-2 -7 -6 -17t-8 -16q-7 -13 -19 -33q-13 -20 -27 -41q-14 -20 -28 -38t-26 -27l-6 -6 q-14 -14 -32 -22t-38 -16q8 -1 14 -2t10 -2q38 -3 72 -19t60 -42q26 -25 45 -56q18 -31 27 -62q8 -23 10 -47l4 -48t8 -47q4 -23 14 -45q2 -7 9 -17q5 -3 13 -10t12 -7q16 -2 26 -5q11 -3 11 -6q-1 -2 -9 -4q-4 -1 -10 0q-8 0 -21 1q-33 3 -53 29t-32 60q-13 35 -23 72 t-24 62q-5 10 -21 20t-34 20t-36 16l-27 12q-3 2 -4 1q-11 5 -19 8t-17 4q-3 -1 -5 -1t-4 1v-34v-33q-1 -34 -4 -66q-4 -45 -12 -85t-21 -69q-6 -22 -17 -30l-8 -4q-6 -8 -16 -14q-8 -5 -18 -4h-3q-9 1 -21 8q-12 12 -18 26t-9 31q-7 11 -11 27t-4 36q-1 13 -1 26q1 6 1 14 q0 22 2 43q2 20 4 39t5 34q-7 63 -7 126q0 28 2 56q4 92 7 183z"/>
<glyph glyph-name="S" horiz-adv-x="331" unicode="S" d="M119 548q-2 -11 -3 -19t-1 -16q0 -6 0.5 -12t1.5 -12q23 14 47 30t42 34q16 26 16 50q0 21 -13 37q-5 5 -8.5 5t-11.5 2l-21 -5l-5 -10q-3 -3 -5.5 -7t-5.5 -8q-8 -17 -19 -33.5t-14 -35.5zM168 150q-6 6 -6 17q0 3 1 5l-40 79q-27 -21 -46.5 -41.5t-26.5 -36.5 q-5 -17 -8.5 -31.5t-3.5 -30.5v-12t2 -14q5 -29 24 -56t44 -45l48 -9q6 0 10 0.5t9 2.5q9 6 16 13q2 20 10 33q0 14 -2 28.5t-5 29.5q-2 18 -7.5 36t-18.5 32zM143 749q23 0 38.5 -9.5t22.5 -23.5q9 -10 20 -23q11 -14 17 -28.5t11 -31.5q6 -17 6 -32q0 -21 -9.5 -39.5 t-24.5 -34.5t-34.5 -29.5t-39.5 -24.5l-3 -2q-5 -5 -10.5 -9t-10.5 -9q7 -25 13.5 -45.5t14 -39.5t16 -37t19.5 -37h4q20 -15 38 -18t29 -3q12 0 28.5 3.5t31.5 16.5t18 33q5 5 15.5 10.5t23.5 13.5q0 -2 0.5 -5t0.5 -5q0 -40 -34.5 -65.5t-106.5 -25.5q-5 0 -11 0.5 t-12 1.5l12 -35q7 -14 19 -32.5t24 -39.5t20.5 -44t8.5 -45t-10 -41q-18 -32 -47.5 -46t-63.5 -14q-35 0 -70.5 13t-64.5 35t-47.5 51.5t-18.5 62.5q0 8 -0.5 15.5t-0.5 15.5q0 6 0.5 11.5t2.5 10.5q6 14 13.5 18t16.5 15q20 26 46.5 40t55.5 29q-21 34 -39.5 66t-32.5 63.5 t-22.5 63t-8.5 64.5q0 38 13 77t42 82q16 23 32 38.5t43 23.5h6z"/>
<glyph glyph-name="T" horiz-adv-x="354" unicode="T" d="M-73 661q-8 9 -8 17q0 5 5.5 14t23.5 4q36 -20 61.5 -23.5t43.5 -3.5q14 0 36.5 2.5t55 12t70.5 17.5q24 5 47.5 6.5t43.5 1.5l24 -1q23 0 51.5 -3.5t52.5 -7.5q-49 -8 -99 -30t-103 -42q6 -41 9 -64.5t3 -43.5t-2 -43.5t-5 -64.5q1 -10 1.5 -20t2.5 -20q5 -13 4.5 -26 t2.5 -27q11 -44 20.5 -86.5t11.5 -86.5q3 -20 3 -40q0 -27 -5 -53q-1 -3 -4.5 -12.5t-8.5 -19.5t-11.5 -17.5t-13.5 -5.5q-5 -5 -12 -5q-2 0 -5 1q-3 -1 -6 -1q-5 0 -11 2q-11 5 -19 17t-13 28q-1 1 -2 1.5t-2 2.5q-7 13 -8 25q-1 2 -1 4v1v7l-2 -7q-2 9 0 18l-2 15 q-3 14 -5 28t-3 29q-1 5 -1.5 11t-0.5 11q-4 17 -7 34.5t-4 37.5q-1 37 -1 68q0 15 0.5 31.5t0.5 35.5t-0.5 46t-4.5 65t-15 91q-26 -4 -53 -4t-56 6q-22 4 -35 13t-21 19t-13 19.5t-11 15.5z"/>
<glyph glyph-name="U" horiz-adv-x="617" unicode="U" d="M430 503q2 7 5.5 11t8.5 6q0 1 2 3q5 5 15 7h4q5 0 13 -0.5t16 -1.5t13.5 -3.5t5.5 -5.5q0 -1 -0.5 -3.5t-2 -12.5l-4.5 -30t-9 -56q0 -23 -3.5 -46t-9.5 -48l-2 -23q-1 -9 -1 -18v-18q0 -24 1.5 -49t6.5 -49t15 -45.5t27 -37.5l12 -8q14 -13 24 -16.5t14 -3.5 q12 0 26 13q17 15 32.5 15h21.5q1 0 -0.5 -5t-4 -11t-4.5 -12t-2 -9q-23 -32 -39 -37.5t-26 -5.5t-24 5t-31.5 18.5t-32.5 23.5q-32 20 -54 59.5t-23 117.5q-7 -13 -14.5 -25.5t-15.5 -24.5q-8 -21 -21 -43q-12 -20 -25.5 -34.5t-28.5 -28.5q-17 -20 -34 -34l-40 -38 q-5 -5 -13 -6.5t-16 -1.5t-15.5 0.5t-15.5 0.5q-12 0 -22 7t-18.5 17.5t-16 21.5t-13.5 20q-9 10 -14 21q-14 20 -28.5 39.5t-23.5 42.5q-11 30 -23.5 62t-18.5 63q-4 21 -6 42t-7 41q-5 26 -11 51t-8 51v16q0 57 6 112t7 112q4 19 15.5 28t25.5 9q11 0 19 -5q14 19 34 19 q12 0 22.5 -7t14.5 -20q17 -8 24 -30l-6 -127q1 -60 3.5 -119.5t7.5 -119.5v-72q7 -48 19 -92t31 -82q7 -5 20 -5q12 0 21 4q42 27 80 62q5 5 8.5 11.5t8.5 13.5q16 34 30 69.5t26 67.5l8 24t9 24v6q2 12 6 24t9 24q-2 4 -2 7l8 27q2 13 2.5 25.5t1.5 25.5z"/>
<glyph glyph-name="V" horiz-adv-x="414" unicode="V" d="M135 84q1 13 4 24q-21 114 -45 224q-24 108 -60 211q-4 5 -8 14t-6 18l-5 10q-4 10 -14 22t-18 20l-3 3l-7 6q-12 23 -12 45v6q3 27 23 43q17 14 42 13h6q11 -2 23 -7t26 -16l16 -23q11 -14 21 -30t15 -32q7 -23 13 -57t13 -72q6 -38 11 -80q5 -40 10 -77q4 -31 6 -54 t4 -42t4 -35t8 -33q8 43 20 97t26 109q15 55 34 108q20 53 44 97t54 74q30 31 66 42q-70 -118 -114 -236t-59 -234q-1 -28 -3 -58t-2 -59v-27t1 -27l-1 -7q-4 -36 -26 -53q-19 -14 -41 -14h-7q-5 1 -9 2t-8 3q-7 2 -14 7t-12 11q-7 11 -12 23t-6 28z"/>
<glyph glyph-name="W" horiz-adv-x="710" unicode="W" d="M180 721q24 -8 38 -23q11 -8 16.5 -19.5t7.5 -24.5q13 -13 19 -34q3 -25 3 -48q0 -37 -10 -84.5t-26 -109.5l-59 -232q-5 -19 -12 -43t-13.5 -49.5t-11 -50t-4.5 -45.5q26 8 52.5 26.5t50.5 42t43.5 50t33.5 49.5q11 19 14 32t2 21t-3 12.5t0 5.5q-2 30 -3 52.5t-3.5 42 t-7 38.5t-13.5 41q-1 6 -1 12q0 20 9.5 37t23 22.5t23.5 5.5t25 -5.5t32 -28.5q14 -48 14 -99q0 -6 -1 -38t-2.5 -70.5t-1.5 -57.5q0 -38 4 -84.5t34 -97.5q1 0 2 -1q3 -1 5 -1q12 0 25.5 16.5t27.5 49t27 75t24 88.5t19.5 91.5t13.5 83.5t5.5 53.5t0.5 20.5q0 18 -3 24 q-2 10 -4.5 16.5t-4.5 10.5t-4 6.5t-3 6.5q-12 12 -2 24q0 5 6 9q9 4 22.5 2.5t23.5 -3.5q18 0 36.5 0.5t37.5 1.5q19 4 30.5 5t15.5 1q15 0 29 -5q4 0 7.5 -0.5t7.5 -0.5l-50 -6l-9 -3q3 1 1 0q-27 -9 -58.5 -20.5t-61.5 -14.5q10 -35 10.5 -61.5t0.5 -31.5q0 -45 -5 -93.5 t-12.5 -96t-11.5 -78.5q-4 -28 -15.5 -61t-27.5 -65t-35 -59t-39.5 -42t-31 -15.5t-11.5 -0.5q-19 0 -35 20q-11 13 -28 37.5t-31 53t-20 57.5q-2 11 -3 21q0 16 6 28q-11 -23 -33 -54q-23 -33 -51.5 -64.5t-60 -54.5t-59.5 -24q-8 0 -14.5 2.5t-14.5 4.5q-13 7 -16 23 q-1 15 -1 30t1.5 37t6.5 52q0 39 3.5 77t8.5 76q5 31 11.5 61.5t8.5 61.5q3 29 3 58q0 11 -1 36t-6 64l-9 57q-20 -20 -41.5 -38.5t-52.5 -37.5q-12 -7 -26.5 -11.5t-23.5 -4.5q-7 0 -14 2q-7 3 -20.5 8t-27.5 12.5t-24.5 17.5t-11.5 23q1 -8 13 -13t27 -7.5t28.5 -3.5 t18.5 0q9 2 16.5 6t15.5 9q28 20 46.5 53t35.5 66q-2 12 1 25t13 24q3 7 8 15q10 14 24 18t26 4q5 0 11 -1zM739 532l-3 -1l-12 -4h-1l3 1q2 0 6 1.5t7 2.5z"/>
<glyph glyph-name="X" horiz-adv-x="411" unicode="X" d="M113 698l-1 -1q0 1 1 1zM51 -90q-14 -8 -26 -8h-5q-14 2 -23 11q-11 11 -11 28q0 13 8 26q40 38 74 84t70 88q15 22 31 49q-7 20 -15 42t-14 42q-6 22 -12 40t-9 32q-9 28 -14 44t-9 28t-9 28t-14 45q-5 13 -13 31t-15 38t-11 40q-1 7 -1 13q0 11 4 21q9 20 25 30t34 14 q5 2 11 2t11 1l1 1q18 6 32 6h5q16 0 28 -8t18 -21t6 -29q4 -5 8 -12t5 -15q-1 -15 0 -28l2 -7q-1 -3 -1 -6v-6q2 -14 4 -26t6 -22q3 -10 6 -22t5 -28v-1q5 -26 11 -52t13 -52l29 66q10 23 22 57t28 68q14 34 30 66q16 31 37 51q11 4 21 4q10 1 18 -3q16 -6 21 -31 q1 -1 1 -2v-2q-1 -28 -19 -38q-9 -13 -17 -25l-16 -24q-15 -23 -28 -47t-26 -49q-20 -40 -41 -79t-43 -78l28 -90t30 -90q6 -14 8 -22t4 -14t5 -13t10 -19q7 -8 9 -19t9 -16q5 -8 13 -9t11 -9l19 -14q16 -22 18 -40t-8 -28t-30 -9q-20 0 -46 12q-10 11 -22 21t-21 21l-12 20 l-7 7t-6 9q-11 21 -20 31q-8 10 -16 19t-14 21t-14 33q-10 11 -17 28t-15 29q-11 -20 -23 -45t-25 -42q-23 -38 -48 -75t-53 -72z"/>
<glyph glyph-name="Y" horiz-adv-x="650" unicode="Y" d="M374 -100l-4 53q-20 -23 -39.5 -47.5t-38.5 -48.5q-29 -35 -46 -74t-19 -87q-1 -17 0 -26.5t5 -14t12.5 -5.5t22.5 -2q28 3 46.5 24.5t30 50.5t16.5 59.5t8 51.5zM114 605q22 18 46 18q10 0 33.5 -7t77.5 -59q7 -4 13.5 -2t11 3t7 -1.5t2.5 -14.5q-10 -21 -20.5 -54 t-20.5 -72.5t-19 -82t-14.5 -81.5t-6.5 -60t-1 -29q0 -21 3 -36q0 -2 3 -0.5t7 4.5t7 6t5 4q19 7 29.5 14.5t28.5 17.5l21 30q0 13 1 36t3.5 47.5t5 47.5t4.5 36q3 21 8.5 45.5t16 47t26.5 38.5t42 19q17 2 31 -1.5t26 -16.5q14 -20 16 -40q7 -10 12 -26q-5 -88 -16 -175.5 t-26 -175.5q16 14 30.5 28t29.5 28q27 24 51.5 44.5t46.5 43.5t40.5 53t33.5 73q6 17 13.5 31.5t10.5 28.5q-1 -13 -5 -22.5t-9 -22.5q-7 -20 -11.5 -39.5t-13.5 -39.5q-12 -27 -27.5 -49t-33.5 -41.5t-38 -38.5t-40 -40q-16 -17 -31 -34t-33 -32q-5 -5 -11 -8.5t-12 -8.5 l-2 -13q-1 -3 -1 4q-5 -69 -10.5 -138.5t-25.5 -137.5q-4 -14 -10.5 -32.5t-15.5 -37t-20 -34.5t-24 -25q-14 -10 -27.5 -19.5t-28.5 -16.5q-16 -7 -34 -7q-2 0 -14 0.5t-31.5 8.5t-34 22.5t-18.5 34.5q-3 15 -3 30q0 8 1.5 23t4.5 37q4 33 19 62t34.5 55t42.5 50t44 46 q13 14 25 28.5t25 27.5q-1 26 -3 40.5t-6 26.5t-10 26.5t-15 40.5q-11 -9 -22 -16.5t-22 -15.5q-20 -16 -38.5 -26t-35.5 -11h-10q-15 0 -26 4q-11 0 -23 3q-4 1 -7 4l-5 5q-19 21 -30 38t-16 34t-6.5 37.5t-1.5 49.5q0 24 -2 56t-2.5 57t-0.5 39q0 22 1 52t7 66 q-25 -12 -49.5 -31t-45.5 -40.5t-38 -43t-27 -38.5q6 34 16 55t25 37.5t34.5 32t43.5 38.5l64 54z"/>
<glyph glyph-name="Z" horiz-adv-x="391" unicode="Z" d="M48 -9q-27 4 -42.5 18t-17.5 31v5q0 9 3 18q-2 5 -3 11q-1 5 -1 11q0 19 13 41q18 24 33 51.5t28.5 56t27 57.5t28.5 56q23 41 53 77t59 72q21 26 43 54q15 19 30 37q-14 1 -28 3q-36 6 -72 13.5t-55 8.5t-22 1q-30 0 -54 -12q-10 -5 -19.5 -13.5t-18.5 -15.5 q8 11 14.5 21.5t14.5 19.5q13 17 36.5 25t50 10.5t52 2.5h42.5q13 1 35 2.5t36 8.5q11 6 20 13t19 14q10 2 18 2q11 0 20 -3q5 0 11 -2q18 -6 31 -24t12 -46q-20 -45 -45.5 -81.5t-57.5 -73.5q-27 -32 -42.5 -59t-25.5 -50t-17.5 -41.5t-17.5 -33.5q-12 -28 -27 -52t-30 -47 q-14 -24 -27 -48q-11 -21 -19 -45q20 -9 38 -19q38 -22 75 -42.5t71.5 -34t63.5 -13.5q6 0 12 1q14 3 27.5 7.5t26.5 8.5q-12 -7 -24.5 -16t-24.5 -17q-20 -12 -46 -12q-2 0 -17.5 0.5t-46 8t-59 17.5t-47.5 16l-17.5 5t-22 6t-23.5 4q-11 1 -19 0q-2 -1 -5 -3 q-17 -11 -33 -11h-3q-5 0 -10 1z"/>
<glyph glyph-name="bracketleft" horiz-adv-x="343" unicode="[" d="M218 658q11 2 12 -7.5t-10 -11.5q-7 -4 -19.5 -11t-22.5 -3q-2 0 -2.5 1t-2.5 2q1 -18 1.5 -36t0.5 -36q2 -33 3 -66.5t1 -67.5q2 -64 2 -128v-129q0 -21 0.5 -50t0.5 -49t-0.5 -52t-2 -74t-5.5 -70q0 -4 11.5 -6t26.5 -2.5t29 -1t19 -0.5q9 -2 9 -11q0 -7 -10 -9 q-29 -2 -50 -2q-17 0 -33.5 2t-24.5 19h-3q-18 0 -21 20v9q-9 34 -12.5 68t-8.5 68v1q-5 7 -8 26.5t-4.5 45.5t-2 48t-0.5 36t0.5 34.5t1 41.5t1.5 31q8 88 18 175t14 175q0 3 1 4v1l3 5q0 1 2 3l4 4q1 0 1 0.5t1 0.5q1 1 2 1t3 1q2 0 3.5 0.5t3.5 -0.5h2q1 0 1 -0.5t1 -0.5 t2 -1l5 -3q10 11 26 11q1 0 10 -0.5t21 -5.5z"/>
<glyph glyph-name="backslash" horiz-adv-x="581" unicode="\" d="M510 -170q4 -7 5.5 -14.5t1.5 -13.5q0 -3 -0.5 -8t-3.5 -11.5t-8 -7.5q-2 -1 -4 -1q-3 0 -6.5 2.5t-8.5 7.5q-9 13 -19 20t-20 15q-37 26 -62 67l-6 9q-16 21 -29 42.5t-20 40.5q-23 47 -43.5 89t-39.5 84q-12 26 -22 53t-21 53q-6 17 -13 32q-18 39 -36 78.5t-36 79.5 q-11 25 -22 49.5t-22 49.5q-6 14 -14 25t-20 20q-4 2 -7 6.5t-6 9.5q3 2 5.5 5t6.5 4q5 0 10.5 -2t11.5 -4q20 -7 41 -13.5t42 -14.5q20 -8 39 -25q28 -25 53.5 -52t42.5 -64q5 -12 13 -24t13 -23q11 -32 26.5 -62t29.5 -62q7 -15 15 -30.5t14 -31.5q11 -29 20 -58.5 t18 -58.5q6 -20 11.5 -40t10.5 -40q1 -2 1.5 -3.5t2.5 -3.5q20 -19 22.5 -36.5t3.5 -35.5q1 -5 1 -8.5v-8.5q0 -41 28 -85z"/>
<glyph glyph-name="bracketright" horiz-adv-x="343" unicode="]" d="M140 658q12 5 21 5.5t10 0.5q16 0 26 -11l5 3q1 1 2 1t1 0.5t1 0.5h2q2 1 3.5 0.5t3.5 -0.5q2 -1 3 -1t2 -1q1 0 1 -0.5t1 -0.5l4 -4q2 -2 2 -3l3 -5v-1q1 -1 1 -4q4 -88 14 -175t18 -175q1 -9 1.5 -30.5t1 -41.5t0.5 -35q0 -14 -0.5 -36t-2 -48t-4.5 -45.5t-8 -26.5v-1 q-5 -34 -8.5 -68t-12.5 -68v-9q-3 -20 -21 -20h-3q-8 -17 -24.5 -19t-33.5 -2q-20 0 -50 2q-10 2 -10 9q0 9 9 11q5 0 19 0.5t29 1t26.5 2.5t11.5 6q-4 28 -5.5 70t-2 74t-0.5 52t0.5 49t0.5 50v129t2 128q0 34 1 67.5t3 66.5q0 18 0.5 36t1.5 36q-2 -1 -2.5 -2t-2.5 -1 q-10 -4 -22.5 3t-19.5 11q-11 2 -10 11.5t12 7.5z"/>
<glyph glyph-name="asciicircum" horiz-adv-x="383" unicode="^" d="M338 467q2 -4 2 -7q0 -5 -9 -5q-8 -1 -13.5 3.5t-10.5 9.5q-3 5 -5 9t-4 9q-5 13 -12 23q-9 11 -17.5 22t-16.5 22q-4 5 -6.5 10.5t-4.5 10.5q-2 4 -2.5 7t-2.5 6q-4 8 -6 8.5t-7 -7.5q-2 -2 -2.5 -5t-2.5 -6t-3 -5.5t-3 -5.5q-3 -5 -6.5 -10.5t-5.5 -11.5 q-4 -10 -6.5 -19.5t-6.5 -19.5l-10 -18l-10 -18q-3 -5 -5.5 -10t-7.5 -8q-2 -1 -4 -5q-3 -10 -11 -12.5t-16 -4.5q-5 -1 -8.5 -1t-7.5 -1q-2 -1 -5 -1q-5 0 -12 3q-11 3 -21.5 6t-21.5 7q-13 4 -18 13q-1 1 -1 2t2 2q7 2 11 7.5t9 10.5q10 14 19 29t19 30l21 30q3 4 6.5 7.5 t5.5 8.5q11 19 29 37q6 7 12 13.5t14 10.5q6 3 12 6.5t14 3.5q6 -2 14 -4q2 -1 4.5 -2t5.5 -2q9 -3 16 -13q4 -6 8 -11.5t6 -13.5l2 -2q9 -8 14 -18.5t11 -20.5l4 -6l4 -6q3 -5 6 -9.5t4 -10.5q1 -3 3 -6.5t4 -7.5q11 -14 18 -34q3 -6 8 -11l2 -4z"/>
<glyph glyph-name="underscore" horiz-adv-x="444" unicode="_" d="M362 54q3 -6 3 -11t-3 -13t-12 -8q-20 0 -41 0.5t-42 0.5q-14 0 -27 -1t-27 -1q-11 -1 -23 -2t-24 1q-11 2 -21.5 1t-21.5 -7q-9 -5 -18 -5q-8 0 -17 4q-7 2 -10.5 8t-6.5 12q-4 8 -6 16.5t-5 17.5v3q0 3 4 3q13 2 25.5 4t24.5 4q8 2 16.5 3t16.5 2l54 3v-1h36t36 1l12 2 t13 3q2 0 4 0.5t4 0.5q5 1 9 1q14 0 25 -11.5t22 -30.5z"/>
<glyph glyph-name="grave" horiz-adv-x="148" unicode="`" d="M115 549q-2 -6 -2 -10q2 -5 -3 -8q-2 -2 -5.5 -3t-6.5 -3q-6 -4 -11 -4q-7 0 -14 7q-2 1 -2.5 2t-2.5 2q-11 9 -17.5 22t-14.5 25q-1 1 -1 6q2 18 16 25q8 4 15.5 7.5t15.5 7.5q2 1 3 1q2 0 2 -2q5 -11 9.5 -20.5t9.5 -19.5q4 -8 6.5 -16.5t2.5 -18.5z"/>
<glyph glyph-name="a" horiz-adv-x="410" unicode="a" d="M129 380q-7 6 -16 6q-11 0 -21 -11.5t-19 -27.5q-5 -8 -11 -27.5t-11 -44t-8.5 -49t-3.5 -42.5q0 -8 2.5 -25t6.5 -34t8.5 -30t9.5 -13q12 0 24 11t23 26t20.5 31.5t17.5 27.5l12 18q-8 20 -11.5 46t-7.5 46q-5 24 -10 46.5t-5 45.5zM176 146q-8 -14 -19.5 -31t-22.5 -27 q-16 -16 -41.5 -28.5t-51.5 -12.5q-20 0 -35.5 10t-23.5 33q-5 17 -5 38q0 33 9.5 76.5t24.5 84.5t34 72.5t37 41.5q7 3 14.5 7t15.5 4h4l7 -2q4 25 19 38.5t35 13.5q15 0 30 -8.5t28 -26.5q12 -15 12 -36q2 -5 2 -9t1 -8q1 -8 1 -17.5v-20.5q0 -23 -0.5 -49.5t-0.5 -55.5 q0 -21 0.5 -42t2.5 -41q13 -46 21.5 -69.5t14.5 -24.5t7 -1q10 0 27 17.5t49 54.5q12 14 23.5 35.5t22 46t20 51t17.5 50.5l6 26v-5q0 -78 -22 -144.5t-73 -120.5q-12 -12 -19.5 -20.5t-14.5 -14.5q-3 -3 -11.5 -9t-12.5 -8q-8 -3 -16 -3h-33q-17 2 -25 12q-26 35 -42 84 q-2 4 -2 5z"/>
<glyph glyph-name="b" horiz-adv-x="297" unicode="b" d="M187 250q-18 -7 -18 -15q0 -9 15 -15t35 -6q-4 18 -11 30.5t-21 5.5zM72 728q18 -14 26 -30t8 -30q0 -20 -11 -34q0 -5 -1 -10t-1 -10v-5.5t-1 -6.5q-2 -13 -3 -28.5t-3 -17.5l-2 -2q-1 -11 -1 -20v-19v-75q-1 -18 -1 -32.5v-28.5q0 -26 1.5 -46.5t5 -42t9.5 -47 t15 -59.5q2 -7 3.5 -15.5t3.5 -17.5q3 -15 7.5 -31.5t10 -32t12.5 -28.5t15 -20q20 14 32.5 27.5t19 29t7 29.5t0.5 24v23q-1 3 -1 7q0 1 -0.5 1.5t-0.5 1.5h-10q-39 0 -59 14.5t-20 37.5q0 15 7.5 29t20 24t23 11.5t14.5 1.5q13 0 27 -6q20 -9 29 -28.5t14 -40.5l12 7 q17 14 26 36t17 44q3 9 5.5 17t5 10t4 -4.5t1.5 -26.5q-4 -16 -7.5 -31t-13.5 -32q-11 -21 -18 -28t-20 -17l-7 -5q0 -2 1 -4t1 -4q3 -16 5 -31t2 -27q0 -32 -11.5 -57.5t-40.5 -59.5q-9 -11 -19 -21.5t-22 -15.5q-13 -5 -25 -5q-16 0 -34.5 12t-36.5 40.5t-30.5 62.5 t-20.5 60l-6 17q-18 54 -29 95.5t-18 80.5t-11 82t-7 100q0 2 -0.5 4.5t-0.5 5.5q-1 14 -1.5 31.5t-0.5 32.5q0 33 4.5 65.5t18.5 53.5q20 17 31.5 19.5t17.5 2.5q13 0 29 -6z"/>
<glyph glyph-name="c" horiz-adv-x="274" unicode="c" d="M192 293q-1 -11 -7 -16.5t-13 -5.5t-12.5 5t-7.5 16q9 12 13.5 18.5t7.5 12t4 11t3 15.5q1 5 0 8.5t-1 5.5q0 3 -4.5 12.5t-6.5 12.5q-4 8 -12.5 17.5t-19.5 16.5t-23 8.5t-23 -6.5q-12 -9 -14 -22.5t-2 -26.5q0 -10 1.5 -28.5t7 -53t9.5 -76.5q1 -9 2.5 -16.5t6.5 -12.5 q5 -11 22.5 -20t30.5 -11l27 7q24 12 35.5 19t19 15t15 19t24.5 30q6 10 14 26.5t15.5 34t15 32.5t13.5 21q-2 -4 -2.5 -10.5t-2.5 -11.5q-6 -17 -12 -35t-13 -35q-10 -27 -26 -56.5t-37.5 -55.5t-48 -45t-57.5 -25q-5 -1 -13 -1q-14 0 -23.5 5t-24.5 12q-17 8 -32 16.5 t-26 25.5q-9 14 -12.5 34.5t-3.5 44.5q0 27 4.5 57t12 57t17.5 50t21 37q5 6 14.5 12t14.5 9q16 6 31 6q20 0 36 -11q11 -4 20 -14t15 -23.5t9.5 -29.5t3.5 -31v-14t-5 -11q-1 -6 -1 -11v-9v-5z"/>
<glyph glyph-name="d" horiz-adv-x="366" unicode="d" d="M39 316q-2 -2 -2 -3t2 3zM136 176q-6 22 -9 47q-5 2 -5 12t-10 20q-4 12 -10 23t-14 18l-10 -2v-1l-12 -6t-11 -6q-3 -7 -5 -13t-3 -8q-7 -20 -12 -36t-6 -32v-6q-1 -13 3 -27q4 -17 17 -36q5 -7 10 -13t11 -11h5q22 0 40 21q4 4 5 6q4 10 6 22t6 22zM298 -33 q-15 -8 -29 -8q-17 0 -31 11q-14 5 -28 16t-22 21q-5 7 -11 17t-11 20q-4 4 -6 14t-4 22t-6 24q-2 11 -4 14q-4 -9 -4 -16t-2 -12q-2 -6 -8 -10t-18 -8q-1 -1 -2 -1l-6 -4q-10 -3 -22 -6t-20 1q-30 8 -54 32t-33 54q-3 12 -3 25t-3 26q-1 15 5 29t10 29q1 2 5 11q4 8 11 20 l16 24t18 21q12 17 24 21t22 0t21 -16q10 -12 20 -28q-1 32 1 63t2 61v7q0 23 -1 37t-2 25q-1 12 -2 25q-1 6 -1 16q0 9 1 20v50q-1 20 1 40t8 38t20 30q12 12 34 18h6q11 17 26 25t29 8q23 1 39 -17t17 -50v-6q-11 -26 -15 -52t-5 -53l-2 -54t-7 -54q-16 -73 -32 -145 t-15 -149q0 -32 3 -63l4 -28t6 -28v-2l1 -1q1 -5 5 -17t8 -23t9 -20t10 -10q7 1 13 5t12 10t11 12t9 10q18 22 33 50t27 57l24 60l19 57q4 12 7 18t5 13q-2 -27 -7 -57q-4 -30 -12 -59t-18 -57t-20 -49q-4 -9 -14 -26t-14 -26q-6 -14 -20 -29t-28 -23z"/>
<glyph glyph-name="e" horiz-adv-x="312" unicode="e" d="M176 350q1 0 1.5 10t2.5 21q1 5 1 9v7q0 11 -6.5 16t-17.5 5t-24.5 -5.5t-25.5 -14.5t-20 -21t-8 -26q0 -2 -1.5 -6.5t-0.5 -9.5q-2 -5 -0.5 -9.5t1.5 -11.5q0 -8 0.5 -17t0.5 -17v-8t-1 -8q12 11 24.5 18.5t25 15.5t25 20t23.5 32zM248 70q-33 -29 -64.5 -43.5 t-67.5 -14.5q-13 0 -28 2q-7 1 -18 14t-22 30.5t-20 33.5t-12 23q-11 25 -17.5 55t-6.5 62q0 26 2 50.5t13 44.5q4 12 9.5 26.5t11.5 25.5q1 4 6.5 12.5t12.5 16.5t12.5 13.5t6.5 5.5q15 15 34 24.5t36 9.5q28 0 42 -25q6 -10 14 -26.5t8 -30.5q0 -5 -1 -8q0 -1 -0.5 -2 t-0.5 -2q-3 -10 -6 -17t-6.5 -13t-8.5 -12t-13 -15q-21 -22 -41.5 -35.5t-42.5 -33.5q2 -14 1 -26t1 -19q6 -19 11 -34t11 -29t16 -29.5t27 -36.5l3 -4h5q3 0 6.5 0.5t6.5 0.5q17 3 36 11t33 25q26 31 42.5 54t27.5 46t18 49t13 64q6 -2 7 -2v-9q0 -68 -20 -124.5 t-77 -107.5zM345 311v1v-1z"/>
<glyph glyph-name="f" horiz-adv-x="321" unicode="f" d="M129 283l17 25q13 25 28 49.5t28 50t21 51t8 52.5q0 6 -0.5 12t-1.5 13q-2 10 -6 21t-10.5 21t-16 17t-21.5 8q-5 0 -10 -3t-10 -7q-2 -8 -2.5 -15.5t-0.5 -15.5q0 -5 -0.5 -9t-0.5 -9q-2 -63 -10 -120.5t-12 -116.5v-24zM138 199q0 -5 2 -7t2 -5q1 -16 5.5 -32 t9.5 -32.5t9.5 -32.5t6.5 -32q0 -2 0.5 -4t0.5 -4q2 -11 4 -19t3.5 -17.5t4.5 -22.5t8.5 -33.5t14.5 -51t22 -75.5q13 12 21 20.5t13 16.5t8 19t7 28q5 20 6.5 38t1.5 36q0 23 -3 46.5t-11 47.5q-2 8 -5 15t-7 15q-3 8 -8 16l-10 16q-5 9 -11.5 21.5t-15.5 22.5 q-25 18 -59 22l-20 -7v-5zM114 618q5 8 16.5 16.5t22.5 8.5q7 0 14 -5h7q14 0 31.5 -5.5t27.5 -18.5q10 -9 15.5 -14t7.5 -10t2 -11t1 -16q1 -5 1 -10.5v-11.5q0 -51 -14 -101t-40 -93q-11 -18 -20.5 -30.5t-17 -23t-13 -21.5t-9.5 -26q17 3 41 14t49.5 24.5t49 27.5 t39.5 24q1 0 1.5 0.5t1.5 0.5l18 11l-14 -23q-12 -10 -32 -24t-42 -28.5t-42.5 -27.5t-33.5 -19q10 -1 19 -5q30 -15 52 -41.5t36.5 -58t21 -66t6.5 -67.5v-7q-1 -30 -10 -61t-20 -60q-3 -7 -8.5 -22.5t-13 -33t-17.5 -33t-21 -22.5q-1 -8 -6.5 -13.5t-14.5 -5.5q-4 0 -10 2 q-39 31 -56.5 71t-30.5 87l-5 18q-18 59 -33 119t-26 123q-2 8 -5 16.5t-6 20.5q-6 20 -8 42t-2 45q0 29 2.5 57.5t5.5 54.5q4 34 10.5 71t16.5 69q5 15 9.5 29.5t13.5 26.5l20 24q2 4 9 11q1 0 1.5 0.5t1.5 0.5z"/>
<glyph glyph-name="g" horiz-adv-x="421" unicode="g" d="M206 -29q-3 -3 -3 -6zM204 -12q16 35 29 69t16 76q0 3 0.5 6.5t0.5 6.5q-18 -26 -45.5 -50.5t-52.5 -51t-43 -55.5t-18 -64q0 -2 0.5 -4t0.5 -4q1 -6 5 -11t6 -8h4q27 0 44.5 16t32.5 39q6 11 7 13t2 2l2 3q2 4 4 9.5t5 7.5zM209 344q6 29 23 43t37 14q22 0 39.5 -16.5 t18.5 -48.5q0 2 1 3q0 -3 1 -6.5t1 -5.5q2 -16 5.5 -29.5t5.5 -27.5q6 6 17.5 15.5t24.5 20t24.5 20.5t16.5 16q4 8 11 18t12 18q3 7 8 12l3 3l3 2q-4 -5 -6 -11.5t-4 -14.5l-1 -4q-2 -8 -7 -17t-7 -15q-5 -10 -17 -23.5t-25.5 -28t-26.5 -27.5t-20 -22q2 -16 3.5 -31.5 t1.5 -31.5q0 -25 -4 -51t-13 -55q-9 -28 -24.5 -63t-36.5 -69t-46.5 -62t-54.5 -41t-53 -13q-37 0 -58 25.5t-21 61.5q0 23 9 48.5t29 49.5q31 38 64.5 71t68.5 65l41 38q-2 15 -4.5 29.5t-6.5 29.5q-3 12 -9 23q-11 -15 -22 -25.5t-16 -16.5q-15 -17 -33.5 -32t-35.5 -30 q-39 -33 -71 -33q-28 0 -44 26.5t-16 75.5q0 21 5 49.5t14 59t22.5 61t31 56t39 43t46.5 23.5h4q33 0 50.5 -18t17.5 -40q0 -18 -10 -32q-1 -5 -3 -9.5t-4 -9.5q-2 -8 -6 -16t-9 -16q-6 -3 -10 -3q-1 -2 -5.5 -7t-8.5 -5t-4 3q0 10 2.5 18t3.5 17q-5 2 -8 3t-5 1h-9 q-7 0 -16 -3.5t-16 -17.5q-7 -2 -14 -16t-13.5 -34t-11.5 -42.5t-9.5 -42.5t-7 -34t-3.5 -16q0 -5 0.5 -10.5t1.5 -10.5q25 5 45 19l40 28q23 15 43.5 26.5t37.5 26.5q-7 17 -12.5 33.5t-5.5 30.5q0 2 0.5 4t0.5 4z"/>
<glyph glyph-name="h" horiz-adv-x="443" unicode="h" d="M92 445q0 -7 0.5 -13.5t1.5 -13.5l3 -29q19 13 38.5 33.5t34.5 45t24.5 51.5t9.5 53q0 37 -22 65l-4 3q-2 0 -3 0.5t-3 0.5q-12 -9 -26 -16.5t-23 -20.5q-11 -15 -17 -36t-9 -42.5t-4 -43t-1 -37.5zM147 6q-9 -24 -25.5 -36t-33.5 -12q-20 0 -37.5 16t-21.5 47 q2 10 2 19.5v19.5v39.5v18.5v9.5t-1 12.5t-2.5 27.5t-4.5 54.5v22q-2 29 -3 59.5t-1 60.5q0 21 1 41t3 40q2 28 4 56.5t14 53.5q10 22 18 44t23 39q14 16 33 25t36 20q7 4 15 4q9 0 17 -3q18 -5 28 -16.5t15.5 -26.5t7.5 -32.5t2 -33.5v-3q0 -25 -12 -54t-31.5 -55.5 t-44.5 -48t-50 -31.5q3 -38 4.5 -70.5t8.5 -69.5q14 23 28 44t37 38q5 15 24.5 25t39.5 10q11 0 26.5 -5t47.5 -24q12 -9 19.5 -28t9.5 -33q1 -7 1.5 -14t0.5 -14q0 -26 -7 -57.5t-13.5 -64t-6.5 -60.5t12 -48q3 -1 6 -1q18 0 40 26.5t44 72.5q22 44 40 98q15 45 22 85 q-5 -29 -10 -57q-6 -36 -15 -72.5t-22.5 -73.5t-35.5 -73q-11 -17 -20.5 -27t-21 -15t-26 -6t-34.5 -1h-6q-13 2 -20.5 7t-12.5 17q-9 17 -12 37t-3 43q0 30 3 60t3 56q0 8 -0.5 20.5t-3 23.5t-7 19.5t-13.5 8.5q-2 -1 -12 -4.5t-11 -2.5l-10 -4q-10 -4 -24 -10.5t-27 -14 t-19 -13.5q10 -51 17.5 -102t7.5 -103zM482 293l2 14z"/>
<glyph glyph-name="i" horiz-adv-x="220" unicode="i" d="M259 347q-1 1 -1 2zM100 507q-2 -26 -14.5 -39.5t-28.5 -13.5q-14 0 -27 12t-15 37q3 9 7 9v14q12 24 33 24q14 0 26 -11q8 -1 11 -13t8 -19zM1 335q-1 4 -1 12q0 32 18 48.5t40 16.5q19 0 35.5 -13t24.5 -40q1 -5 1 -9v-9q0 -21 -4.5 -42t-10.5 -42t-12.5 -42t-10.5 -42 l-8 -43q-1 -3 -1 -8t1 -7l6 -7q9 -4 22 -4q19 1 37.5 13t34.5 30t29.5 40t22 42.5t12 36.5t1.5 24q2 3 7 9t7 12q2 4 5 13t3 17v2q1 -4 1 -11q0 -11 -2.5 -24.5t-6 -27t-6.5 -24.5t-4 -15v-2q-7 -35 -19 -64.5t-35 -58.5q-7 -9 -16.5 -16t-19.5 -13q-1 -1 -1.5 -1t-1.5 -1 q-2 -1 -11 -6t-9 -7h1q3 0 5.5 3t5.5 3q2 1 -7 -6t-15 -11q-10 -6 -21.5 -12t-23.5 -6h-4q-45 5 -59 37.5t-14 77.5q0 35 4 72.5t4 66.5q0 25 -4 38zM260 343v1v-1z"/>
<glyph glyph-name="j" horiz-adv-x="226" unicode="j" d="M61 557q-2 -26 -14.5 -39.5t-28.5 -13.5q-14 0 -27 12t-15 37q3 9 7 9v14q12 24 33 24q14 0 26 -11q8 -1 11 -13t8 -19zM140 -170q0 2 1 4q0 -2 -1 -4zM101 399q-2 3 -0.5 -1.5t2.5 -9.5q0 3 -0.5 5.5t-1.5 5.5zM64 -163q15 48 15 99q0 5 -1 35t-11 85q-17 -20 -31.5 -40 t-26.5 -43q-7 -13 -12 -26.5t-10 -27.5q-2 -6 -2.5 -18.5t-0.5 -20.5q0 -11 1 -26t5.5 -29.5t13.5 -12.5q14 2 28 8t27 11q4 4 5 6zM-18 418q6 28 22 42.5t26 15.5h10q18 0 35.5 -13t25.5 -40v-14t2 -15q1 -5 3.5 -14t0.5 -5l-1 1l12 -43q8 -29 11.5 -58.5t6.5 -60.5l6 -67 q16 13 29 32.5t23 40.5t18.5 42.5t17.5 40.5q6 12 15.5 21t13.5 22q-2 -13 -4.5 -24.5t-7.5 -24.5q-9 -24 -18 -52t-20.5 -54.5t-27 -48t-37.5 -32.5q5 -47 7.5 -86.5t2.5 -86.5q1 -11 1 -21q0 -5 -0.5 -15.5t-2.5 -26.5q-2 -7 -3.5 -14t-3.5 -15q0 -1 -1 -3q0 2 -1 -1 q-8 -17 -12.5 -34.5t-18.5 -31.5q-15 -15 -37 -23.5t-35.5 -9.5t-17.5 -1q-20 0 -39.5 7.5t-32.5 25.5q-14 19 -15.5 37.5t-1.5 27.5q0 21 4.5 47.5t15.5 54t24 43.5q14 19 23.5 30.5t18 21.5t18.5 20t26 25l-7 37q0 -4 -1 0q-9 41 -16 81t-18 80q-9 36 -21.5 69t-17.5 70z "/>
<glyph glyph-name="k" horiz-adv-x="343" unicode="k" d="M95 245l4 -26l4 -26q31 6 45 7.5t24 5t24.5 12.5t47.5 30q6 4 14.5 10t16 13t12.5 14.5t5 15.5v12t-6 9q-12 2 -25.5 3.5t-27.5 1.5q-43 0 -79 -17.5t-59 -64.5zM73 546q1 -60 3 -119t10 -118q9 31 24.5 67.5t31 74t27.5 75t12 71.5q0 41 -17 68q-7 11 -18 17.5t-21 14.5 q-1 0 -2 0.5t-2 0.5h-10q-7 0 -10 -1q-7 -5 -13.5 -10.5t-12.5 -13.5q-2 -14 -3 -28.5t-1 -29.5q0 -17 0.5 -34.5t1.5 -34.5zM141 -8q2 -5 2 -8v-6q0 -24 -16 -40t-39 -16q-28 0 -52 24q-20 23 -24.5 61t-4.5 80v42v20q-6 12 -6 24q0 11 5 24q0 8 -0.5 14.5t-1.5 12.5 q-4 24 -5 48t-1 49q0 37 1.5 74t3.5 72v50.5t2.5 72.5t8 71t16.5 46q39 43 74 43q23 0 45.5 -15t48.5 -40q12 -11 18.5 -29.5t6.5 -35.5v-4q8 -14 10.5 -27t3.5 -27v-11q0 -36 -18 -75t-44.5 -77t-52 -69.5t-35.5 -53.5l1 1q9 10 30 22t48.5 22.5t57 17.5t55.5 7 q28 0 46 -11t18 -37q0 -14 -5.5 -32.5t-18.5 -41.5q-8 -14 -19.5 -26.5t-23.5 -23.5q-32 -27 -76 -43q-20 -7 -40 -12t-41 -7q18 -22 50.5 -40.5t64 -35.5t55.5 -32.5t27 -31.5q3 -15 -13.5 -12t-42 15.5t-55 32t-53.5 38.5q-23 18 -36 34q-2 3 -4 5q2 -5 2 -9q2 -10 3 -24 q2 -11 6.5 -20.5t8.5 -20.5l2 -6t2 -7q2 -4 3 -7.5t2 -8.5z"/>
<glyph glyph-name="l" horiz-adv-x="218" unicode="l" d="M97 710q-5 2 -10 3t-10 3q-5 -14 -2 -22.5t5 -21.5q-2 -19 -5.5 -30.5t-3.5 -25.5v-7q1 -17 6.5 -27.5t2.5 -25.5q-4 -15 -4.5 -29t-2.5 -28q0 -12 -4 -22t-4 -20q-1 -10 1 -18.5t3 -18.5q0 -10 1 -18.5t3 -17.5q3 -11 6 -21t7 -23q5 16 10.5 29.5t7.5 26.5q8 38 12 74.5 t9 75.5q5 16 7 32.5t2 33.5q0 10 -4 19.5t-3 20.5zM58 -14l-6 47l-12 43q-32 94 -51.5 187.5t-19.5 191.5q0 29 1.5 59t6.5 61l3 20q1 24 5 47.5t12 45.5q4 11 14 23q1 4 5 12q23 31 38 37.5t24 6.5t22.5 -6.5t27 -29t23.5 -52t15 -62.5t5 -64q0 -26 -4 -43 q-7 -29 -11.5 -48.5t-6.5 -33.5q-3 -16 -5 -25t-5 -16t-8 -14t-14 -19q-10 -14 -13.5 -23.5t-5.5 -18t-4.5 -16.5t-10.5 -18q3 -15 5 -24t3.5 -14t3 -7.5t3.5 -6.5q0 -1 0.5 -1.5t0.5 -1.5l12 -35q1 -5 2.5 -17.5t7.5 -33.5t19 -51t38 -70q6 -13 10 -22.5t8.5 -12.5 t11.5 0.5t20 16.5q2 2 5 7t6 5t4 -6.5t1 -14.5t-1 -20q-11 -19 -24.5 -27t-36.5 -16q-11 -5 -20.5 -8t-15.5 -3q-8 0 -12 1q-2 0 -3 0.5t-2 0.5q-4 -1 -11 -1t-11 1q-16 5 -26 13z"/>
<glyph glyph-name="m" horiz-adv-x="578" unicode="m" d="M74 38v2v0v-2zM532 103v-5v-8q7 -13 7 -28q0 -22 -14.5 -38t-37.5 -16q-15 0 -33 9q-16 14 -19 31t-10 37q-7 19 -9 38t-2 39q-8 18 -11.5 31t-5 25t-2 26t-2.5 35q-11 -11 -20 -26t-17.5 -31.5t-16.5 -32t-17 -27.5q2 0 2 -2t-3 -5l-5 -5q-11 -20 -19 -40t-25 -36 q-8 -5 -15 -5q-9 0 -15.5 7t-7.5 19q0 10 1.5 25t4 32t4 35t1.5 33q0 25 -6 35q-17 -9 -37 -29t-39 -43.5t-35 -47.5t-26 -41l-16 -30l-10 -22l-3 -18v-5q-7 -17 -17 -24t-21 -7q-14 0 -25 10.5t-14 31.5q0 23 4 43q1 14 1.5 27t0.5 26q0 35 -2 69.5t-2 69.5q0 34 4 66.5 t17 62.5q11 20 25 28.5t28 8.5q20 0 34.5 -16t14.5 -42q0 -13 -5 -31q-6 -1 -8 -14.5t-3 -29t-2 -28.5t-5 -13v10l-3 -56q12 15 23.5 27t20.5 21q17 17 40.5 28.5t50.5 11.5h3q29 -1 40.5 -20.5t11.5 -48.5q0 -14 -2 -28t-5 -28l10 12q18 24 34 55t36 51q10 11 20.5 29.5 t20.5 36.5t21 31t23 13q11 0 23.5 -13.5t26.5 -46.5q-2 -11 -4.5 -17.5t-5 -12.5t-5.5 -13.5t-6 -19.5l4 -40q2 -20 8.5 -38.5t11.5 -38.5z"/>
<glyph glyph-name="n" horiz-adv-x="430" unicode="n" d="M-4 362q6 29 23 43.5t37 14.5q19 0 35 -13.5t24 -39.5q0 -6 0.5 -15t1 -19t1.5 -19t1 -15l29 49q11 9 16.5 19t10 19t10.5 16.5t17 12.5q13 4 20.5 6.5t21.5 2.5q24 0 37.5 -14t18.5 -37q7 -14 10 -32l1 -4q3 -20 3 -41q0 -42 -6.5 -86t-6.5 -83q0 -21 3 -39h2t3 1t7 2.5 t15 6.5q2 1 6.5 6t9.5 10q5 6 11 13q16 17 26 39t18.5 45.5t17.5 47t23 42.5q4 14 15.5 26.5t24.5 23.5q-5 -16 -14.5 -41t-22 -53.5t-26 -58.5t-26.5 -55.5t-24.5 -43.5t-18.5 -23q-5 -3 -11 -9.5l-12 -13t-13 -11t-14 -4.5q-4 0 -6 1q-6 2 -12.5 4.5t-13.5 4.5 q-8 3 -14.5 11.5t-11 19t-7 21.5t-2.5 17q-2 32 -4 70t-5.5 71t-10.5 55.5t-13 23.5t-7 1q-11 0 -29 -24t-45 -85q1 -15 1 -29.5v-28.5v-47q6 -30 9 -60q2 -10 2 -17v-7q0 -2 -0.5 -2.5t-0.5 -2.5q0 -5 -1 -8q-3 -12 -9 -19l-10 -9q-1 0 -1.5 -0.5t-1.5 -0.5q-10 -5 -20 -5 h-4q-2 0 -3 0.5t-3 0.5q-10 4 -14 7q-16 11 -19 36q0 3 -1 9l-1 5q0 -5 0.5 -7.5t0.5 -4.5q0 -1 -1 -2v-1q-1 0 -3 8.5t-4 18.5t-3.5 18.5t-1.5 9.5q-6 37 -8 74t-9 75l-9 38q-4 21 -5.5 42t-3.5 42z"/>
<glyph glyph-name="o" horiz-adv-x="314" unicode="o" d="M131 358q16 -13 35.5 -20t42.5 -9q-1 7 -2 13t-3 12q-6 28 -22 51q-6 6 -11 7q-1 -3 -5.5 -4t-10 -2t-10.5 -2t-8 -4q-5 -5 -5 -15q0 -5 0.5 -9.5t0.5 -8.5q0 -5 -2 -9zM211 303q-52 2 -92 24q-2 -10 -3 -20.5t-1 -21.5q0 -27 4.5 -54t12 -49.5t18 -36.5t21.5 -14 q17 0 31 34q6 8 8 30t2 46q0 20 -0.5 36.5t-0.5 25.5zM42 430q13 11 25.5 15t23.5 4q20 0 34 -11q5 1 11 1.5t11 0.5q7 0 14 -1.5t13 -2.5q17 -3 32 -20t26.5 -36.5t18 -35t6.5 -16.5q4 -8 15 -5t19 3q17 0 31.5 3.5t26.5 13.5l30 25l-9 -12q-3 -5 -8 -10.5t-11 -13.5 q-13 -17 -31 -23t-39 -6h-11t-11 1q1 -5 1 -10.5v-11.5q0 -21 -3 -44t-9 -45t-14.5 -40.5t-19.5 -30.5q-33 -34 -76 -34q-22 0 -43 8.5t-39.5 23.5t-33 34.5t-22.5 41.5q-8 21 -13 44.5t-5 46.5v5q1 42 17 75.5t43 62.5z"/>
<glyph glyph-name="p" horiz-adv-x="319" unicode="p" d="M261 224q-20 -1 -39 -14t-27 -29q-14 -23 -14 -49q0 -28 18 -40q20 11 33.5 30t23.5 43q2 14 3 29zM261 234q-2 32 -4.5 53.5t-9.5 33.5t-18.5 16t-29.5 3q-6 -1 -17.5 -5.5t-13.5 -6.5q-6 -6 -10 -11t-10 -13q-4 -5 -7.5 -9.5t-8.5 -9.5q0 -6 -1 -14t-1.5 -14.5 t-1.5 -10.5l-1 -3q-1 -11 -1 -22.5v-22.5l-3 -90q-1 -17 -1 -33t-2 -33q3 -28 5 -56t2 -56q0 -19 -1 -37t-3 -37q-1 -3 -1 -10v-22v-10t-1 -11l-3 -6q0 -1 -2 -3q-1 -2 -4.5 -7.5t-6.5 -6.5q-14 -12 -32 -12q-14 0 -26 8.5t-17 26.5q-2 6 -2 10q-8 20 -10 46t-2 54 q0 26 1 50.5t1 43.5v7q-1 46 -1.5 91t-0.5 91v55t2 55v11q0 11 -0.5 21t-0.5 21v13.5t2 13.5q6 29 23 43t37 14q13 0 23.5 -5.5t18.5 -14.5t12.5 -19t4.5 -19q0 -1 -0.5 -1.5t-0.5 -1.5v-11q0 -4 -1 -6q0 -4 -2 -14v-16l9 6q7 4 10 8.5t5 8.5t5.5 7t11.5 5q16 3 32 3h10 q10 0 14 -2q39 -10 56 -46t17 -81q0 -27 -5.5 -54.5t-15.5 -52.5t-24 -44.5t-31 -29.5q-3 -4 -9 -6q-5 -8 -18 -8h-5q-14 0 -19 12q-3 1 -4 4q-14 25 -14 54q0 27 12 51q3 28 14.5 48.5t42.5 20.5q7 0 15 -1t18 -4z"/>
<glyph glyph-name="q" horiz-adv-x="390" unicode="q" d="M73 180l11 -56q6 -9 18 -6t24.5 10.5t22.5 15.5t11 10q7 12 10.5 23.5t5.5 32.5q1 31 2 61.5t1 62.5q-5 0 -8.5 1t-8.5 1q-10 2 -15 2q-8 2 -8.5 2.5t-5.5 0.5q-10 0 -16 -5t-9.5 -12t-5.5 -15t-4 -14q-6 -20 -14.5 -39t-8.5 -39zM48 343q19 17 34 23.5t31 6.5 q14 0 30 -3.5t36 -6.5q0 5 -0.5 10.5t-0.5 10.5q6 29 25 43.5t42 14.5q21 0 39.5 -13.5t26.5 -39.5q-2 -41 -7 -80.5t-11 -80.5q0 -2 -2.5 -21t-5.5 -40.5t-5 -37.5l-2 -13v9l-3 -24q-2 -11 -4 -19.5t-3.5 -20t-1.5 -35.5q0 -35 1 -69.5t1 -69.5q0 -44 -3 -87 q-1 -12 -1 -23.5v-24.5v-21q14 23 30.5 57t33.5 71t33.5 72.5t31.5 62.5q10 17 19.5 35.5t23.5 32.5q-12 -16 -19.5 -35t-15.5 -37q-22 -57 -40 -115.5t-40 -116.5q-5 -12 -10.5 -27.5t-13 -29.5t-18 -25t-25.5 -14q-7 1 -18 2.5t-16 6.5q-17 25 -20.5 54.5t-3.5 60.5v35 v23.5t-2 22.5q-5 40 -7.5 69.5t-4.5 56t-3.5 54t-2.5 65.5q-9 -14 -18 -24t-19 -17.5t-21.5 -14t-25.5 -13.5q-4 -1 -9 -1q-9 0 -16 5q-4 2 -17 9.5t-18 14.5q-8 11 -11 23t-4.5 24t-2 24.5t-3.5 24.5q-3 9 -3 20q0 10 2 19.5t5 20.5q5 36 13.5 67.5t19.5 48.5z"/>
<glyph glyph-name="r" horiz-adv-x="220" unicode="r" d="M-14 476q0 -16 18 -35.5t46 -50.5q2 -2 3.5 0t2.5 7t1.5 11t0.5 11v8t-2 9q-4 15 -12 31t-22 27q-5 5 -14 5q-8 0 -15 -6t-7 -17zM120 -31q-23 0 -39 13.5t-25.5 37t-13.5 54t-4 63.5q0 46 6.5 91.5t15.5 80.5l-20 13q-12 8 -28 25t-31 38t-25 44.5t-10 43.5q0 22 15 37 q21 19 46 19q14 0 25.5 -12t20 -28t13 -32t4.5 -25v-6t1 -19q0 -5 -1.5 -13t-1.5 -16l16 -5q6 15 17 21.5t24 6.5t26.5 -5.5t24.5 -14.5t18 -19.5t7 -20.5t-8 -18q0 -3 -4 -9l-3 -8q-3 -4 -10 -24.5t-24 -53.5q-2 -6 -2.5 -13.5t-2 -24.5t-4.5 -47t-10 -82q-1 -5 -1 -9.5 v-9.5q0 -27 9 -36q3 -3 8 -3q7 0 28.5 9.5t44.5 21t42.5 21.5t24.5 11q-6 -10 -24 -26.5t-40.5 -32t-46.5 -27t-43 -11.5h-9h-6z"/>
<glyph glyph-name="s" horiz-adv-x="270" unicode="s" d="M113 500q30 0 49.5 -14t39.5 -34l5 -6q18 -18 34 -45.5t16 -54.5q0 -30 -26 -50q-5 -5 -10 -6t-10 -1t-11.5 6.5t-12.5 14t-10 14t-5 6.5q8 0 17 -1.5t17 -1.5q9 0 15.5 3t6.5 12q0 2 0.5 4t0.5 4q0 16 -7.5 30.5t-18.5 25t-24.5 17t-25.5 6.5q-9 0 -21 -8.5t-20 -18.5 q-1 -1 -0.5 -10t2 -19.5t3 -20t1.5 -11.5q0 -17 16.5 -42.5t36.5 -57t36.5 -66t16.5 -68.5q0 -5 -1.5 -16.5t-4 -24.5t-5 -24.5t-3.5 -14.5q-11 -23 -22.5 -37.5t-23 -24t-23 -15.5t-21.5 -12q-20 -11 -37.5 -20t-41.5 -9h-4q-19 0 -34.5 8t-26 20t-16.5 27.5t-6 30.5 q0 14 6.5 29.5t18.5 29t28.5 24.5t37.5 16q1 1 7 1.5t12 0.5q9 0 9 -2q0 -4 -21 -15q-12 -7 -21.5 -18.5t-16 -23.5t-10 -24t-3.5 -20q0 -20 11.5 -33.5t28.5 -13.5q23 0 43 28q15 22 15 52q0 21 -5.5 43t-13 43t-16 40t-14.5 34q-7 18 -15.5 39t-16 44t-12.5 46t-5 46 q0 28 8 48q7 18 17 34t23.5 29t29.5 20.5t34 7.5z"/>
<glyph glyph-name="t" horiz-adv-x="250" unicode="t" d="M298 322q0 -11 -0.5 -23t-0.5 -27q-4 -45 -19 -94t-38.5 -90t-54.5 -68t-67 -28q-3 0 -6.5 -0.5t-4.5 -0.5q-3 0 -5 1q-27 10 -42 24t-22.5 33t-9.5 42.5t-3 51.5q-1 18 -1 37t1 38q2 42 5.5 83.5t7.5 83.5q3 42 9.5 72t10.5 61q-19 -2 -37.5 -3t-37.5 -2q-11 1 -16 7 t-5 13q0 8 5.5 13.5t16.5 6.5q22 -1 34.5 -1.5t19.5 -0.5q12 0 24 1v22v25q6 28 19.5 43t22.5 16t11 1q13 0 27 -11.5t22 -38.5q-2 -15 -2.5 -28t-1.5 -26q23 2 48 2.5t55 0.5q9 -3 9 -10.5t-10 -9.5q-23 -5 -40 -6t-27 -1q-14 0 -27 1q-3 -1 -10 -1q-3 -48 -8.5 -91.5 t-15.5 -99.5q-9 -41 -14 -77t-9 -65q-1 -3 -1 0q-5 -33 -10.5 -62.5t-5.5 -47.5q0 -20 4 -40q1 -6 7 -8.5t14 -2.5t16.5 1.5t14.5 2.5q16 2 35 19.5t37 42.5t31.5 54t17.5 55q2 14 5 30.5t5.5 32.5t5 30.5t4.5 24.5z"/>
<glyph glyph-name="u" horiz-adv-x="453" unicode="u" d="M17 360q-1 -3 -1 -8q1 2 1 4v4zM32 443q25 19 50 19q23 0 38.5 -15.5t15.5 -41.5q0 -13 -4 -25l-1 -1l-4 -44q-5 -24 -12.5 -47.5t-11.5 -49.5q-2 -9 -1.5 -18.5t-3.5 -18.5q0 -1 -1 -1q0 -10 -2.5 -21.5t-2.5 -21.5q0 -15 10 -19q5 -2 8.5 -3t8.5 -1q22 0 41.5 20 t35 48.5t27 58.5t17.5 50q10 25 15.5 41t16.5 33q13 10 24 10q22 0 28 -26q3 -9 3 -21q0 -23 -6 -47q-6 -22 -6 -39l-1 -18q0 -12 -2 -22v7q-1 -8 -2.5 -24t-2.5 -34q2 -8 3 -17t3 -17q1 -5 4.5 -22t10.5 -27h2q6 0 14 4t19 15q11 10 20 20.5t17 21.5q24 30 42 66t37 67 q3 10 8.5 25t11.5 28.5t12 21.5t11 4t5 -11t-8.5 -21.5t-27.5 -52.5q-18 -36 -32 -72t-37 -71q-8 -13 -16.5 -25.5t-19.5 -23.5q-20 -19 -36 -27t-29 -8q-18 0 -29.5 13.5t-18.5 35t-10 48t-3 53.5q-10 -20 -21 -38.5t-25 -36.5q-26 -35 -58 -57.5t-63 -22.5q-28 0 -51 22.5 t-35 73.5q-5 19 -6.5 39t-1.5 40q0 16 1 31.5t3 30.5q2 16 5 31t6 29v5v-1v4q1 7 1 13.5v12.5q0 20 3 35.5t14 32.5z"/>
<glyph glyph-name="v" horiz-adv-x="321" unicode="v" d="M-17 423q3 5 7 9l10 10l16 16l25 25q7 6 15 4t18 -10q8 -7 16 -19t12 -25q0 -3 1 -1t4 -6t9 -34t15 -83q12 -83 19 -111q4 -15 9 -14q5 0 11 12q14 26 41 109q27 82 79 220q0 1 1 1t2 -2q2 -3 2 -11q-1 -9 -3 -24q-4 -21 -8 -45q-6 -24 -13 -51t-13 -51t-12 -42t-7 -25 q-9 -29 -17 -53t-17 -48q-7 -24 -17 -48t-20 -52q-13 -35 -26 -53t-30 -19h-3q-23 0 -37 27q-10 20 -16 40t-9 43q2 12 -5 24t-9 31q-9 19 -13 37t-9 38q-5 28 -9 50t-7 40q-3 20 -6 41t-6 50z"/>
<glyph glyph-name="w" horiz-adv-x="362" unicode="w" d="M273 310q2 8 7 12.5t11 5.5q4 2 13 4q1 0 1.5 -0.5t1.5 -0.5h1q0 -1 -4 -1.5t-4 -1.5h1q3 0 9 2.5t8 2.5q2 1 7.5 -0.5t11.5 -3.5t11 -3.5t8 -1.5h9t8 -1h7q5 0 18 -1.5t18 -2.5q4 0 6.5 0.5t3.5 0.5q2 0 4.5 -2t2.5 -4q0 -3 -16 -4t-36 -7q-3 0 -12.5 0.5t-20.5 0.5h-20 h-8q-5 -25 -9 -48.5t-4 -47.5q0 -35 4.5 -69t4.5 -68q0 -16 -1.5 -31.5t-6.5 -31.5q-7 -7 -18 -7q-7 0 -11 1q-10 2 -19.5 19.5t-18.5 43t-16.5 55t-14.5 56t-12.5 46t-9.5 24.5q-9 -24 -14 -54.5t-10.5 -63.5t-13 -67t-21.5 -65q-17 -21 -38 -21q-16 0 -30 11l-10 11 q-6 9 -10.5 20.5t-9.5 21.5q-12 29 -20 57.5t-13 59.5q-9 38 -17.5 75t-12.5 75q6 28 23.5 41.5t37.5 13.5t37 -12.5t22 -37.5q5 -23 11.5 -52.5t13 -58.5t11.5 -55t7 -42q1 7 4.5 26t7.5 40t7.5 39t5.5 25q3 11 6 24.5t6.5 25.5t7.5 20.5t10 8.5t15 -13q3 -5 7 -25t9 -47 t11 -56.5t13 -54.5t15.5 -41t19.5 -16q6 0 12 6q1 1 1 8q0 13 -2.5 43t-2.5 65q0 23 2.5 40.5t2.5 30.5q0 8 -1 16q-1 12 -2 16t-3 6.5t-4.5 6t-5.5 13.5z"/>
<glyph glyph-name="x" horiz-adv-x="321" unicode="x" d="M240 423q11 4 23 4q20 0 33 -10.5t13 -26.5q0 -17 -15 -32q-1 0 -1.5 -0.5t-1.5 -0.5l-5 -8q-5 -8 -10 -15t-10 -15q-8 -12 -12.5 -18.5t-8.5 -11.5t-9 -11.5t-14 -18.5l-38 -49q9 -17 19.5 -33t18.5 -29q8 -12 14 -20l6 -9q20 -21 30 -46q3 -5 4 -10t3 -10l7 -4 q10 -11 10 -22q0 -17 -21 -27q-9 -3 -18 -3q-16 0 -26.5 9.5t-17.5 22.5q-17 17 -31.5 35t-25.5 37q-5 5 -9 10.5t-9 10.5q-4 5 -7.5 10t-8.5 10q-15 -17 -31 -32.5t-33 -30.5q-12 -14 -20 -27.5t-22 -26.5l-5 -5q-7 -4 -15 -4q-9 0 -15.5 6.5t-6.5 16.5v4l5 7l14 17 q16 31 39 55.5t46 51.5l10 12q-34 49 -60 100.5t-40 108.5q1 2 1 6q8 27 27 41.5t42 14.5q17 0 33 -7.5t30 -24.5l2 -3q4 -12 4 -24q0 -10 -1 -15v-8.5t1 -8.5q2 -21 8 -41t14 -40q9 18 20.5 40t24 42t24.5 35.5t22 20.5z"/>
<glyph glyph-name="y" horiz-adv-x="415" unicode="y" d="M206 -136q1 20 1 39t-1 38l-21.5 -21.5t-19.5 -24.5q-20 -29 -24 -50t-4 -31q0 -23 10 -48q4 -8 8 -17.5t9 -18.5q0 1 1 1q5 2 7 -5t7 -10l1 -1q5 5 6.5 10.5t3.5 10.5q9 29 11.5 64t4.5 64zM177 277q-9 20 -9 37q0 8 4.5 23.5t20 24.5t30.5 9q7 0 22.5 -3t34.5 -30 q11 -21 14 -42t3 -40q0 -3 -0.5 -16.5t-3 -37t-2.5 -46.5v-108q32 18 55 45t28 47q19 83 34 131.5t24 66.5t11 12.5t2 -12.5q0 -10 -3.5 -33t-16.5 -70.5t-35 -106.5q-5 -12 -16.5 -30.5t-26 -37.5t-30 -35.5t-26.5 -23.5q0 -56 -4 -111.5t-15 -111.5q-4 -20 -10.5 -45 t-18.5 -45.5t-27 -30t-29 -9.5q-10 0 -21 3q-29 8 -47 35.5t-26 59.5t-8 61q0 5 1 25t11 42q16 38 44 67t62 52q-2 28 -5.5 56t-6.5 56q-14 -21 -32 -38.5t-37.5 -28t-30 -11t-12.5 -0.5q-19 0 -36 13q-15 10 -23 38.5t-11.5 61t-5 63.5t-3.5 47l-4 30l-4 30q0 1 -0.5 4.5 t-0.5 7.5v6l9 33q8 14 20 19.5t24 5.5q5 0 16.5 -1.5t30.5 -14.5q6 -11 11.5 -17t7.5 -20q2 -11 0 -17t-4 -15l-2 -4q0 4 1 10.5t1.5 11.5t0.5 7t-1 -1q-10 -57 -17.5 -109t-7.5 -91q0 -22 2 -43q9 -5 21.5 -1.5t26.5 11.5t29 20.5t28 25.5q-1 4 -1 14q-2 26 -2.5 53 t-2.5 54q-1 1 -2 8t-3 10z"/>
<glyph glyph-name="z" horiz-adv-x="220" unicode="z" d="M-60 21q2 -4 6 -14t9 -14q13 -9 33 -9q9 0 18 2q-12 -5 -24 -5q-23 0 -39 15t-16 41q0 16 7 33q6 8 12 18t10 19q2 3 4 8l2 4q-1 -5 -3 -9t-4 -10l6 11l37 94q17 41 32 82t33 81q13 20 17 40t9 36h-7q-8 -2 -14 -4l-15 -5q-9 -2 -28 -3q-25 4 -37 4l-12 1l12 1q12 2 35 8 q22 4 33 10t20 11q8 5 20 9t34 7q5 -1 8 -3h2q26 -13 36 -27t10 -29q0 -21 -14 -44t-28 -47l-42 -74q-8 -26 -14 -53l-12 -54q-5 -21 -8 -42t-8 -41q-1 -4 -4 -9l-4 -4q-16 -12 -28 -24q-13 -12 -20 -15q-4 -2 -7 -2q-7 1 -13 7t-7 14q-9 10 -19 10q-8 0 -14 -4t-5 -15 q1 -2 1 -3v-3zM56 60l-2 -6q-4 -9 -2 -7q0 -1 -2 -5t-2 -6q-4 -10 -8 -18l-9 -18q-13 -10 -25 -14q12 2 22 6q20 8 40 17q20 10 38 20t32 15q6 2 10 2h2q18 -6 34 -19t29 -13h15t17 3q11 5 15 19t14 22q-8 -4 -17 -12t-18 -14q-4 -3 -8 -1q-17 8 -29 18q-12 11 -24 19 t-26 14t-32 6q-16 0 -34 -10q-16 -8 -30 -18z"/>
<glyph glyph-name="braceleft" horiz-adv-x="358" unicode="{" d="M274 642q11 0 17 -6t6 -14q0 -6 -4.5 -11.5t-14.5 -6.5l-18 -3t-9.5 -3.5t-7 -6.5t-11.5 -11q-17 -14 -23 -33t-6 -42q0 -21 4 -45t9 -48.5t9 -49t4 -48.5q0 -32 -11 -60.5t-41 -50.5l7 -17q9 -30 9 -58q0 -34 -11 -65t-28 -63q-4 -7 -6 -14t-7 -13q-4 -13 -4 -29 q0 -25 12 -46t32 -42q4 -4 4 -7q0 -2 -1 -3q5 -2 10.5 -2.5t11.5 -0.5h18q8 0 14.5 -1t12.5 -6q10 -7 10 -18q0 -8 -5.5 -13.5t-13.5 -5.5q-5 0 -8 1q-6 -1 -13 -1.5t-14 -0.5q-18 0 -31 3q-18 5 -37 22t-34 38.5t-24.5 45t-9.5 41.5q0 22 8 44t17 44t17 43.5t8 43.5 q0 7 1 10.5t1 7.5q0 7 -3.5 19t-3.5 21q0 4 -7 7.5t-11 4.5q-35 19 -35 39q0 8 8.5 14t26.5 6q35 6 47.5 27.5t12.5 52.5v11t-1 12q-2 27 -7 58.5t-5 61.5v11q1 28 10 56t25 50t39.5 36t54.5 14z"/>
<glyph glyph-name="bar" horiz-adv-x="250" unicode="|" d="M221 363q-3 -27 -3 -54q0 -4 0.5 -11.5t0.5 -18.5q0 -21 -1 -42q0 -17 0.5 -26.5t0.5 -12.5q0 -12 -2 -25q-4 -29 -8 -59t-9 -59l-8 -40l-8 -40q0 -5 1 -7q6 -14 6 -26q0 -7 -3.5 -18.5t-10.5 -28.5q-2 -5 -4 -8.5t-4 -8.5q-13 -29 -13 -62q0 -11 1 -23q1 -8 -1.5 -16.5 t-7 -16.5t-10 -14t-11.5 -7h-3q-9 0 -11 12q-2 13 -8.5 21.5t-12.5 16.5q-24 30 -28 72q0 3 -2 9q-5 23 -7 40t-2 29q0 9 1 18q0 48 -0.5 76.5t-0.5 43.5q0 29 1 57q1 27 3.5 54t4.5 54q1 8 1.5 16t0.5 16q1 41 1.5 80.5t2.5 80.5l3 102v7q0 24 -12 40q-2 3 -2.5 7.5 t-2.5 9.5q4 2 7.5 4.5t6.5 2.5h2q5 0 9 -3t9 -5q17 -9 33.5 -17.5t33.5 -19.5q15 -9 26 -28q15 -27 26.5 -55t11.5 -62v-6q-1 -13 1 -22.5t2 -16.5q0 -5 -1 -10z"/>
<glyph glyph-name="braceright" horiz-adv-x="358" unicode="}" d="M86 642q31 0 54.5 -14t39.5 -36t25 -50t10 -56v-11q0 -30 -5 -61.5t-7 -58.5q-1 -6 -1 -12v-11q0 -31 12.5 -52.5t47.5 -27.5q18 0 26.5 -6t8.5 -14q0 -20 -35 -39q-4 -1 -11 -4.5t-7 -7.5q0 -9 -3.5 -21t-3.5 -19q0 -4 1 -7.5t1 -10.5q0 -22 8 -43.5t17 -43.5t17 -44 t8 -44q0 -18 -9.5 -41.5t-24.5 -45t-34 -38.5t-37 -22q-14 -3 -31 -3q-7 0 -14 0.5t-13 1.5q-3 -1 -8 -1q-8 0 -13.5 5.5t-5.5 13.5q0 11 10 18q6 5 12.5 6t14.5 1h18q6 0 11.5 0.5t10.5 2.5q-1 1 -1 3q0 3 4 7q20 21 32 42t12 46q0 16 -4 29q-5 6 -7 13t-6 14 q-17 32 -28 63t-11 65q0 28 9 58l7 17q-30 22 -41 50.5t-11 60.5q0 24 4 48.5t9 49t9 48.5t4 45q0 23 -6 42t-23 33q-8 7 -11.5 11t-7 6.5t-9.5 3.5l-18 3q-10 1 -14.5 6.5t-4.5 11.5q0 8 6 14t17 6z"/>
<glyph glyph-name="asciitilde" horiz-adv-x="340" unicode="~" d="M326 657q1 -4 1 -8q0 -9 -6.5 -18.5t-18.5 -12.5q-6 -2 -11.5 -3.5t-9.5 -7.5q-1 -2 -2 -4.5t-2 -4.5q-5 -12 -17 -12h-5q-14 2 -28 6.5t-28 10.5q-12 6 -21.5 13t-23.5 10q-15 3 -30 3q-12 0 -31.5 -3t-42.5 -17q-5 -2 -8.5 -4.5t-8.5 -4.5t-9.5 -2t-8.5 3q-6 4 -6 10 t5 12.5t11 11t9 7.5q30 25 68 33l24 6q8 -2 16 -3.5t16 -3.5q30 -11 56 -22q11 -5 23 -8t26 -1q12 2 23.5 4.5t22.5 10.5q2 2 6 4q9 6 11 -5z"/>
<glyph glyph-name="uni00A0" horiz-adv-x="810" unicode=""/>
<glyph glyph-name="exclamdown" horiz-adv-x="334" unicode="" d="M260 124q0 -7 -3 -11q-12 -16 -28 -23t-34 -12q-10 -2 -20 -3.5t-20 -3.5q-6 -2 -11 -3t-10 -3q-4 -1 -8 -1q-8 0 -15 4q-5 3 -6.5 5t-1.5 4.5t0.5 4.5t-0.5 5q-2 5 -3 8t-1 5q0 3 1 5t1.5 3.5t1.5 3.5q1 1 1 1.5t1 1.5q2 5 5.5 7t7.5 7q3 4 6.5 5t3.5 7v19.5t1 19.5 q0 25 3 48q2 11 5 20.5t5 20.5q2 10 3.5 19.5t1.5 20.5q1 12 1 24q0 6 -0.5 12.5t-0.5 12.5q0 12 1 24l-1 44q0 17 4 35q2 8 2 17t2 18q2 3 3.5 7t3.5 8q9 13 26 15q7 2 11 -1t8 -7q1 -1 2 -1.5t2 -1.5q3 -3 3 -4q1 -8 2 -17t1 -17q1 -14 1.5 -27t2.5 -26q2 -10 2 -16 q2 -11 2 -21.5t4 -21.5q4 -12 6 -26q2 -12 3.5 -24.5t3.5 -24.5q2 -8 1 -12q-2 -6 -2 -11.5v-11.5q0 -17 5 -37l6 -27q3 -12 2 -24.5t3 -24.5q3 -9 3 -18zM235 591q0 -17 -16 -20q-5 -1 -13 -3q-4 -1 -8 -1q-10 0 -18 8q-8 7 -16 13l-16 12q-11 9 -12 21q-1 3 -1 5l1 12 q1 1 2 1q6 -1 10 2.5t9 5.5q11 4 18 4q4 0 8 -1q10 -3 17 -6.5t12 -10.5q4 -5 7.5 -11t8.5 -11q4 -5 5 -10z"/>
<glyph glyph-name="cent" horiz-adv-x="337" unicode="" d="M162 154q-1 11 -2 20.5t-2 16.5q2 13 1.5 22t-2.5 18q-2 7 -2.5 13.5t-2.5 13.5q0 2 -3 5q-3 -3 -3 -4q-5 -14 -5.5 -28t-0.5 -28q0 -3 1.5 -6.5t0.5 -6.5q-1 -8 2 -13.5t5 -11.5q4 -8 10 -13q0 -2 2 -2q0 1 0.5 1.5t0.5 2.5zM298.5 186.5q1.5 -3.5 1.5 -5.5 q0 -3 -2.5 -5t-5.5 -5q-9 -12 -20 -23q-4 -4 -8 -5q-7 -4 -13 -7.5t-11 -9.5q-2 -3 -6 -4t-8 -3q-6 -2 -10 -3q-5 -2 -5 -7l-9 -60q-2 -10 -3 -19t-1 -19q-1 -7 -3.5 -12.5t-4.5 -11.5q-1 -3 -4 -4q-2 -1 -4.5 -2t-3.5 -1h-2q-3 1 -3 4v5q-2 15 -4 30.5t-4 30.5v12t-1 11 q0 6 -0.5 11.5t-0.5 10.5q-1 7 -8 8q-13 2 -25.5 4t-25.5 7q-33 15 -49.5 41t-19.5 61q-1 3 -1 6l1 12q-1 15 0.5 30.5t9.5 29.5q2 4 2 7q8 26 26 46q4 6 7 10q9 15 28 15q4 0 4 1q4 5 8.5 4t9.5 0h22q6 -1 6 5q1 1 1 2q-1 13 1.5 25.5t5.5 25.5q0 3 -0.5 7t-0.5 7.5t2 3.5 h1q12 -3 23.5 -6t20.5 -13l1 -1q11 -6 14 -16.5t3 -21.5v-12t-1 -12q0 -9 8 -11q14 -2 24.5 -9t21.5 -12t10.5 -11t-4.5 -14q-5 -10 -14 -2q-7 5 -14 10.5t-14 10.5q-9 6 -11.5 4.5t-4.5 -11.5q-2 -11 -4.5 -21t-7.5 -20q-3 -5 -3.5 -11.5t-1.5 -13.5q-1 -9 -1.5 -18.5 t-1.5 -19.5v-7l2 -18l2 -18q2 -7 0 -13.5t-4 -13.5q-2 -5 0 -7q2 -1 7 -1q9 3 17.5 6.5t15.5 11.5q5 5 11 10t11 10q2 2 2.5 3t2.5 2q4 4 6 3q4 -1 8.5 -0.5t6 -3z"/>
<glyph glyph-name="sterling" horiz-adv-x="557" unicode="" d="M523.5 163.5q-8.5 -7.5 -16.5 -8.5h-16v1l-32 -4t-33 -4q-9 -2 -18.5 -3t-18.5 -3q-4 0 -10 -2q-10 -4 -13 -16q-2 -15 -5.5 -30.5t-7.5 -30.5q-2 -5 -4.5 -9.5t-4.5 -9.5q-2 -3 -3 -5t-3 -5q-7 -11 -13.5 -21.5t-13.5 -21.5q-1 -4 -5 -6q-8 -7 -16.5 -13.5t-16.5 -14.5 t-14.5 -16.5t-14.5 -16.5q-3 -2 -1.5 -4t4.5 -1q4 1 8 1q13 0 27 -5.5t31 -8.5q6 -2 8 -3q16 -11 34 -14.5t36 -7.5q2 0 8 -2q7 -2 13 -2q19 0 31 17q2 2 2.5 3.5t2.5 3.5q7 8 12 -2q2 -3 3.5 -7t0.5 -7q-2 -11 -7 -19.5t-16 -13.5q-10 -4 -20 -6.5t-20 -0.5l-48 6t-47 8 q-8 2 -16 5t-16 5q-22 8 -40 14q-5 1 -10 1q-12 0 -21 -8q-11 -10 -25 -15.5t-26 -13.5l-4 -2q-4 -10 -10 -10q-1 0 -4.5 1t-11.5 3q-8 3 -17 4.5t-17 4.5q-14 4 -17 22q-1 7 1.5 11t4.5 9q7 10 13.5 20t12.5 20q16 25 25.5 52t17.5 54q5 14 8.5 28.5t7.5 28.5q1 10 -7 9 h-10q-15 0 -31.5 5t-35.5 12q-11 4 -19.5 11.5t-16.5 16.5q-2 2 -2 4q0 3 5 4q3 1 10 1q9 -2 18 -2q8 0 19 2.5t28 3.5l18 2t18 3q10 2 12 4.5t1 12.5q0 3 -0.5 6.5t-0.5 7.5q-2 12 -5 24t-10 23q-14 22 -24.5 44.5t-17.5 47.5q-3 14 -3 27q0 8 1 15q2 12 2.5 24.5t2.5 24.5 q6 47 41 73q8 6 13.5 13t16.5 7q2 0 3 1t3 0q14 -6 26 -1.5t25 6.5q16 2 31 2q14 0 34.5 -2.5t46.5 -22.5q14 -11 26 -23t19 -29q5 -11 -3 -18q-2 -2 -3.5 -2t-3.5 -2q-3 -2 -5.5 -6t-7.5 -1q-6 3 -10.5 7.5t-4.5 12.5q-1 5 -1.5 10.5t-2.5 10.5q0 4 -4 8q-6 3 -9.5 8.5 t-7.5 11.5q-5 9 -13.5 9.5t-18.5 -6.5q-15 -11 -25.5 -24.5t-16.5 -32.5q-5 -17 -8.5 -33.5t-5.5 -33.5q-1 -4 -1 -8q0 -19 12 -38q5 -7 8 -13.5t7 -14.5q8 -19 22.5 -32.5t28.5 -27.5q5 -5 10.5 -9.5t9.5 -9.5q7 -8 14.5 -9.5t17.5 0.5q20 4 36 6.5t28 2.5l16 -1 q14 -2 27.5 -5t27.5 -6q2 0 6 -2q14 -8 14 -20q0 -11 -8.5 -18.5z"/>
<glyph glyph-name="yen" horiz-adv-x="426" unicode="" d="M385 258q0 -5 -9 -9t-18.5 -4.5t-18.5 -1.5q-11 -2 -22 -3t-22 -3l-8 -2t-9 -2q-7 -1 -9 -11l-2 -12l-2 -12q-1 -1 2 -4q2 -1 3 -0.5t3 0.5q17 2 33 4.5t33 5.5q2 0 5 0.5t1 6.5q1 0 1 1t1 1q8 -2 15 -2t14 -5q9 -6 1 -12q-4 -3 -7 -4.5t-8 0.5q-5 4 -15 0 q-21 -7 -42.5 -13.5t-41.5 -17.5q-9 -5 -8 -14q1 -6 -1.5 -12t-0.5 -12q-5 -5 -5.5 -12.5t-2.5 -14.5q-5 -13 -9.5 -25.5t-9.5 -26.5q-3 -8 -5 -16l-4 -16v-4q2 -13 -2.5 -23t-9.5 -19q-6 -10 -11 -10l-6 -1q-9 0 -18 8q-14 12 -18 30q-15 51 -15 105v18q0 4 -4 3 q-4 0 -8 -2q-13 -5 -25.5 -6t-25.5 1q-4 0 -7.5 4t-7.5 8q-2 2 -3.5 4.5t-3.5 4.5q3 0 9 2q17 5 34.5 11t34.5 11q8 3 8 12q-1 8 0 17t1 17q1 7 -0.5 8.5t-6.5 0.5q-11 -2 -20.5 -4.5t-20.5 -4.5t-22.5 -1.5t-22.5 7.5l-2 2q1 1 1.5 1t1.5 1q19 5 38 11t39 12q5 2 10 2t7 4 q3 5 3.5 11t1.5 12q1 4 1 13q0 5 -1 6q-4 6 -7.5 12t-8.5 11q-8 9 -13 20t-9 22q-14 38 -27.5 75t-27.5 75q-4 11 -8 22.5t-9 22.5q-2 2 -3.5 4.5t-3.5 4.5t-2 4t4 3q3 1 10 1q8 0 16.5 -0.5t16.5 -5.5q3 -2 7 -2.5t7 -1.5q15 -5 29 -11.5t26 -17.5l8.5 -8.5t6.5 -9.5 q11 -19 21 -37.5t14 -41.5q0 -3 1 -5q3 -8 6 -15.5t6 -15.5l3 -9q3 -6 4.5 -6.5t5.5 3.5q2 2 4 4.5t4 4.5q8 9 15 18.5t15 19.5q7 9 13 18.5t13 18.5q4 5 7 10.5t7 10.5q12 12 20.5 26.5t17.5 28.5q5 12 14 10q6 -1 12 -1.5t11 -2.5q12 -6 1 -16l-11.5 -11.5t-11.5 -10.5 q-3 -5 -7 -6q-11 -4 -18 -19q-6 -14 -12 -27t-13 -27q-3 -5 -7 -10.5t-7 -10.5q-4 -9 -7 -18t-7 -18q-2 -5 -5 -7q-9 -8 -14.5 -18.5t-13.5 -19.5q-5 -7 2 -10q5 -4 11 -5q11 -2 17.5 -6.5t9.5 -22.5q2 -8 3 -9.5t9 -1.5q14 2 27.5 3t27.5 2q7 0 13.5 -0.5t13.5 -1.5 q2 0 4 -2l4.5 -4.5t3.5 -5.5z"/>
<glyph glyph-name="brokenbar" horiz-adv-x="214" unicode="" d="M167 110q-5 -20 -7.5 -40t-10.5 -39l3 -15q-5 -7 -9.5 -14t-8.5 -15q0 -5 -0.5 -12.5t-0.5 -16t1 -15.5t4 -10q-18 -8 -28 -8q-3 0 -10 2t-13.5 10t-12 16.5t-17.5 9.5l8 16t4 17q0 29 -3 57t-3 57q0 9 1 13t1.5 7.5t1.5 7.5t1 13q0 22 -8.5 36.5t-13.5 37.5 q13 11 27.5 19.5t23.5 23.5h4q8 -1 14.5 2.5t14.5 3.5q6 0 16.5 -3.5t9.5 -11.5l-9 -108l17 -24l-2 -6zM167 530q-5 -20 -7.5 -40t-10.5 -39l3 -15q-5 -7 -9.5 -14t-8.5 -15q0 -5 -0.5 -12.5t-0.5 -16t1 -15.5t4 -10q-18 -8 -28 -8q-3 0 -10 2t-13.5 10t-12 16.5t-17.5 9.5 l8 16t4 17q0 29 -3 57t-3 57q0 9 1 13t1.5 7.5t1.5 7.5t1 13q0 22 -8.5 36.5t-13.5 37.5q13 11 27.5 19.5t23.5 23.5h4q8 -1 14.5 2.5t14.5 3.5q6 0 16.5 -3.5t9.5 -11.5l-9 -108l17 -24l-2 -6z"/>
<glyph glyph-name="section" horiz-adv-x="514" unicode="" d="M330 140q-4 5 -7.5 10t-6.5 10q-17 28 -44 46q-5 2 -9 5t-9 5q-13 5 -26 9t-27 9q-2 1 -6 1q-5 2 -8 -0.5t-5 -6.5q-2 -5 -5 -10.5t-5 -10.5q-3 -6 -2 -10q3 -27 28 -35q12 -3 24 -5t23 -2q16 -1 31 -3.5t30 -5.5zM463 132q0 -3 -0.5 -5.5t-0.5 -5.5q-1 -15 -17 -23 q-3 -1 -5.5 -2t-5.5 -3q-14 -6 -4 -17q3 -4 6.5 -6.5t6.5 -6.5q5 -7 10.5 -13.5t9.5 -14.5q6 -11 6 -22q0 -3 -1 -11.5t-9 -23.5q-7 -12 -16 -21l-18 -18q-8 -8 -18.5 -13.5t-20.5 -12.5q-16 -11 -32 -20.5t-33 -18.5q-3 -2 -5.5 -3t-5.5 -1q-17 -5 -33 -9.5t-33 -5.5 q-16 -2 -32 -4.5t-32 -2.5q-7 0 -14 2.5t-14 4.5q-39 15 -72 42q-8 7 -15 15t-10 20q-2 8 -5.5 14.5t-8.5 12.5q-4 5 -4 10t4 11q28 44 91 45q7 1 16.5 -2.5t20.5 -9.5q7 -5 9 -11.5t0 -11.5q-4 -7 -12 -10t-16 1q-2 1 -4.5 2.5t-5.5 3.5q-12 9 -22 -2q-4 -4 -7.5 -8 t-7.5 -9q-8 -9 -5 -21q2 -20 9 -27.5t27 -12.5q12 -3 24 -4t25 2q9 2 18 6.5l17 8.5q5 2 9 4t9 4q24 10 35 29q5 8 11.5 14.5t10.5 14.5q5 12 8 25t7 26q3 12 -8 20q-18 16 -42 22q-7 2 -13.5 5.5t-13.5 6.5q-16 7 -32 13.5t-32 14.5q-39 19 -55 56l-2 6t-2 5q-3 16 -3 31 q0 4 0.5 15.5t9.5 29.5q6 11 5.5 14t-8.5 12q-22 24 -27 60q-1 9 -1 19q0 16 5.5 35t20.5 39q5 5 12 8.5l13 6.5t12.5 5.5t12.5 5.5q7 3 13 6t13 6l4 2t3 1t2 -1q23 -3 44.5 -7t44.5 -7q20 -4 39 -11t36 -17q8 -5 15 -10.5t11 -13.5q4 -6 4 -10q1 -15 -15 -14q-11 2 -19 8 t-15 14q-8 8 -16.5 12t-18.5 6q-11 2 -21.5 0.5t-21.5 -3.5q-17 -3 -33 -6.5t-31 -11.5q-17 -8 -27.5 -23.5t-10.5 -30.5v-5q1 -11 6.5 -19t16.5 -11q9 -4 18.5 -6t18.5 -4q84 -15 154 -68q21 -16 39.5 -33.5t36.5 -36.5q8 -8 12 -18.5t1 -22.5z"/>
<glyph glyph-name="dieresis" horiz-adv-x="329" unicode="" d="M153 653q0 -6 -1 -18.5t-4 -25t-8.5 -22t-14.5 -9.5q-7 0 -17 11.5t-19 26.5t-15.5 29.5t-6.5 20.5q0 2 2 11t5 19.5t6 20.5t4 13h15l10 -6t11 -5q8 -16 20.5 -31t12.5 -35zM262 594q-1 -9 -7.5 -14t-14.5 -5q-10 0 -20 14.5t-18 34t-13 38.5t-5 28v30h11 q14 -14 28.5 -28t27.5 -29l-1 -12q-2 -14 2.5 -28.5t9.5 -28.5z"/>
<glyph glyph-name="copyright" horiz-adv-x="691" unicode="" d="M413 315q-3 -7 -7 -1q-2 2 -3 3.5t-3 3.5q-7 8 -16 9.5t-19 -0.5q-9 -2 -18 -5t-18 -7q-12 -5 -17.5 -15.5t-10.5 -21.5q-2 -5 -2 -9.5t-1 -9.5q-2 -11 3.5 -18.5t10.5 -15.5q3 -5 9.5 -6t14.5 2q8 2 15 5t15 5q2 2 4 2q12 1 9 -10q-4 -12 -14 -20.5t-22 -10.5 q-8 -2 -15.5 -2.5t-14.5 4.5q-9 6 -17.5 12.5t-16.5 13.5q-14 11 -20 27q-4 14 -4 29q0 6 1.5 20t18.5 28q20 17 46 28q8 4 17.5 4.5t19.5 2.5h2q13 -5 25.5 -11t23.5 -16q9 -9 4 -20zM473 283q5 14 3.5 27t-6.5 25q-4 11 -8.5 20.5t-9.5 19.5q-12 29 -45 29q-10 0 -19.5 1 t-18.5 5q-3 1 -8 1q-13 -1 -25.5 -2t-24.5 -3q-37 -7 -73 -23q-6 -2 -9 -5q-5 -8 -11 -16t-11 -16q-5 -7 -8 -14t-6 -15q-2 -8 -3 -15l-2 -14q-1 -5 -1.5 -10t1.5 -10q2 -10 5 -19t5 -18q2 -2 3 -5t3 -5q7 -10 13 -21t16 -19q4 -4 7.5 -8t7.5 -8q12 -15 26 -19t28 -7t28 -3 q5 1 10 1t10 1q18 2 33.5 10.5t31.5 16.5q5 3 9 8.5t9 10.5q5 7 10 14.5t10 15.5q4 4 4 7q-1 8 2 14t6 11q10 15 7 29q-1 4 1 8zM527 320q2 -18 2 -35.5t-4 -35.5v-4q4 -14 -0.5 -25.5t-7.5 -23.5q-3 -19 -15 -32q-3 -4 -5 -14q0 -10 -7 -13q-7 -4 -11 -9t-8 -11 q-8 -12 -19 -15q-6 -1 -14 -7q-12 -9 -25.5 -12.5t-27.5 -5.5q-8 -1 -15 -1.5t-15 -2.5q-10 2 -21 3t-22 3q-16 2 -31 5.5t-30 11.5q-20 10 -38.5 21.5t-35.5 26.5q-30 28 -41 61q-5 14 -8 28t-3 29q0 4 0.5 7t1.5 7q3 16 6.5 31.5t10.5 30.5q2 6 3.5 12.5t3.5 12.5 q4 11 9.5 19.5t12.5 16.5q0 1 1 1q13 8 23.5 17.5t25.5 14.5q5 2 11.5 3t11.5 3t11 3t10 6q11 0 20 3t20 3h19.5t19.5 4q2 1 4 1q1 0 3.5 -0.5t6.5 -0.5l14 -4t15 -3q6 0 11 -2.5t10 -6.5q8 -6 16 -12.5t16 -12.5q5 -3 9 -6.5t2 -10.5q0 -4 6 -6q3 -2 6.5 -2.5t7.5 -2.5 q5 -2 8.5 -5t7.5 -8q7 -11 15 -20t16 -19q3 -4 5 -7.5t2 -8.5z"/>
<glyph glyph-name="ordfeminine" horiz-adv-x="307" unicode="" d="M193 404q-2 5 -4 9.5t0 11.5q4 11 -8 13h-3q-17 0 -28 -12q-6 -8 -11.5 -14.5t-11.5 -14.5q-2 -2 -3.5 -5t-3.5 -5q-5 -9 -8 -18.5t2 -20.5q5 -9 6.5 -17.5t-1.5 -18.5q1 -5 1 -11t2 -11q0 -3 2.5 -4t4.5 1q2 1 2.5 2t2.5 2q9 8 15.5 17.5t11.5 20.5q3 5 5.5 8.5t5.5 8.5 t5.5 9.5t4.5 9.5q3 7 5.5 13.5t5.5 12.5q4 7 0 13zM279 343q0 -5 -1 -9l-2 -8q-2 -15 -3.5 -29t-6.5 -28q-1 -3 -1 -6t-1 -6q-2 -12 -8 -22l-12 -20q-6 -11 -19 -13h-4q-5 0 -10.5 2t-9.5 8t-5 10q-5 11 -7.5 23t1.5 24q1 2 0 5t-1 6q-3 -2 -5.5 -3t-4.5 -3q-10 -11 -19 -18 q-8 -5 -16 -7l-16 -4q-11 -3 -21.5 -1t-20.5 5q-6 2 -11.5 3.5t-10.5 4.5q-21 14 -23 46q1 2 1.5 5.5t1.5 7.5l12 36q2 5 4 9t4 9q2 2 4 5t2 7t4 6q16 17 35 27q6 4 12 7.5t11 8.5q15 11 32 12q5 1 11 2t12 1h4q7 0 12 -6q7 -9 17 -13t21 -5q12 -1 17.5 -7.5t10.5 -14.5 q8 -15 9 -28.5t1 -28.5z"/>
<glyph glyph-name="guillemotleft" horiz-adv-x="379" unicode="" d="M264 293q-1 -3 -2 -5.5t-3 -5.5q-3 -3 -3 -4q-2 -8 -6.5 -13.5t-9.5 -10.5q-4 -4 -6.5 -7.5t-6.5 -6.5l-9.5 -9.5t-10.5 -8.5q-10 -7 -18.5 -15t-17.5 -16q-3 -3 -6.5 -5.5t-7.5 -4.5q-2 -2 -5 -2.5t-5 -1.5q-14 -9 -3 -20l18 -15q5 -4 9.5 -6.5t9.5 -6.5q16 -13 19 -34 q1 -2 0.5 -4.5t-0.5 -4.5q-2 -5 -6 -5h-3q-3 0 -7 1.5t-8 3.5q-11 7 -20 17q-8 8 -16.5 13t-17.5 10q-20 10 -35 23.5t-24 33.5q-3 5 -4.5 10.5t-3.5 11.5q-1 2 -1 3q0 3 3.5 6.5t6.5 7.5q1 1 5 3q17 8 33 19t31 24q9 8 18 15l18 14q15 12 23 25q2 3 5 3h2q13 -4 25 -7 l24 -6l4 -2q12 -5 12 -17zM343 251q-2 -4 -4 -9t-6 -9q-5 -8 -10.5 -15.5t-10.5 -15.5q-5 -9 -11.5 -16.5t-12.5 -15.5q-5 -5 -9 -10t-9 -10q-3 -3 0 -5q1 -2 2.5 -3.5t2.5 -3.5q3 -5 6 -9t5 -9q4 -12 17 -15l9 -3q3 -1 3.5 -3t-1.5 -4q-5 -4 -10 -7t-9 -3q-2 0 -5 1 q-18 2 -33 10.5t-27 21.5q-5 6 -11 11l-12 10l-7.5 7.5t-6.5 8.5q-3 4 -3 9q0 9 6 11q11 5 18 14t15 18q5 5 8 10.5t7 10.5q8 14 17 26.5t18 26.5q4 5 5.5 5.5t2.5 0.5q3 0 8 -2t11 -3t12 -3q5 -2 9 -4t9 -4q6 -2 5 -9q0 -2 0.5 -4.5t1.5 -6.5z"/>
<glyph glyph-name="logicalnot" horiz-adv-x="620" unicode="" d="M574 336q0 -4 0.5 -11.5t0.5 -14.5t-1 -13t-4 -7q-8 -11 -9 -23.5t-1 -25.5q0 -14 -4 -31.5t-8.5 -35.5t-8.5 -35t-4 -31q0 -5 4.5 -12.5t8.5 -14.5t5 -12t-6 -5q-14 -11 -31 -11q-11 0 -20.5 3.5t-17.5 8.5q2 21 2 44q0 8 -0.5 27t-2 50.5t-4 62.5t-2.5 59l-15 20 q-10 0 -23.5 -0.5t-21.5 4.5q-31 -8 -55 -8.5t-38 -0.5q-21 0 -49.5 1t-63.5 3.5t-66 2.5q-14 0 -23.5 -8.5t-22.5 -10.5q-13 19 -19.5 27t-8.5 10.5t-2 3t-0.5 5.5t-3.5 16.5t-11 37.5l8 14q15 -4 24.5 -6t17.5 -2.5t17.5 -0.5h24.5h191q3 0 11 2.5t11 3.5q13 -6 26 -6h7 l14 1l27 -13h28q9 11 19 20.5t18 20.5l14 -9q6 4 13 -2t13 -15.5t10.5 -19.5t7.5 -14q5 -9 9.5 -13.5t7.5 -8.5t5 -9.5t2 -17.5z"/>
<glyph glyph-name="registered" horiz-adv-x="544" unicode="" d="M287 334q0 4 -2 6q-14 7 -26 2q-28 -12 -28 -41q0 -5 0.5 -9t2.5 -6q4 -2 7.5 0.5t5.5 4.5q8 7 15 14l14 14q4 4 6.5 7.5t4.5 7.5zM357 179q10 -16 0 -28q-9 -9 -18 -9q-6 0 -12 4q-3 2 -6.5 3.5t-6.5 3.5q-15 9 -24 24q-8 14 -17 26.5t-17 26.5q-5 8 -14 11q-5 2 -5 -4 q0 -4 2 -12q4 -13 5 -25t-3 -25q-3 -8 -3 -16q-3 -19 -20 -11q-5 2 -8.5 5t-8.5 5q-7 2 -13 10q-5 6 -1 12q2 5 3 10.5t3 12.5q-2 4 -3 8t-4 7q-7 9 -7 19q0 7 3 15q2 5 3.5 9.5t1.5 9.5q2 11 3.5 22.5t2.5 22.5q0 2 -1 4.5t-2 4.5q0 1 -0.5 1.5t-0.5 1.5l2 1q2 -1 4 -1 q8 -4 15 5q21 24 51 24h2q8 0 15 -2l14 -4q11 -5 17 -15q4 -8 7 -12q1 -3 1 -11q-2 -12 -10 -20l-16 -16q-3 -3 -7 -6l-8 -6t1 -6q4 -2 7.5 -4.5t8.5 -4.5q8 -4 14.5 -9t11.5 -14q2 -5 6.5 -8.5t9.5 -7.5q6 -7 11 -14t9 -15q1 -1 1 -1.5t1 -1.5zM427 199v8.5t-2 7.5 q-8 14 -2 26q2 8 -1 15q-2 4 -3 7t-3 6q-4 7 -3 14q4 14 -9 27q-4 4 -4 10q0 11 -9 12l-3 3q-2 5 -4 8.5t-4 7.5q-4 9 -11 17q-5 7 -11.5 13t-9.5 15q0 2 -7 4q-1 1 -2 0.5t-3 0.5q-22 7 -47 7h-11q-5 -1 -9.5 -1.5t-9.5 -0.5q-8 -2 -15 -2.5t-14 -3.5q-21 -7 -43 -18 q-5 -2 -7 -4q-11 -8 -19 -18t-16 -21q-6 -6 -8 -14t-5 -16t-3 -15q1 -6 0 -12l-2 -12q-3 -12 0 -24q1 -3 0.5 -6.5t-0.5 -7.5v-6.5t1 -6.5q0 -5 0.5 -8.5t0.5 -7.5q1 -9 1 -18.5t2 -18.5q0 -4 1.5 -7.5t3.5 -7.5q2 -3 3.5 -5.5t3.5 -6.5q3 -9 11 -13l33 -21l24 -12t26 -9 q12 -3 24.5 -4t25.5 -2q9 1 18 1.5t18 2.5q25 5 45 19q5 3 9.5 5.5t8.5 6.5l16 18t12 23q3 11 6.5 22t5.5 23zM468 212q-2 -11 -1 -16q1 -7 -1 -12.5t-4 -10.5q-3 -5 -1 -8q4 -11 -4 -17q-6 -4 -4 -12q0 -6 -5 -11t-6 -9q-5 -14 -16 -18q-9 -5 -12 -15q-2 -7 -6.5 -13 t-12.5 -8q-4 -2 -6 -4q-5 -5 -10.5 -8t-12.5 -4q-6 -2 -11.5 -4t-11.5 -4q-15 -5 -32 -5q-2 0 -11.5 0.5t-26.5 2.5q-12 2 -24.5 3t-24.5 3q-16 4 -31.5 8.5t-29.5 12.5q-26 14 -55 33q-17 11 -28 26t-15 35q-2 7 -3 13.5t-2 13.5q-1 5 -1 9v9q2 26 6 52t9 52q3 12 6.5 24 t7.5 24q5 13 15 22q5 4 9 7t9 8q3 3 6 7t6 7q17 17 38 23q5 1 15 5q5 4 11.5 4.5t12.5 2.5q6 1 12 1t11 2q14 2 28 2q3 0 13.5 -0.5t27.5 -5.5q6 -2 12 -5t12 -5q6 -3 11.5 -6t12.5 -2q3 0 4 -1q9 -11 19.5 -19.5t20.5 -17.5q5 -4 10 -7l10 -6q10 -5 13 -13l3.5 -7l3.5 -7 q2 -3 2.5 -6.5t2.5 -7.5q2 -5 2.5 -11t2.5 -12q0 -3 1 -6.5t1 -6.5q-1 -12 9 -22q8 -8 6 -20q-1 -10 4 -18q4 -5 4 -10.5t-1 -10.5z"/>
<glyph glyph-name="macron" horiz-adv-x="282" unicode="" d="M242 632l-3 -4q-11 0 -20.5 2t-19.5 4l-37 -10l-4 1l-8 -3q-14 4 -27.5 5t-26.5 6l-10 -2q-4 4 -11 7q-5 6 -15 6q-9 0 -16 -4q0 13 -3 24.5t-6 23.5l29 7q20 -11 41 -11q1 0 12 0.5t33 0.5q14 0 30.5 -2.5t28.5 0.5q5 -5 9 -4t10 1q2 0 4.5 -1t4.5 -1q0 -11 2.5 -22.5 t2.5 -23.5z"/>
<glyph glyph-name="degree" horiz-adv-x="950" unicode="" d="M365 683q0 1 -0.5 1.5t-0.5 1.5q-2 6 -2 10q0 2 -1 2q-6 0 -11.5 -1.5t-8.5 -6.5q-2 -2 -2.5 -4t-2.5 -4q-4 -6 -5 -13.5t-3 -15.5q2 -6 2 -11q1 -3 4 -3q5 1 8.5 2t5.5 5q2 2 4.5 4t4.5 4q1 2 2 3t2 3q2 5 2.5 11t1.5 12zM393 684q-1 -8 -1.5 -14.5t-1.5 -14.5 q-1 -2 -1 -3t-1 -2q-1 -4 -5 -12q-1 -1 -1 -1.5t-1 -1.5l-7 -7t-8 -5q-2 -2 -3 -2q-6 -8 -12.5 -9t-11.5 -1h-6q-1 0 -1.5 0.5t-1.5 0.5q-7 0 -17 4l-6 3q-20 12 -20 31q0 24 14 44q2 3 8 7q11 11 24 11q5 0 10 -2q4 -1 7 -1t6 -2q4 0 7 2q4 2 8 2q3 0 5 -1l3 -3q2 -2 3 -2 q5 -2 9 -10q3 -3 3 -7q0 -2 -1 -4z"/>
<glyph glyph-name="plusminus" horiz-adv-x="457" unicode="" d="M395 63q-6 -6 -11 -7q-29 -8 -56.5 -15t-56.5 -14q-14 -3 -29 -4.5t-29 -4.5t-27 -6t-27 -7q-14 -3 -27 -7q-25 8 -34 17t-7.5 17.5t12.5 17t25.5 15.5t31 12.5t29.5 8.5q26 6 53 12t53 13q15 5 29 5q1 0 9.5 -0.5t23.5 -8.5l1 -1q11 -1 19 -6.5t16 -12.5q7 -5 7.5 -12 t-5.5 -12zM405 270q-2 -5 -5 -10t-11 -4q-5 1 -10 0.5t-10 -0.5l-1 2q-14 -2 -28 -3.5t-28 -3.5q-11 -2 -13 -5t-3 -14q-2 -19 -7 -37t-13 -36q-3 -7 -13 -11q-27 -8 -49 -21q-6 -4 -11 -4q-1 0 -5 0.5t-11 3.5q-11 5 -18 12.5t-13 17.5q-8 15 -10.5 31t-2.5 33 q0 12 -2 13.5t-14 -0.5q-5 -2 -11 -2.5t-12 -1.5q-13 -2 -23 3t-18 14q-4 5 -7.5 8.5t-7.5 8.5q-1 2 -1 3q0 2 3 2q16 2 31.5 5t32.5 5q4 1 8 1t9 1q11 2 13.5 4.5t2.5 13.5q1 13 1.5 25t0.5 25q1 4 1 8t1 8q0 7 -1.5 12.5t-7.5 9.5t1 9q7 3 14 3q5 0 9 -2q11 -5 23 -9 l24 -8q9 -5 19 -2q14 3 23 -10q9 -14 18 -26.5t18 -26.5q1 -2 1.5 -2.5t1.5 -2.5q4 -10 6 -11.5t13 0.5q16 3 31 3q4 0 15.5 -0.5t30.5 -11.5q2 -2 4 -2.5t4 -2.5l5.5 -5.5t2.5 -4.5t-1 -5z"/>
<glyph glyph-name="acute" horiz-adv-x="332" unicode="" d="M250 582q-2 -2 -5 -2t-5 -3q-5 -9 -21.5 -16t-26.5 -15q-21 -17 -45.5 -33.5t-52.5 -32.5q-7 4 -7 7l6 11q5 11 12.5 17t16.5 16q7 8 16.5 17.5l17.5 17.5q5 3 7.5 5.5t7.5 5.5q5 5 9 12t15 10q3 1 7.5 0t8.5 -1t7.5 2t5.5 3.5t3 1.5t2.5 -0.5t4.5 -5.5q-1 -5 3.5 -7 t8.5 -3q1 -2 2 -3.5t2 -3.5z"/>
<glyph glyph-name="mu" horiz-adv-x="452" unicode="" d="M422 146q-1 -2 -1 -3.5t-1 -3.5q-9 -13 -26 -8q-10 3 -19 6.5t-19 7.5q-8 5 -13.5 12t-10.5 15q-3 5 -6 11t-6 11q-2 3 -5 5l-6 -6q-2 -4 -3.5 -8.5t-3.5 -8.5q-10 -17 -22 -26q-8 -7 -15 -14.5t-15 -15.5q-10 -10 -22 -11.5t-25 1.5q-6 2 -11.5 3t-11.5 2q-7 2 -9 0.5 t-3 -9.5l-2 -8t0 -9q0 -14 -3 -29q-2 -9 -3 -18.5t-2 -19.5q0 -5 -1.5 -6.5l-4.5 -4.5q-10 -11 -22.5 -13.5t-26.5 -3.5q-5 0 -8.5 1.5t-8.5 3.5q-2 0 -4 1l-4 2q-2 2 -4 3t-3 3q-5 8 -13 8q-5 0 -10 7q-10 12 -9 26v18q2 19 3 37.5t3 36.5q3 27 6.5 53.5t7.5 53.5 q5 32 9.5 62.5t8.5 62.5q2 11 2 22t1 22q2 13 2.5 25t2.5 25q1 4 1 7.5t-4 6.5q-7 6 -2 11t10 3q9 -4 20 2q3 1 8 1l26 -8t24 -12q14 -10 19 -23.5t10 -27.5q2 -5 0 -15q-3 -12 -3 -25q0 -5 0.5 -12t0.5 -17v-14q0 -1 0.5 -2t0.5 -2q-1 -8 -1 -16t1.5 -19.5t4.5 -26.5 q2 -11 5 -21.5t5 -21.5t4.5 -22t4.5 -22q2 -6 4 -11.5t4 -10.5q1 -7 9 -5q5 2 10 4.5t8 6.5q11 11 20 22.5t19 23.5q4 5 5 11l15 39q2 6 3.5 12t1.5 12q2 24 6 48t10 47q5 14 7.5 28.5t0.5 29.5q0 3 3 6q4 3 10 3l39 -3q9 -2 5 -10q-4 -10 -4.5 -20t-2.5 -21 q-2 -16 -4.5 -31.5t-6.5 -31.5q-2 -6 -4.5 -12t-4.5 -12q-3 -11 -5.5 -22t-4.5 -22q-2 -13 -4.5 -25.5t-5.5 -25.5q-2 -8 -2 -15q0 -10 4.5 -21.5t15.5 -25.5q1 -2 5 -4q9 -5 19 -9t21 0q2 1 3 0.5t3 -0.5z"/>
<glyph glyph-name="paragraph" horiz-adv-x="628" unicode="" d="M470 265q0 -23 -1 -46.5t-1 -46.5q-1 -10 -0.5 -19.5t0.5 -18.5q0 -13 -0.5 -25.5t-6.5 -24.5q-5 -14 -7.5 -27.5t-3.5 -27.5l-2 -10t-6 -10q-6 -5 -13 -6.5t-15 -2.5q-5 -1 -7.5 3.5t-3.5 9.5q0 6 -0.5 12.5t-2.5 11.5q-9 24 -11.5 48.5t-2.5 49.5q0 27 -3 54 q-2 16 -2 33q0 25 4 52q4 26 6.5 53t5.5 54q2 9 4.5 18t4.5 17q3 10 6 19l6 18q1 2 1 4t1 4q2 14 -1.5 19.5t-17.5 7.5q-21 2 -41 6t-40 9q-3 0 -5.5 -0.5t-5.5 -0.5q2 -3 6 -7q4 -3 8 -11l6 -18t8 -17q5 -11 5.5 -21t0.5 -21q-1 -10 -0.5 -19t0.5 -18q2 -14 0 -28 q-1 -8 -2 -15.5t-2 -15.5q-2 -19 -2 -38t-1 -38v-13q0 -17 2 -37t4 -44q2 -21 2 -42.5t-1 -43.5q0 -20 -9 -35q-4 -8 -9.5 -14.5t-13.5 -9.5q-6 -1 -8 -8q-4 -6 -6 -7.5t-6 -1.5h-4q-5 1 -10.5 1t-10.5 1q-2 1 -5 1.5t-5 2.5q-5 4 -10 7.5t-10 8.5q-3 3 -5 9q-8 26 -9.5 52 t-1.5 52q1 4 0.5 8t-0.5 8h1q-2 23 -2.5 44.5t-2.5 44.5q-1 14 -1 27q0 20 2.5 46.5t7.5 59.5q2 22 5.5 43t3.5 43q0 11 2 21t3 21q1 2 1 5t1 5q0 9 -3 12t-12 1q-5 -1 -10 -2.5t-10 -3.5q-8 -3 -15.5 -6.5t-15.5 -5.5t-13 -6t-10 -9q-14 -14 -26 -29q-3 -5 -5.5 -9t-4.5 -9 t-4.5 -10t-5.5 -10q-3 -7 3 -10q9 -5 18.5 -10t19.5 -9q11 -4 22 -6.5t22 -6.5q10 -3 19 -9q10 -5 6 -16q-2 -5 -5 -6t-8 0q-5 0 -15 2q-11 3 -21.5 6.5t-21.5 6.5q-22 7 -44 21q-24 17 -26.5 32.5t-2.5 21.5q0 20 12 38q4 6 8 10.5t9 9.5q9 9 17.5 18t17.5 18q5 5 11 8 q16 6 31 12.5t31 11.5q6 2 12.5 2.5t12.5 0.5q14 -2 26.5 -4t25.5 -4q21 -3 42.5 -6t43.5 -5q11 -2 18.5 -6.5t15.5 -9.5q5 -3 10 -5.5t11 -2.5q5 0 10.5 -3t10.5 -5q2 -1 2.5 -3.5t-0.5 -4.5q-1 -6 -1 -13q0 -11 4.5 -24.5t7.5 -30.5q2 -14 2 -25v-8q-2 -15 -2 -30 q0 -24 5 -48q2 -11 3 -23t1 -23z"/>
<glyph glyph-name="periodcentered" horiz-adv-x="119" unicode="" d="M108 318q0 -4 -1.5 -15.5t-4.5 -23.5t-7 -21t-8 -8q-3 -5 -10 -10t-12 -5t-12 6.5t-13.5 15t-11 17t-4.5 13.5q0 6 5.5 17.5t13 23t16.5 19.5t16 8q14 0 23.5 -11.5t9.5 -25.5z"/>
<glyph glyph-name="cedilla" horiz-adv-x="192" unicode="" d="M142 44q-2 -5 -4.5 -8.5t-0.5 -8.5q-8 1 -13 -9t-10 -15q-3 -5 -9 -17.5t-14.5 -24.5t-17.5 -20.5t-16 -5.5l-9 -4l-6 4q6 7 11 20.5t9.5 29.5t7 31t2.5 24l-5 10q-1 3 -1 9q0 4 4 7t7 3q5 0 14 -2.5t19 -6.5t18.5 -8.5t13.5 -7.5z"/>
<glyph glyph-name="ordmasculine" horiz-adv-x="291" unicode="" d="M201 481q-2 7 -4 13t-4 13q-3 13 -4.5 26t2.5 26q1 8 -6 6q-10 -2 -18.5 -6.5t-14.5 -12.5l-16 -24t-16 -23q-5 -7 -7 -13.5t-4 -14.5q-2 -14 7.5 -26t22.5 -12q5 0 7 1q17 5 29.5 14t23.5 22q4 6 2 11zM239 464q-5 -8 -10 -14.5t-11 -14.5q-7 -9 -15.5 -15.5 t-18.5 -11.5q-13 -7 -26 -7q-2 0 -10 0.5t-22 6.5q-30 12 -45.5 36.5t-15.5 57.5q0 12 4.5 25.5t12.5 26.5q4 9 11 17q6 6 10 8q13 6 26 10.5t28 4.5q11 -2 21.5 -4t21.5 -4q7 -2 13 -6q7 -6 -2 -11q-4 -2 -4 -4.5t1 -6.5q9 -29 28 -52q9 -12 9 -23q0 -10 -6 -19z"/>
<glyph glyph-name="guillemotright" horiz-adv-x="379" unicode="" d="M197 124q-3 -5 -6.5 -8.5l-7.5 -7.5q-5 -6 -10.5 -11.5l-10.5 -10.5q-24 -29 -58 -36q-3 -1 -6 -1q-4 0 -9 2.5t-10 6.5q-5 5 2 8q2 1 4.5 1t4.5 2q13 3 16 16q1 5 4 9t6 9q1 2 2.5 3.5t2.5 3.5q0 5 -1 6q-5 5 -9 9.5t-9 9.5q-7 8 -14 15t-12 16q-11 16 -23 29 q-3 5 -5.5 9.5t-4.5 8.5q2 9 1 11q-1 6 5 10q5 2 8.5 4t8.5 4q6 2 12 3.5t12 3.5t8.5 2t6.5 -5q10 -13 19.5 -25.5t18.5 -25.5q4 -5 7 -10.5t8 -10.5q8 -8 16 -16.5t19 -13.5q5 -2 6.5 -8.5t-2.5 -11.5zM332 180q-2 -12 -6 -22q-8 -20 -22.5 -34.5t-33.5 -25.5 q-20 -9 -33 -24q-5 -5 -9.5 -9t-9.5 -9q-9 -6 -18 -6q-6 0 -6 5q-2 6 -1 8q1 20 17 36q5 4 9.5 7t9.5 7t8.5 7.5t8.5 7.5q11 13 -4 20q-2 1 -5 1.5t-5 2.5q-4 2 -7.5 4t-6.5 5q-10 8 -19 15.5t-19 13.5q-11 7 -21 17q-4 3 -6.5 6.5t-6.5 6.5q-5 5 -10 10.5t-7 13.5 q0 2 -1.5 2.5t-2.5 1.5q-2 4 -6 10q0 13 12 18q2 2 4 2l48 15h2q3 0 5 -3q5 -7 11 -12.5t13 -10.5q10 -7 19.5 -13.5t18.5 -13.5q16 -12 32 -22t34 -18q4 -2 5 -3q3 -4 6.5 -7t3.5 -6q0 -2 -1 -4z"/>
<glyph glyph-name="questiondown" horiz-adv-x="406" unicode="" d="M377 51q-1 -3 -3.5 -5.5t-4.5 -5.5q-5 -8 -9 -15.5t-9 -13.5q-11 -16 -26 -28q-9 -8 -18.5 -15t-18.5 -14l-10 -6t-10 -5q-17 -7 -34.5 -14t-35.5 -11q-6 -1 -12 -1.5t-12 -0.5h-8q-11 0 -23 2t-25 12q-21 14 -38 37q-9 11 -17.5 23.5t-15.5 26.5q-6 11 -7.5 19t-1.5 13 q0 8 2 16q0 2 0.5 3.5t0.5 3.5q-3 15 0.5 27.5t8.5 26.5q2 8 5 14.5t6 13.5q6 15 16 25t20 21q9 11 17.5 22.5t19.5 20.5l5 5t6 5q14 11 21 28l6 12q9 15 9 30q0 11 3 17q5 10 3 24t0 26.5t2 26.5q0 4 0.5 8t0.5 8q1 9 3 12t10 5q2 1 4.5 1t4.5 2q8 6 17 6t17 -2 q19 -5 34 -18t28 -30q7 -9 7 -23v-7q-3 -20 -4.5 -41t-4.5 -41q-2 -14 -6.5 -28t-7.5 -28q-8 -29 -20.5 -54.5t-27.5 -49.5q-7 -9 -18 -19q-16 -16 -32.5 -31t-33.5 -31q-8 -8 -15 -16t-9 -22q-2 -8 -0.5 -10.5t8.5 -4.5q14 -6 28 -5t28 4q23 5 43 15t40 24q5 3 9 8 q5 7 10.5 13.5t10.5 14.5t11 11t13 6q4 0 7 -3q7 -7 14 -13t11 -17q1 -3 4.5 -5.5t3.5 -4.5zM303 587q0 -11 -1 -21t-3 -21q-2 -5 -6 -6.5t-9 -2.5q-7 -1 -14 -1l-14 1q-14 2 -28 3q-8 0 -14 3q-15 6 -15 28v5t0.5 4t0.5 4q-3 16 8 26q1 1 4 6q2 10 7.5 14.5t13.5 7.5 q5 2 10 3.5t10 3.5h2q18 0 32.5 -15.5t15.5 -41.5z"/>
<glyph glyph-name="Agrave" horiz-adv-x="515" unicode="" d="M276 385l1 -1zM341 383q-3 25 -4 55.5t-1 55.5q0 12 0.5 37t0.5 59t-1 55q-5 -19 -12 -51.5t-15 -69t-15.5 -72.5t-13.5 -61l-2 -7h25q13 0 19.5 1t18.5 -2zM267 709q6 32 24 52h-2q14 14 29 17q15 4 30.5 0.5t28 -14.5t19 -28.5t6.5 -38.5v-6q-7 -46 -10.5 -91.5 t-3.5 -89.5q0 -131 31 -260.5t88 -265.5q-35 15 -60.5 48t-44.5 78t-31.5 98t-20.5 109l-62 13l-20 1q-16 -68 -32 -126.5t-33 -100.5q-7 -19 -18.5 -33.5t-24.5 -28.5h1l-18 -20q-14 -12 -28 -17t-25 -5q-28 0 -47 20t-19 49q0 12 4.5 25.5t15.5 26.5l1 1l8 6q8 8 19 20 t18 23q5 8 6.5 12t3.5 7q4 8 7 14.5t6 8.5q16 38 29.5 70t27.5 71q-72 12 -136 12h-47.5t-43.5 9q31 15 67.5 21t75.5 6q26 0 49.5 -1.5t49.5 -4.5q23 68 37.5 133.5t34.5 135.5q-1 9 4.5 21t5.5 23zM275 877q-9 11 -16 16.5t-12 17.5l-7 11q0 2 7 7q29 -14 53.5 -32 t45.5 -35q10 -8 26 -15t21 -16q2 -2 5 -2.5t5 -2.5q-2 -2 -2 -3t-2 -3q-4 -1 -8 -3t-4 -7q-3 -5 -4 -5.5t-2 -0.5q-2 0 -4 1.5t-5 3.5t-7 2t-8 -1t-9 0q-9 4 -15 11z"/>
<glyph glyph-name="Aacute" horiz-adv-x="529" unicode="" d="M276 385l1 -1zM341 383q-3 25 -4 55.5t-1 55.5q0 12 0.5 37t0.5 59t-1 55q-5 -19 -12 -51.5t-15 -69t-15.5 -72.5t-13.5 -61l-2 -7h25q13 0 19.5 1t18.5 -2zM267 709q6 32 24 52h-2q14 14 29 17q15 4 30.5 0.5t28 -14.5t19 -28.5t6.5 -38.5v-6q-7 -46 -10.5 -91.5 t-3.5 -89.5q0 -131 31 -260.5t88 -265.5q-35 15 -60.5 48t-44.5 78t-31.5 98t-20.5 109l-62 13l-20 1q-16 -68 -32 -126.5t-33 -100.5q-7 -19 -18.5 -33.5t-24.5 -28.5h1l-18 -20q-14 -12 -28 -17t-25 -5q-28 0 -47 20t-19 49q0 12 4.5 25.5t15.5 26.5l1 1l8 6q8 8 19 20 t18 23q5 8 6.5 12t3.5 7q4 8 7 14.5t6 8.5q16 38 29.5 70t27.5 71q-72 12 -136 12h-47.5t-43.5 9q31 15 67.5 21t75.5 6q26 0 49.5 -1.5t49.5 -4.5q23 68 37.5 133.5t34.5 135.5q-1 9 4.5 21t5.5 23zM380 892q-2 -2 -5 -2t-5 -3q-5 -9 -21.5 -16t-26.5 -15 q-21 -17 -45.5 -33.5t-52.5 -32.5q-7 4 -7 7l6 11q5 11 12.5 17t16.5 16q7 8 16.5 17.5l17.5 17.5q5 3 7.5 5.5t7.5 5.5q5 5 9 12t15 10q3 1 7.5 0t8.5 -1t7.5 2t5.5 3.5t3 1.5t2.5 -0.5t4.5 -5.5q-1 -5 3.5 -7t8.5 -3q0 -3 2 -5z"/>
<glyph glyph-name="Acircumflex" horiz-adv-x="529" unicode="" d="M276 385l1 -1zM341 383q-3 25 -4 55.5t-1 55.5q0 12 0.5 37t0.5 59t-1 55q-5 -19 -12 -51.5t-15 -69t-15.5 -72.5t-13.5 -61l-2 -7h25q13 0 19.5 1t18.5 -2zM267 709q6 32 24 52h-2q14 14 29 17q15 4 30.5 0.5t28 -14.5t19 -28.5t6.5 -38.5v-6q-7 -46 -10.5 -91.5 t-3.5 -89.5q0 -131 31 -260.5t88 -265.5q-35 15 -60.5 48t-44.5 78t-31.5 98t-20.5 109l-62 13l-20 1q-16 -68 -32 -126.5t-33 -100.5q-7 -19 -18.5 -33.5t-24.5 -28.5h1l-18 -20q-14 -12 -28 -17t-25 -5q-28 0 -47 20t-19 49q0 12 4.5 25.5t15.5 26.5l1 1l8 6q8 8 19 20 t18 23q5 8 6.5 12t3.5 7q4 8 7 14.5t6 8.5q16 38 29.5 70t27.5 71q-72 12 -136 12h-47.5t-43.5 9q31 15 67.5 21t75.5 6q26 0 49.5 -1.5t49.5 -4.5q23 68 37.5 133.5t34.5 135.5q-1 9 4.5 21t5.5 23zM412 807q-2 -2 -5 -3t-6 -3q-10 -2 -15 -2q-1 0 -4 0.5t-17 2.5 q0 1 -5.5 10.5t-13 22t-16 25t-15.5 21.5h-4q-11 -13 -17.5 -22t-13 -17t-14 -15.5t-18.5 -16.5q-5 -5 -20.5 -6.5t-24.5 -3.5v1l10 12q5 5 8.5 9.5t5.5 6.5q12 13 21 22.5t17 19t16 20.5t19 27q3 0 5 0.5t7 0.5q4 1 7 1q5 0 7.5 -4t11.5 -7q2 -8 10 -15t13 -15 q8 -13 15 -22.5t16 -22.5q2 -2 6 -9t14 -18z"/>
<glyph glyph-name="Atilde" horiz-adv-x="529" unicode="" d="M276 385l1 -1zM341 383q-3 25 -4 55.5t-1 55.5q0 12 0.5 37t0.5 59t-1 55q-5 -19 -12 -51.5t-15 -69t-15.5 -72.5t-13.5 -61l-2 -7h25q13 0 19.5 1t18.5 -2zM267 709q6 32 24 52h-2q14 14 29 17q15 4 30.5 0.5t28 -14.5t19 -28.5t6.5 -38.5v-6q-7 -46 -10.5 -91.5 t-3.5 -89.5q0 -131 31 -260.5t88 -265.5q-35 15 -60.5 48t-44.5 78t-31.5 98t-20.5 109l-62 13l-20 1q-16 -68 -32 -126.5t-33 -100.5q-7 -19 -18.5 -33.5t-24.5 -28.5h1l-18 -20q-14 -12 -28 -17t-25 -5q-28 0 -47 20t-19 49q0 12 4.5 25.5t15.5 26.5l1 1l8 6q8 8 19 20 t18 23q5 8 6.5 12t3.5 7q4 8 7 14.5t6 8.5q16 38 29.5 70t27.5 71q-72 12 -136 12h-47.5t-43.5 9q31 15 67.5 21t75.5 6q26 0 49.5 -1.5t49.5 -4.5q23 68 37.5 133.5t34.5 135.5q-1 9 4.5 21t5.5 23zM466 877q1 -4 1 -8q0 -9 -6.5 -18.5t-18.5 -12.5q-6 -2 -11.5 -3.5 t-9.5 -7.5q-1 -2 -2 -4.5t-2 -4.5q-5 -12 -17 -12h-5q-14 2 -28 6.5t-28 10.5q-12 6 -21.5 13t-23.5 10q-15 3 -30 3q-12 0 -31.5 -3t-42.5 -17q-5 -2 -8.5 -4.5t-8.5 -4.5t-9.5 -2t-8.5 3q-6 4 -6 10t5 12.5t11 11t9 7.5q30 25 68 33l24 6q8 -2 16 -3.5t16 -3.5 q30 -11 56 -22q11 -5 23 -8t26 -1q12 2 23.5 4.5t22.5 10.5q2 2 6 4q9 6 11 -5z"/>
<glyph glyph-name="Adieresis" horiz-adv-x="498" unicode="" d="M276 385l1 -1zM341 383q-3 25 -4 61q-1 24 -1 50v24q0 38 1 72q0 34 -1 55q-5 -19 -12 -51t-15 -70q-7 -36 -15 -72t-14 -61l-2 -7h25q13 0 19 1t19 -2zM267 709q6 32 24 52h-2q14 14 29 17q14 4 30 0t28 -14q12 -12 20 -30q6 -16 6 -37v-6q-6 -45 -10 -91t-4 -90 q0 -130 31 -260t88 -266q-35 15 -61 48t-44 78q-20 45 -32 98t-20 109l-62 13l-20 1q-16 -69 -32 -127t-33 -100q-7 -20 -19 -34l-24 -28h1l-18 -20q-14 -12 -28 -17t-25 -5q-28 0 -47 20t-19 49q0 11 4 25t16 27l1 1l8 6q8 8 19 20t18 23l6 12t4 7l7 14t6 9q15 38 29 70 t28 71q-72 12 -136 12h-48t-43 9q31 15 67 21t76 6q26 0 50 -2t49 -4q23 68 37 134t35 135q-1 9 5 21t5 23zM285 844q3 -6 1 -12t-5 -12q-5 -11 -16 -9q-17 5 -33 11t-25 25q-2 3 -2 6t-1 5q1 13 7 21t15 13q13 6 29 9h1q3 0 6 -3q3 -4 5 -8q5 -10 9 -22t9 -24zM423 840 q-1 -1 -3 -7q-1 -2 -2 -3t-1 -3q0 -9 -5 -13t-12 -6q-6 -2 -12 -2q-10 0 -17 6q-5 5 -11 10t-10 10q-6 9 -6 19q0 7 3 14q8 17 22 21q9 2 17 4l16 4l2 1v-1q4 -4 9 -8t6 -12q0 -8 1 -16t3 -18z"/>
<glyph glyph-name="Aring" horiz-adv-x="523" unicode="" d="M276 385l1 -1zM341 383q-3 25 -4 61q-1 24 -1 50v24q0 38 1 72q0 34 -1 55q-5 -19 -12 -51t-15 -70q-7 -36 -15 -72t-14 -61l-2 -7h25q13 0 19 1t19 -2zM267 709q6 32 24 52h-2q14 14 29 17q14 4 30 0t28 -14q12 -12 20 -30q6 -16 6 -37v-6q-6 -45 -10 -91t-4 -90 q0 -130 31 -260t88 -266q-35 15 -61 48t-44 78q-20 45 -32 98t-20 109l-62 13l-20 1q-16 -69 -32 -127t-33 -100q-7 -20 -19 -34l-24 -28h1l-18 -20q-14 -12 -28 -17t-25 -5q-28 0 -47 20t-19 49q0 11 4 25t16 27l1 1l8 6q8 8 19 20t18 23l6 12t4 7l7 14t6 9q15 38 29 70 t28 71q-72 12 -136 12h-48t-43 9q31 15 67 21t76 6q26 0 50 -2t49 -4q23 68 37 134t35 135q-1 9 5 21t5 23zM356 883v1l-1 2q-2 6 -2 10q0 2 -1 2q-6 0 -12 -2t-8 -6q-2 -2 -2 -4t-3 -4q-4 -6 -5 -14t-3 -15q2 -6 2 -11q1 -3 4 -3q5 1 9 2t5 5q3 2 5 4l4 4q1 2 2 3t2 3 q2 5 2 11t2 12zM384 884q-2 -8 -2 -14t-1 -15q-1 -2 -1 -3t-1 -2q-1 -4 -5 -12l-1 -2l-1 -1l-7 -7t-8 -5q-2 -2 -3 -2q-6 -7 -14 -9q-5 -1 -10 -1h-6l-2 1h-1q-7 0 -17 4l-6 3q-20 12 -20 31q0 24 14 44q2 3 8 7q11 11 24 11q5 0 10 -2q4 -1 7 -1t6 -2q4 0 7 2q4 2 8 2 q3 0 5 -1l3 -3q2 -2 3 -2q5 -2 9 -10q3 -3 3 -7q0 -2 -1 -4z"/>
<glyph glyph-name="AE" horiz-adv-x="910" unicode="" d="M399 416q-3 16 -3 33q0 3 0.5 14t0.5 35q0 13 -0.5 30l-1 34t-0.5 33t2 27q1 6 1 12q0 13 -6 23.5t-16 16.5t-20 6.5t-12 -3.5q-5 -19 -13 -51t-17.5 -68t-18.5 -71.5t-15 -60.5l-2 -7h25q8 0 13 0.5t10 0.5q1 0 12 -0.5t23.5 -1t24 -1t13.5 -1.5zM267 709q3 17 9 30 t13 22q14 14 29 17q10 2 15 2q16 0 31 -8t25 -24q13 22 42 34q76 -6 152.5 -17.5t149.5 -32.5q-27 -6 -50 -7.5t-45.5 -2.5t-46 -3t-50.5 -9l-45 -11q17 -57 26 -128.5t9 -156.5q7 -1 13.5 -1h12.5h9t8 1q30 -2 60.5 -7t56.5 -16q-10 -3 -28 -6.5t-40 -7t-46 -7.5t-46 -7 q-2 -85 -11.5 -147.5t-26.5 -118.5q22 -2 37.5 -5.5t44.5 -7.5q6 0 22.5 -1.5t37 -2.5t42.5 -2t40 -1h24.5t14.5 2q-24 -41 -52.5 -53.5t-58.5 -12.5q-23 0 -44.5 -5t-42.5 -11q-18 -5 -28.5 -8t-16.5 -5t-10 -2.5t-10 -0.5h-11q-4 0 -8.5 0.5t-10.5 0.5q-5 -1 -9 -1.5 t-8 -0.5q-30 0 -42.5 17.5t-12.5 39.5q0 66 5.5 127.5t5.5 110.5v19t-0.5 25t-1 24t-1.5 17l-131 6q-8 -34 -16 -71t-16 -72.5t-16.5 -66.5t-16.5 -52q-7 -19 -18.5 -33.5t-23.5 -28.5l-18 -20q-14 -12 -28 -17t-25 -5q-28 0 -47 20t-19 49q0 12 4.5 25.5t15.5 26.5l1 1l8 6 q8 8 19 20t18 23q5 8 6.5 12t3.5 7q4 8 7 14.5t6 8.5q8 19 15 41.5t14 46t14 46t14 42.5q-25 7 -44 10t-35.5 5t-33 5t-36.5 9q12 6 23 12.5t35 6.5h7q26 0 49.5 -1.5t49.5 -4.5q11 34 20 61.5t17.5 54.5t16.5 55.5t18 64.5q0 9 5 20.5t5 21.5z"/>
<glyph glyph-name="Ccedilla" horiz-adv-x="506" unicode="" d="M95 526q6 24 11.5 39t13 27t16 23.5t20.5 28.5q29 16 60 33.5t64 17.5q22 0 42 -10q25 -12 36.5 -38t14.5 -55q6 -17 6 -33q-1 -18 -1.5 -29t-1 -18.5t-2 -13t-4.5 -12.5q-2 -12 -6 -21.5t-12 -15.5q-2 -3 -4 -9q0 4 1 7q-11 -8 -28 -8q-11 0 -24 3q26 2 34.5 9.5 t8.5 19.5q0 15 -7.5 35.5t-7.5 45.5h-1q-6 11 -8.5 20.5t-6.5 17.5q-5 -5 -12 -9t-15 -6l-7 -6q-2 -9 -10 -18l-12 -14q-8 -17 -21.5 -33.5t-19.5 -33.5l-12 -28q-3 -21 -14 -33q-10 -26 -18.5 -51t-16.5 -51q-5 -31 -8.5 -62t-9.5 -62l-9 -47v-9q0 -36 7 -72t26 -60 q11 -7 26 -7q13 0 27.5 5.5t27.5 13t24 16.5t19 15q19 16 43 50t49 76t49.5 86.5t45 82.5t36.5 63.5t24 30.5q-25 -51 -49 -107.5t-47.5 -111t-48.5 -103.5t-52 -86.5t-57 -59.5t-64 -22q-6 0 -9 1q-2 0 -4.5 -0.5t-4.5 -0.5l4 -2q14 0 23 -11q5 -5 7 -12.5t3 -15.5 q1 -5 1 -10q0 -20 -11 -41.5t-33 -34.5q-21 -14 -47.5 -14t-48.5 14q-10 6 -17 14.5t-9 19.5q-1 11 7 21.5t19 8.5q8 -1 14.5 -6t14.5 -7q14 -5 26.5 4.5t15.5 23.5q1 6 1 11q0 14 -9 29l-6 8q-7 3 -15 5q-18 6 -29 22q-20 27 -30 48q-15 21 -24.5 44.5t-11.5 46.5t-4.5 46 t-2.5 46q0 64 11.5 129.5t33.5 128.5q4 18 8.5 36t11.5 37z"/>
<glyph glyph-name="Egrave" horiz-adv-x="367" unicode="" d="M7 688q-1 5 -1 15q-4 8 -4 20q0 17 12 33.5t36 25.5q76 -6 152.5 -17.5t149.5 -32.5q-27 -6 -50 -7.5t-45.5 -2.5t-46 -3t-50.5 -9l-45 -11q17 -57 26 -135t9 -163q7 -1 13.5 -1h12.5h9t8 1q25 -5 50 -5h8.5h8.5q25 0 50 -5q-10 -3 -28 -6.5t-40 -7t-46 -7.5t-46 -7 q-2 -85 -11.5 -163.5t-26.5 -134.5q22 -2 37.5 -5.5t44.5 -7.5q6 0 22.5 -1.5t37 -2.5t42.5 -2t40 -1q14 0 24.5 0.5t14.5 2.5v-1q-24 -41 -52.5 -53.5t-58.5 -12.5q-23 0 -44.5 -5t-42.5 -11q-26 -7 -37 -10.5t-17.5 -4.5t-14 -0.5t-26.5 0.5q-5 -1 -9 -1.5t-8 -0.5 q-30 0 -46.5 17.5t-16.5 39.5q0 18 10 32v33v65q0 16 1 43t2 59t3 65t3 61t2 47t1 23q1 26 2.5 57t1.5 63q0 37 -4 72t-17 63zM155 877q-9 11 -16 16.5t-12 17.5l-7 11q0 2 7 7q29 -14 53.5 -32t45.5 -35q10 -8 26 -15t21 -16q2 -2 5 -2.5t5 -2.5q-2 -2 -2 -3t-2 -3 q-4 -1 -8 -3t-4 -7q-3 -5 -4 -5.5t-2 -0.5q-2 0 -4 1.5t-5 3.5t-7 2t-8 -1t-9 0q-9 4 -15 11z"/>
<glyph glyph-name="Eacute" horiz-adv-x="367" unicode="" d="M7 688q-1 5 -1 15q-4 8 -4 20q0 17 12 33.5t36 25.5q76 -6 152.5 -17.5t149.5 -32.5q-27 -6 -50 -7.5t-45.5 -2.5t-46 -3t-50.5 -9l-45 -11q17 -57 26 -135t9 -163q7 -1 13.5 -1h12.5h9t8 1q25 -5 50 -5h8.5h8.5q25 0 50 -5q-10 -3 -28 -6.5t-40 -7t-46 -7.5t-46 -7 q-2 -85 -11.5 -163.5t-26.5 -134.5q22 -2 37.5 -5.5t44.5 -7.5q6 0 22.5 -1.5t37 -2.5t42.5 -2t40 -1q14 0 24.5 0.5t14.5 2.5v-1q-24 -41 -52.5 -53.5t-58.5 -12.5q-23 0 -44.5 -5t-42.5 -11q-26 -7 -37 -10.5t-17.5 -4.5t-14 -0.5t-26.5 0.5q-5 -1 -9 -1.5t-8 -0.5 q-30 0 -46.5 17.5t-16.5 39.5q0 18 10 32v33v65q0 16 1 43t2 59t3 65t3 61t2 47t1 23q1 26 2.5 57t1.5 63q0 37 -4 72t-17 63zM310 902q-2 -2 -5 -2t-5 -3q-5 -9 -21.5 -16t-26.5 -15q-21 -17 -45.5 -33.5t-52.5 -32.5q-7 4 -7 7l6 11q5 11 12.5 17t16.5 16q7 8 16.5 17.5 l17.5 17.5q5 3 7.5 5.5t7.5 5.5q5 5 9 12t15 10q3 1 7.5 0t8.5 -1t7.5 2t5.5 3.5t3 1.5t2.5 -0.5t4.5 -5.5q-1 -5 3.5 -7t8.5 -3q0 -3 2 -5z"/>
<glyph glyph-name="Ecircumflex" horiz-adv-x="367" unicode="" d="M7 688q-1 5 -1 15q-4 8 -4 20q0 17 12 33.5t36 25.5q76 -6 152.5 -17.5t149.5 -32.5q-27 -6 -50 -7.5t-45.5 -2.5t-46 -3t-50.5 -9l-45 -11q17 -57 26 -135t9 -163q7 -1 13.5 -1h12.5h9t8 1q25 -5 50 -5h8.5h8.5q25 0 50 -5q-10 -3 -28 -6.5t-40 -7t-46 -7.5t-46 -7 q-2 -85 -11.5 -163.5t-26.5 -134.5q22 -2 37.5 -5.5t44.5 -7.5q6 0 22.5 -1.5t37 -2.5t42.5 -2t40 -1q14 0 24.5 0.5t14.5 2.5v-1q-24 -41 -52.5 -53.5t-58.5 -12.5q-23 0 -44.5 -5t-42.5 -11q-26 -7 -37 -10.5t-17.5 -4.5t-14 -0.5t-26.5 0.5q-5 -1 -9 -1.5t-8 -0.5 q-30 0 -46.5 17.5t-16.5 39.5q0 18 10 32v33v65q0 16 1 43t2 59t3 65t3 61t2 47t1 23q1 26 2.5 57t1.5 63q0 37 -4 72t-17 63zM312 817q-2 -2 -5 -3t-6 -3q-10 -2 -15 -2q-1 0 -4 0.5t-17 2.5q0 1 -5.5 10.5t-13 22t-16 25t-15.5 21.5h-4q-11 -13 -17.5 -22t-13 -17 t-14 -15.5t-18.5 -16.5q-5 -5 -20.5 -6.5t-24.5 -3.5v1l10 12q5 5 8.5 9.5t5.5 6.5q12 13 21 22.5t17 19t16 20.5t19 27q3 0 5 0.5t7 0.5q4 1 7 1q5 0 7.5 -4t11.5 -7q2 -8 10 -15t13 -15q8 -13 15 -22.5t16 -22.5q2 -2 6 -9t14 -18z"/>
<glyph glyph-name="Edieresis" horiz-adv-x="367" unicode="" d="M7 688q-1 5 -1 15q-4 8 -4 20q0 17 12 33.5t36 25.5q76 -6 152.5 -17.5t149.5 -32.5q-27 -6 -50 -7.5t-45.5 -2.5t-46 -3t-50.5 -9l-45 -11q17 -57 26 -135t9 -163q7 -1 13.5 -1h12.5h9t8 1q25 -5 50 -5h8.5h8.5q25 0 50 -5q-10 -3 -28 -6.5t-40 -7t-46 -7.5t-46 -7 q-2 -85 -11.5 -163.5t-26.5 -134.5q22 -2 37.5 -5.5t44.5 -7.5q6 0 22.5 -1.5t37 -2.5t42.5 -2t40 -1q14 0 24.5 0.5t14.5 2.5v-1q-24 -41 -52.5 -53.5t-58.5 -12.5q-23 0 -44.5 -5t-42.5 -11q-26 -7 -37 -10.5t-17.5 -4.5t-14 -0.5t-26.5 0.5q-5 -1 -9 -1.5t-8 -0.5 q-30 0 -46.5 17.5t-16.5 39.5q0 18 10 32v33v65q0 16 1 43t2 59t3 65t3 61t2 47t1 23q1 26 2.5 57t1.5 63q0 37 -4 72t-17 63zM168 838q2 -6 0.5 -12.5t-4.5 -11.5q-5 -11 -16 -9q-17 4 -33.5 10.5t-24.5 25.5q-2 3 -2 6t-1 5q1 13 7 21t15 13q13 6 29 9h1q3 0 6 -3 q3 -4 5 -8q5 -11 9 -22.5t9 -23.5zM306 834q-1 -1 -3 -7q-1 -2 -2 -3t-1 -3q0 -8 -5 -12.5t-12 -6.5q-6 -2 -12 -2q-10 0 -17 6q-5 5 -10.5 10t-10.5 10q-6 9 -6 19q0 7 5.5 19t19.5 16q8 3 16.5 4.5t16.5 3.5l1 1l1 -1q4 -5 9 -8.5t6 -11.5q0 -8 1 -16t3 -18z"/>
<glyph glyph-name="Igrave" horiz-adv-x="309" unicode="" d="M207 429q22 -47 28.5 -97t8 -99.5t2.5 -98t12 -93.5q15 0 22.5 0.5t12.5 0.5t9.5 -0.5t13.5 -3.5q16 -4 16 -21q0 -12 -14 -19t-33.5 -9t-37.5 -2q-7 0 -22.5 0.5t-29.5 1.5q-10 -2 -20 -3.5t-21 -3.5q-34 -4 -68 -4q-4 0 -25.5 0.5t-59.5 4.5q-2 0 -3 1h-1q-1 0 -1 0.5 t-1 0.5l-2 2l-2 2q-8 2 -8 10q0 6 8 9q20 8 48.5 14.5t62.5 11.5v4q-9 56 -9 110q0 3 0.5 33.5t0.5 89.5q0 108 -1 167t-1 71q0 95 11 190q-25 2 -49 6t-49 7q-11 2 -10.5 10t11.5 10q38 3 76 3q32 0 64 3q50 10 98 10q21 0 42 -2q8 -2 8.5 -10t-9.5 -10q-29 -5 -59 -13 t-61 -13q11 -69 24 -135.5t18 -135.5zM65 867q-9 11 -16 16.5t-12 17.5l-7 11q0 2 7 7q29 -14 53.5 -32t45.5 -35q10 -8 26 -15t21 -16q2 -2 5 -2.5t5 -2.5q-2 -2 -2 -3t-2 -3q-4 -1 -8 -3t-4 -7q-3 -5 -4 -5.5t-2 -0.5q-2 0 -4 1.5t-5 3.5t-7 2t-8 -1t-9 0q-9 4 -15 11z "/>
<glyph glyph-name="Iacute" horiz-adv-x="309" unicode="" d="M207 429q22 -47 28.5 -97t8 -99.5t2.5 -98t12 -93.5q15 0 22.5 0.5t12.5 0.5t9.5 -0.5t13.5 -3.5q16 -4 16 -21q0 -12 -14 -19t-33.5 -9t-37.5 -2q-7 0 -22.5 0.5t-29.5 1.5q-10 -2 -20 -3.5t-21 -3.5q-34 -4 -68 -4q-4 0 -25.5 0.5t-59.5 4.5q-2 0 -3 1h-1q-1 0 -1 0.5 t-1 0.5l-2 2l-2 2q-8 2 -8 10q0 6 8 9q20 8 48.5 14.5t62.5 11.5v4q-9 56 -9 110q0 3 0.5 33.5t0.5 89.5q0 108 -1 167t-1 71q0 95 11 190q-25 2 -49 6t-49 7q-11 2 -10.5 10t11.5 10q38 3 76 3q32 0 64 3q50 10 98 10q21 0 42 -2q8 -2 8.5 -10t-9.5 -10q-29 -5 -59 -13 t-61 -13q11 -69 24 -135.5t18 -135.5zM240 862q-2 -2 -5 -2t-5 -3q-5 -9 -21.5 -16t-26.5 -15q-21 -17 -45.5 -33.5t-52.5 -32.5q-7 4 -7 7l6 11q5 11 12.5 17t16.5 16q7 8 16.5 17.5l17.5 17.5q5 3 7.5 5.5t7.5 5.5q5 5 9 12t15 10q3 1 7.5 0t8.5 -1t7.5 2t5.5 3.5t3 1.5 t2.5 -0.5t4.5 -5.5q-1 -5 3.5 -7t8.5 -3q0 -3 2 -5z"/>
<glyph glyph-name="Icircumflex" horiz-adv-x="309" unicode="" d="M207 429q22 -47 28.5 -97t8 -99.5t2.5 -98t12 -93.5q15 0 22.5 0.5t12.5 0.5t9.5 -0.5t13.5 -3.5q16 -4 16 -21q0 -12 -14 -19t-33.5 -9t-37.5 -2q-7 0 -22.5 0.5t-29.5 1.5q-10 -2 -20 -3.5t-21 -3.5q-34 -4 -68 -4q-4 0 -25.5 0.5t-59.5 4.5q-2 0 -3 1h-1q-1 0 -1 0.5 t-1 0.5l-2 2l-2 2q-8 2 -8 10q0 6 8 9q20 8 48.5 14.5t62.5 11.5v4q-9 56 -9 110q0 3 0.5 33.5t0.5 89.5q0 108 -1 167t-1 71q0 95 11 190q-25 2 -49 6t-49 7q-11 2 -10.5 10t11.5 10q38 3 76 3q32 0 64 3q50 10 98 10q21 0 42 -2q8 -2 8.5 -10t-9.5 -10q-29 -5 -59 -13 t-61 -13q11 -69 24 -135.5t18 -135.5zM212 768q-2 -2 -5 -3t-6 -3q-10 -2 -15 -2q-1 0 -4 0.5t-17 2.5q0 1 -5.5 10.5t-13 22t-16 25t-15.5 21.5h-4q-11 -13 -17.5 -22t-13 -17t-14 -15.5t-18.5 -16.5q-5 -5 -20.5 -6.5t-24.5 -3.5v1l10 12q5 5 8.5 9.5t5.5 6.5 q12 13 21 22.5t17 19t16 20.5t19 27q3 0 5 0.5t7 0.5q4 1 7 1q5 0 7.5 -4t11.5 -7q2 -8 10 -15t13 -15q8 -13 15 -22.5t16 -22.5q2 -2 6 -9t14 -18z"/>
<glyph glyph-name="Idieresis" horiz-adv-x="309" unicode="" d="M207 429q22 -47 28.5 -97t8 -99.5t2.5 -98t12 -93.5q15 0 22.5 0.5t12.5 0.5t9.5 -0.5t13.5 -3.5q16 -4 16 -21q0 -12 -14 -19t-33.5 -9t-37.5 -2q-7 0 -22.5 0.5t-29.5 1.5q-10 -2 -20 -3.5t-21 -3.5q-34 -4 -68 -4q-4 0 -25.5 0.5t-59.5 4.5q-2 0 -3 1h-1q-1 0 -1 0.5 t-1 0.5l-2 2l-2 2q-8 2 -8 10q0 6 8 9q20 8 48.5 14.5t62.5 11.5v4q-9 56 -9 110q0 3 0.5 33.5t0.5 89.5q0 108 -1 167t-1 71q0 95 11 190q-25 2 -49 6t-49 7q-11 2 -10.5 10t11.5 10q38 3 76 3q32 0 64 3q50 10 98 10q21 0 42 -2q8 -2 8.5 -10t-9.5 -10q-29 -5 -59 -13 t-61 -13q11 -69 24 -135.5t18 -135.5zM88 808q2 -6 0.5 -12.5t-4.5 -11.5q-5 -11 -16 -9q-17 4 -33.5 10.5t-24.5 25.5q-2 3 -2 6t-1 5q1 13 7 21t15 13q13 6 29 9h1q3 0 6 -3q3 -4 5 -8q5 -11 9 -22.5t9 -23.5zM226 804q-1 -1 -3 -7q-1 -2 -2 -3t-1 -3q0 -8 -5 -12.5 t-12 -6.5q-6 -2 -12 -2q-10 0 -17 6q-5 5 -10.5 10t-10.5 10q-6 9 -6 19q0 7 5.5 19t19.5 16q8 3 16.5 4.5t16.5 3.5l1 1l1 -1q4 -5 9 -8.5t6 -11.5q0 -8 1 -16t3 -18z"/>
<glyph glyph-name="Eth" horiz-adv-x="585" unicode="" d="M534 193q0 -5 -1.5 -10.5t-2.5 -11.5q-2 -11 -4.5 -22t0.5 -23q0 -2 0.5 -4t-0.5 -4q-5 -14 -10 -28.5t-10 -28.5q0 -3 -1 -3q-11 -11 -15 -25t-10 -28q-3 -7 -8 -12.5t-10 -10.5q-5 -6 -10.5 -12t-10.5 -13q-8 -11 -18 -16t-23 0q-16 4 -30 10t-27 17q-8 6 -12.5 14 t-3.5 20q1 8 1.5 16t2.5 16t3.5 16.5t2.5 16.5q4 33 26 58q7 9 14 6q2 -1 4 -7.5t0 -11.5q-5 -14 -5.5 -29.5t-2.5 -31.5q-1 -5 -2 -9t-2 -9t-1 -8.5v-8.5q-1 -4 0 -7.5t5 -4.5q9 -2 11 8q2 8 4 15.5t4 15.5q2 11 2.5 20.5t-0.5 20.5q-1 14 0 28l2 28q0 2 0.5 5.5t-0.5 5.5 q-3 12 -3 24t-1 24q0 31 -0.5 61.5t-1.5 61.5q-1 3 -1 5.5t-1 5.5q-5 20 -5.5 39.5t-1.5 39.5q0 19 -6 36q-5 11 -7 20.5t-4 20.5q-1 5 -1.5 9t-2.5 8q-5 14 -10.5 29t-11.5 29q-3 8 -4.5 8t-7.5 -5q-4 -5 -8 -8t-9 -8t-9.5 -10t-6.5 -13v-2q-11 -9 -15.5 -23t-10.5 -27 q-8 -18 -10 -43q-2 -14 -2.5 -27.5t-4.5 -26.5q-5 -15 -4.5 -29t0.5 -29q0 -5 1 -10.5t1 -11.5q1 -9 3.5 -11.5t10.5 -2.5q4 0 8 2q8 2 16 2q9 0 21.5 -3.5t27.5 -13.5q6 -3 8 -11q2 -9 -8 -13l-1 -1q-13 -2 -23.5 -10t-23.5 -11q-4 -2 -7 -3q-16 -7 -19 -14.5t0 -27.5 q3 -22 5.5 -43.5t4.5 -43.5v-3q7 -14 5.5 -30t0.5 -31q1 -8 0.5 -17.5t-0.5 -18.5q0 -8 -0.5 -16.5t-4.5 -17.5q-2 -6 -3 -13.5t-3 -14.5q-8 -26 -27 -37q-3 -2 -5 -5q-5 -11 -13 -13.5t-16 -4.5q-8 -3 -16.5 -4.5t-16.5 -2.5q-6 -1 -10.5 -1.5t-6.5 -0.5q-4 0 -8 1 q-6 2 -12 9q-8 9 -11 21t-6 23q-7 26 -8.5 52.5t-3.5 53.5q-1 17 -2 34.5t-2 34.5q-2 14 -2.5 27t-1.5 26v7q-2 15 -4.5 18.5t-14.5 6.5q-18 4 -34 12t-30 25q-9 11 -20 15q-2 1 -2.5 2t-2.5 3q2 3 5 5q8 6 12 7q14 3 28.5 5.5t28.5 4.5q0 -1 0.5 -1.5t0.5 -1.5q5 0 9 0.5 t9 -0.5q8 -1 6 7v22.5t-1 22.5q-1 16 -2.5 31t-1.5 30q-2 47 -2 93.5t-2 93.5q-1 11 -1 22q0 28 4 56q2 5 0 8q0 3 -1 5.5t-2 4.5q4 0 10 2q6 1 12 1q13 0 28 -5q3 -1 10 -1q8 2 15.5 -2t15.5 -6q4 -2 7 -6l21 -27q8 -9 11.5 -21.5t6.5 -24.5q4 -13 6.5 -26.5t5.5 -27.5 q2 -8 2 -10q1 -6 5 -2q1 1 1 1.5t1 1.5q7 20 19 34t22 31q8 12 15.5 24t15.5 23q2 4 6 7t8 3q14 1 27.5 2.5t26.5 -5.5q16 -8 31 -16.5t26 -25.5q2 -2 2 -4q3 -11 9.5 -19t12.5 -16q10 -12 17.5 -24.5t11.5 -29.5q3 -11 7 -20.5t8 -20.5q5 -14 9 -28t6 -30q2 -21 4.5 -42 t6.5 -41q6 -37 6 -73q0 -16 -1 -32z"/>
<glyph glyph-name="Ntilde" horiz-adv-x="489" unicode="" d="M391 50q-2 -11 -8 -21t-12 -21q-1 -7 -10 -12q-4 -3 -10 -5q-8 0 -12 3q-18 7 -28 20.5t-14.5 31t-6 37t-1.5 39.5v11q-8 32 -16 72q-17 48 -32 96t-30 93q-4 11 -12 36.5t-19 53.5q-10 28 -21 54q-2 4 -4 9q5 -63 9 -125q3 -45 2 -88q0 -46 -3 -89q-2 -11 -2.5 -21.5 t-2.5 -21.5l-1 -18q-1 -14 -1 -26q0 -9 1 -23.5t3 -31t4 -30t1 -23.5q-1 -14 -9 -23.5t-30 -16.5q-16 -15 -32 -15h-4q-12 2 -25 10q-20 2 -30.5 12.5t-10.5 24.5l2 46q3 47 3 62.5v25.5t0.5 22t2.5 29.5t7 47.5q3 14 4.5 29.5t3.5 30.5v11q0 18 -1.5 34.5t-3.5 29.5 q-7 45 -9.5 89t-3.5 89q0 4 1.5 13.5t8 20t21 20t41.5 12.5q17 -2 31 -11q12 -8 16 -22q6 5 13 5q11 0 18 -10l18 -36q15 -24 27 -54t21 -63.5t16 -69t13 -71.5l1 -5q7 -24 16 -51t17 -52t14.5 -45t8.5 -30q0 -5 1 -8q4 10 5.5 25t2.5 30q0 16 2 30q1 10 4 18q-1 -4 0 -2 q3 11 5.5 21t4.5 21v8q-1 5 -1.5 9t-0.5 9v8q-1 7 -1 13v13v19q0 29 1 56.5t1 55.5v49v38q-1 9 -1.5 19t-0.5 21v12.5t1 11.5v8q-2 4 -2 11q0 9 5.5 14.5t13.5 5.5q11 0 18 -10l3 -8q4 -4 4 -12q0 -5 -1 -8q5 -5 8 -12q-5 -38 -6.5 -75.5t-2.5 -75.5q5 -55 9 -110t4 -110 q0 -47 -3.5 -92.5t-12.5 -91.5zM406 757q1 -4 1 -8q0 -9 -6.5 -18.5t-18.5 -12.5q-6 -2 -11.5 -3.5t-9.5 -7.5q-1 -2 -2 -4.5t-2 -4.5q-5 -12 -17 -12h-5q-14 2 -28 6.5t-28 10.5q-12 6 -21.5 13t-23.5 10q-15 3 -30 3q-12 0 -31.5 -3t-42.5 -17q-5 -2 -8.5 -4.5t-8.5 -4.5 t-9.5 -2t-8.5 3q-6 4 -6 10t5 12.5t11 11t9 7.5q30 25 68 33l24 6q8 -2 16 -3.5t16 -3.5q30 -11 56 -22q11 -5 23 -8t26 -1q12 2 23.5 4.5t22.5 10.5q2 2 6 4q9 6 11 -5z"/>
<glyph glyph-name="Ograve" horiz-adv-x="397" unicode="" d="M149 -8h1q-1 1 -2 1q-2 0 -3 1q2 -2 4 -2zM228 78q25 14 44 48q20 34 32 78t19 95t9 97q1 26 2 49q0 19 -1 37q-2 40 -7 62q-3 11 -5 17q-2 5 -4 9q-3 4 -5 6t-6 8q-10 10 -18 14t-16 6t-15 2t-12 4l-1 -2l-2 2q-1 2 -2 2t-2 -3q0 -3 -2 -7l-4 -8l-3 -2q-9 -12 -17 -24 t-18 -23q-2 -2 -4 -6q-6 -11 -14 -20t-16 -19q-10 -18 -18 -36l-16 -36q-6 -45 -6 -90q0 -42 5 -86t13 -89v-3t2 -3q24 -46 38 -67t31 -21zM207 701q23 -1 35 -13t11 -27q0 -13 -8 -24q17 -5 35 -9t30 -16q42 -42 58 -102t15 -125q0 -61 -9 -119t-18 -104q-5 -24 -16 -46 t-22 -43v-3q0 -10 -8 -16q-8 -17 -22 -34t-26 -34q-4 -6 -12 -7t-17 -6q-10 -5 -23 -5q-12 0 -24 4t-23 10l-25 15l-15 8q-8 4 -15 11q-18 10 -27 19q-14 13 -23 31t-16 36q-6 14 -10 28t-6 27q-14 27 -22 55q-4 16 -6 32t-2 33q0 37 8 77t22 78q12 38 28 74t29 66 q8 16 15 28t15 23q8 10 17 19t21 19q1 2 3 4l4 4t3 4q8 20 30 23zM165 807q-9 11 -16 17t-12 17l-7 11q0 2 7 7q29 -14 53 -32t46 -35q10 -8 26 -15t21 -16q2 -3 5 -3t5 -2q-2 -2 -2 -3t-2 -3q-4 -1 -8 -3t-4 -7q-3 -6 -5 -6h-1q-1 0 -3 2t-6 3q-3 2 -7 2t-8 -1t-9 0 q-9 4 -15 11z"/>
<glyph glyph-name="Oacute" horiz-adv-x="401" unicode="" d="M149 -8h1q-1 1 -2 1q-2 0 -3 1q2 -2 4 -2zM228 78q25 14 44 48q20 34 32 78t19 95t9 97q1 26 2 49q0 19 -1 37q-2 40 -7 62q-3 11 -5 17q-2 5 -4 9q-3 4 -5 6t-6 8q-10 10 -18 14t-16 6t-15 2t-12 4l-1 -2l-2 2q-1 2 -2 2t-2 -3q0 -3 -2 -7l-4 -8l-3 -2q-9 -12 -17 -24 t-18 -23q-2 -2 -4 -6q-6 -11 -14 -20t-16 -19q-10 -18 -18 -36l-16 -36q-6 -45 -6 -90q0 -42 5 -86t13 -89v-3t2 -3q24 -46 38 -67t31 -21zM207 701q23 -1 35 -13t11 -27q0 -13 -8 -24q17 -5 35 -9t30 -16q42 -42 58 -102t15 -125q0 -61 -9 -119t-18 -104q-5 -24 -16 -46 t-22 -43v-3q0 -10 -8 -16q-8 -17 -22 -34t-26 -34q-4 -6 -12 -7t-17 -6q-10 -5 -23 -5q-12 0 -24 4t-23 10l-25 15l-15 8q-8 4 -15 11q-18 10 -27 19q-14 13 -23 31t-16 36q-6 14 -10 28t-6 27q-14 27 -22 55q-4 16 -6 32t-2 33q0 37 8 77t22 78q12 38 28 74t29 66 q8 16 15 28t15 23q8 10 17 19t21 19q1 2 3 4l4 4t3 4q8 20 30 23zM310 852q-2 -2 -5 -2t-5 -3q-6 -9 -22 -16t-26 -15q-22 -18 -46 -34t-52 -32q-7 4 -7 7l6 11q5 11 13 17t16 16q6 7 16 17l18 18q6 4 8 6t7 5q5 5 9 12t15 10q3 1 7 0t9 -1q3 0 7 2t6 4q2 1 3 1l1 -1 q2 0 6 -5q0 -5 4 -7t8 -3q0 -3 2 -5z"/>
<glyph glyph-name="Ocircumflex" horiz-adv-x="397" unicode="" d="M149 -8h1q-1 1 -2 1q-2 0 -3 1q2 -2 4 -2zM228 78q25 14 44 48q20 34 32 78t19 95t9 97q1 26 2 49q0 19 -1 37q-2 40 -7 62q-3 11 -5 17q-2 5 -4 9q-3 4 -5 6t-6 8q-10 10 -18 14t-16 6t-15 2t-12 4l-1 -2l-2 2q-1 2 -2 2t-2 -3q0 -3 -2 -7l-4 -8l-3 -2q-9 -12 -17 -24 t-18 -23q-2 -2 -4 -6q-6 -11 -14 -20t-16 -19q-10 -18 -18 -36l-16 -36q-6 -45 -6 -90q0 -42 5 -86t13 -89v-3t2 -3q24 -46 38 -67t31 -21zM207 701q23 -1 35 -13t11 -27q0 -13 -8 -24q17 -5 35 -9t30 -16q42 -42 58 -102t15 -125q0 -61 -9 -119t-18 -104q-5 -24 -16 -46 t-22 -43v-3q0 -10 -8 -16q-8 -17 -22 -34t-26 -34q-4 -6 -12 -7t-17 -6q-10 -5 -23 -5q-12 0 -24 4t-23 10l-25 15l-15 8q-8 4 -15 11q-18 10 -27 19q-14 13 -23 31t-16 36q-6 14 -10 28t-6 27q-14 27 -22 55q-4 16 -6 32t-2 33q0 37 8 77t22 78q12 38 28 74t29 66 q8 16 15 28t15 23q8 10 17 19t21 19q1 2 3 4l4 4t3 4q8 20 30 23zM347 741q-1 -2 -5 -3t-7 -3q-14 -1 -20 -1t-21 2q0 2 -6 12t-14 24t-18 28t-17 23h-4q-12 -14 -20 -24q-8 -11 -15 -19t-15 -16t-21 -20q-6 -5 -22 -7t-27 -4v2l11 13q9 12 15 18q13 16 23 26t19 20t18 23 q9 12 21 29q4 2 6 2h8q4 1 7 1q5 1 7 -3q4 -6 14 -9q3 -10 12 -18t14 -16q8 -14 16 -25t18 -25q2 -2 7 -10t16 -20z"/>
<glyph glyph-name="Otilde" horiz-adv-x="428" unicode="" d="M149 -8h1q-1 1 -2 1q-2 0 -3 1q2 -2 4 -2zM228 78q25 14 44 48q20 34 32 78t19 95t9 97q1 26 2 49q0 19 -1 37q-2 40 -7 62q-3 11 -5 17q-2 5 -4 9q-3 4 -5 6t-6 8q-10 10 -18 14t-16 6t-15 2t-12 4l-1 -2l-2 2q-1 2 -2 2t-2 -3q0 -3 -2 -7l-4 -8l-3 -2q-9 -12 -17 -24 t-18 -23q-2 -2 -4 -6q-6 -11 -14 -20t-16 -19q-10 -18 -18 -36l-16 -36q-6 -45 -6 -90q0 -42 5 -86t13 -89v-3t2 -3q24 -46 38 -67t31 -21zM207 701q23 -1 35 -13t11 -27q0 -13 -8 -24q17 -5 35 -9t30 -16q42 -42 58 -102t15 -125q0 -61 -9 -119t-18 -104q-5 -24 -16 -46 t-22 -43v-3q0 -10 -8 -16q-8 -17 -22 -34t-26 -34q-4 -6 -12 -7t-17 -6q-10 -5 -23 -5q-12 0 -24 4t-23 10l-25 15l-15 8q-8 4 -15 11q-18 10 -27 19q-14 13 -23 31t-16 36q-6 14 -10 28t-6 27q-14 27 -22 55q-4 16 -6 32t-2 33q0 37 8 77t22 78q12 38 28 74t29 66 q8 16 15 28t15 23q8 10 17 19t21 19q1 2 3 4l4 4t3 4q8 20 30 23zM406 787q1 -4 1 -8q1 -9 -5 -17q-8 -11 -20 -14l-12 -4t-9 -7q-1 -3 -2 -5l-2 -4q-5 -12 -17 -12h-5q-14 2 -28 6t-28 11q-11 6 -21 13t-24 10q-15 3 -30 3q-12 1 -24 -1q-28 -4 -50 -19q-4 -3 -8 -5t-9 -4 t-9 -2t-9 3q-6 4 -6 10q-1 6 5 13q4 6 11 10q6 4 9 8q30 25 68 33l24 6q8 -1 16 -3l16 -4q30 -11 56 -22q11 -5 23 -8t26 -1q11 3 23 5t23 10q2 2 6 4q9 6 11 -5z"/>
<glyph glyph-name="Odieresis" horiz-adv-x="416" unicode="" d="M149 -8h1q-1 1 -2 1q-2 0 -3 1q2 -2 4 -2zM228 78q25 14 44 48q20 34 32 78t19 95t9 97q1 26 2 49q0 19 -1 37q-2 40 -7 62q-3 11 -5 17q-2 5 -4 9q-3 4 -5 6t-6 8q-10 10 -18 14t-16 6t-15 2t-12 4l-1 -2l-2 2q-1 2 -2 2t-2 -3q0 -3 -2 -7l-4 -8l-3 -2q-9 -12 -17 -24 t-18 -23q-2 -2 -4 -6q-6 -11 -14 -20t-16 -19q-10 -18 -18 -36l-16 -36q-6 -45 -6 -90q0 -42 5 -86t13 -89v-3t2 -3q24 -46 38 -67t31 -21zM207 701q23 -1 35 -13t11 -27q0 -13 -8 -24q17 -5 35 -9t30 -16q42 -42 58 -102t15 -125q0 -61 -9 -119t-18 -104q-5 -24 -16 -46 t-22 -43v-3q0 -10 -8 -16q-8 -17 -22 -34t-26 -34q-4 -6 -12 -7t-17 -6q-10 -5 -23 -5q-12 0 -24 4t-23 10l-25 15l-15 8q-8 4 -15 11q-18 10 -27 19q-14 13 -23 31t-16 36q-6 14 -10 28t-6 27q-14 27 -22 55q-4 16 -6 32t-2 33q0 37 8 77t22 78q12 38 28 74t29 66 q8 16 15 28t15 23q8 10 17 19t21 19q1 2 3 4l4 4t3 4q8 20 30 23zM208 778q2 -6 0 -12l-4 -12q-5 -11 -16 -9q-18 5 -34 11t-24 25q-2 3 -2 6t-1 5q1 13 7 21t15 13q13 6 29 9h1q3 0 6 -3q3 -4 5 -8q5 -10 9 -22t9 -24zM346 774q-1 -1 -3 -7q-1 -2 -2 -3t-1 -3q0 -9 -5 -13 t-12 -6q-6 -2 -12 -2q-10 0 -17 6q-4 5 -10 10t-11 10q-6 9 -6 19q0 7 3 14q8 17 22 21l16 4t17 4l1 1l1 -1q4 -4 9 -8t6 -12q0 -8 1 -16t3 -18z"/>
<glyph glyph-name="multiply" horiz-adv-x="311" unicode="" d="M293 168q1 -3 1 -5q0 -5 -4 -11q-6 -7 -13 -7h-2q-16 3 -32 14q-27 19 -51 42l-3 3q-7 5 -12 -1q-2 -2 -4 -5t-4 -5q-11 -13 -25 -21t-31 -13q-12 -4 -22 -4q-9 0 -18 3q-5 2 -9 6t-10 8q-14 13 -14 27q0 15 9 29q8 14 19 26l22 24q8 8 8 9t-8 9q-2 2 -5 4t-5 3 q-6 5 -16 13t-20 18q-8 10 -10 20q0 2 -1 4q0 8 8 14q7 6 14 4q5 -2 9 -8t8 -9q8 -5 16 -9t15 -10q5 -4 9 -7t9 -6q6 -4 10 1q6 8 12 14t13 15l16 16t17 16q1 2 3 4l4 4q3 4 6 4q2 0 5 -2q6 -4 10 -8l24 -27q19 -16 27 -41q2 -9 2 -18t-7 -17q-3 -3 -5 -4q-6 -3 -10 -6 t-8 -7q-5 -5 -10 -11t-10 -10q-3 -4 1 -6l9 -9t10 -7q17 -11 34 -29q6 -7 11 -15t8 -16z"/>
<glyph glyph-name="Oslash" horiz-adv-x="672" unicode="" d="M528 215q3 11 0.5 21t-7.5 21q-2 3 -3.5 7t-2.5 7q-2 23 -4 45t-4 45h-1q-1 10 -1.5 19t-2.5 19q-1 5 -3.5 9t-4.5 9q-3 -2 -6.5 -4.5t-7.5 -4.5l-4 -4q-18 -27 -36.5 -53.5t-36.5 -53.5q-19 -29 -37 -58.5t-37 -58.5q-8 -11 -15 -23t-15 -24q-5 -11 -10 -21t-11 -20 q-5 -9 -5 -18t3 -19q2 -4 3.5 -8t2.5 -8q6 -20 11.5 -40.5t11.5 -40.5q15 -44 52 -78q12 -10 21 -1q7 6 13.5 12.5t14.5 11.5q23 14 39 40q12 20 23 41l22 42q2 3 2 6.5t1 7.5q4 14 7.5 27t8.5 27q7 17 11 32t4 29q0 6 -1 12q-1 13 1 25t4 23zM467 483q4 6 4 11q0 8 -9 16 q-5 5 -10.5 8t-10.5 8q-2 2 -4 5t-2 5q2 11 -6 15t-13 10q-8 9 -17 9q-6 0 -14 -4q-34 -14 -59 -37.5t-44 -54.5q-2 -5 -4 -9.5t-3 -9.5q-3 -15 -7.5 -30t-15.5 -27q-3 -3 -4.5 -7.5t-3.5 -9.5q-6 -21 -8 -37t-2 -26q0 -12 2 -25q2 -11 3 -21.5t2 -21.5q2 -18 2.5 -37 t2.5 -40q0 -1 1 -2q0 -1 2 -5q2 2 3 3.5t2 3.5q19 42 52 77q12 14 19 26q18 29 36 56.5t40 53.5q20 22 35 47t31 50zM616 628q-11 -18 -22.5 -36t-22.5 -36q-8 -13 -15.5 -26t-15.5 -27q-2 -3 -1 -7.5t2 -8.5q6 -18 12.5 -36t12.5 -36q8 -23 10 -44.5t4 -43.5q1 -14 4 -27 t5 -27q1 -6 1 -12.5v-13.5l-4 -42t-5 -41q-3 -17 -7.5 -33.5t-9.5 -33.5q-1 -5 -2.5 -8.5t-1.5 -8.5q-1 -17 -6 -30.5t-13 -27.5q-5 -11 -10 -22.5t-11 -22.5q-11 -19 -22 -37.5t-28 -32.5q-10 -9 -19 -19l-18 -20q-8 -9 -4 -23q5 -16 -7 -27q-8 -7 -14 -14.5t-14 -14.5 q-10 -9 -22 -10q-23 -5 -46.5 -9t-46.5 -6h-8q-56 0 -102 40q-11 10 -21 20t-20 21q-7 8 -11 2q-7 -8 -13 -16l-12 -16q-5 -5 -8 -10t-7 -10q-12 -17 -24 -33t-23 -33q-12 -19 -25 -43q-4 -5 -6.5 -11t-4.5 -12q-4 -14 -13 -14q-7 0 -16 10q-14 14 -14 18q0 5 8 19 q7 14 12.5 28.5t12.5 28.5q7 13 14.5 25.5t15.5 24.5q8 11 13 23.5t18 20.5q2 2 1.5 5.5t1.5 5.5q2 5 3.5 10t8.5 5q2 1 5 2t3 3q1 9 4.5 17.5t5.5 17t2 18t-5 20.5q-14 28 -20 56.5t-9 57.5q-2 25 -4.5 49t-6.5 48q-4 28 -4 54q0 5 0.5 24t2.5 51q5 75 28 141q2 6 3 12.5 t2 13.5q2 14 7 26t14 23q12 13 21.5 27.5t21.5 26.5q18 18 36 35.5t44 26.5q14 5 28 7.5t26 11.5q2 2 6.5 0t9.5 -2q3 0 5.5 0.5t5.5 0.5q-2 2 -5 2.5t-5 2.5q-2 1 -2.5 2t-2.5 3q2 0 3 0.5t3 0.5h10q8 -3 16.5 -3.5t17.5 -0.5t18.5 -1t18.5 -7h4q15 6 30 1t30 -7 q9 -1 18 -3.5t15 -13.5q2 -5 9 -5t10.5 -4t7.5 -9q5 -7 7 -13t-6 -12q-2 -1 -2.5 -3.5t0.5 -4.5q3 -4 6 -7.5t7 -6.5q1 1 3 2q3 2 5 5l54 87q5 10 7 10.5t3 0.5q4 0 12 -2q5 -2 11 -3t12 -3q13 -4 13 -10q0 -4 -4 -11z"/>
<glyph glyph-name="Ugrave" horiz-adv-x="617" unicode="" d="M430 503q2 7 5.5 11t8.5 6q0 1 2 3q5 5 15 7h4q5 0 13 -0.5t16 -1.5t13.5 -3.5t5.5 -5.5q0 -1 -0.5 -3.5t-2 -12.5l-4.5 -30t-9 -56q0 -23 -3.5 -46t-9.5 -48l-2 -23q-1 -9 -1 -18v-18q0 -24 1.5 -49t6.5 -49t15 -45.5t27 -37.5l12 -8q14 -13 24 -16.5t14 -3.5 q12 0 26 13q17 15 32.5 15h21.5q1 0 -0.5 -5t-4 -11t-4.5 -12t-2 -9q-23 -32 -39 -37.5t-26 -5.5t-24 5t-31.5 18.5t-32.5 23.5q-32 20 -54 59.5t-23 117.5q-7 -13 -14.5 -25.5t-15.5 -24.5q-8 -21 -21 -43q-12 -20 -25.5 -34.5t-28.5 -28.5q-17 -20 -34 -34l-40 -38 q-5 -5 -13 -6.5t-16 -1.5t-15.5 0.5t-15.5 0.5q-12 0 -22 7t-18.5 17.5t-16 21.5t-13.5 20q-9 10 -14 21q-14 20 -28.5 39.5t-23.5 42.5q-11 30 -23.5 62t-18.5 63q-4 21 -6 42t-7 41q-5 26 -11 51t-8 51v16q0 57 6 112t7 112q4 19 15.5 28t25.5 9q11 0 19 -5q14 19 34 19 q12 0 22.5 -7t14.5 -20q17 -8 24 -30l-6 -127q1 -60 3.5 -119.5t7.5 -119.5v-72q7 -48 19 -92t31 -82q7 -5 20 -5q12 0 21 4q42 27 80 62q5 5 8.5 11.5t8.5 13.5q16 34 30 69.5t26 67.5l8 24t9 24v6q2 12 6 24t9 24q-2 4 -2 7l8 27q2 13 2.5 25.5t1.5 25.5zM305 747 q-9 11 -16 16.5t-12 17.5l-7 11q0 2 7 7q29 -14 53.5 -32t45.5 -35q10 -8 26 -15t21 -16q2 -2 5 -2.5t5 -2.5q-2 -2 -2 -3t-2 -3q-4 -1 -8 -3t-4 -7q-3 -5 -4 -5.5t-2 -0.5q-2 0 -4 1.5t-5 3.5t-7 2t-8 -1t-9 0q-9 4 -15 11z"/>
<glyph glyph-name="Uacute" horiz-adv-x="617" unicode="" d="M430 503q2 7 5.5 11t8.5 6q0 1 2 3q5 5 15 7h4q5 0 13 -0.5t16 -1.5t13.5 -3.5t5.5 -5.5q0 -1 -0.5 -3.5t-2 -12.5l-4.5 -30t-9 -56q0 -23 -3.5 -46t-9.5 -48l-2 -23q-1 -9 -1 -18v-18q0 -24 1.5 -49t6.5 -49t15 -45.5t27 -37.5l12 -8q14 -13 24 -16.5t14 -3.5 q12 0 26 13q17 15 32.5 15h21.5q1 0 -0.5 -5t-4 -11t-4.5 -12t-2 -9q-23 -32 -39 -37.5t-26 -5.5t-24 5t-31.5 18.5t-32.5 23.5q-32 20 -54 59.5t-23 117.5q-7 -13 -14.5 -25.5t-15.5 -24.5q-8 -21 -21 -43q-12 -20 -25.5 -34.5t-28.5 -28.5q-17 -20 -34 -34l-40 -38 q-5 -5 -13 -6.5t-16 -1.5t-15.5 0.5t-15.5 0.5q-12 0 -22 7t-18.5 17.5t-16 21.5t-13.5 20q-9 10 -14 21q-14 20 -28.5 39.5t-23.5 42.5q-11 30 -23.5 62t-18.5 63q-4 21 -6 42t-7 41q-5 26 -11 51t-8 51v16q0 57 6 112t7 112q4 19 15.5 28t25.5 9q11 0 19 -5q14 19 34 19 q12 0 22.5 -7t14.5 -20q17 -8 24 -30l-6 -127q1 -60 3.5 -119.5t7.5 -119.5v-72q7 -48 19 -92t31 -82q7 -5 20 -5q12 0 21 4q42 27 80 62q5 5 8.5 11.5t8.5 13.5q16 34 30 69.5t26 67.5l8 24t9 24v6q2 12 6 24t9 24q-2 4 -2 7l8 27q2 13 2.5 25.5t1.5 25.5zM490 692 q-2 -2 -5 -2t-5 -3q-5 -9 -21.5 -16t-26.5 -15q-21 -17 -45.5 -33.5t-52.5 -32.5q-7 4 -7 7l6 11q5 11 12.5 17t16.5 16q7 8 16.5 17.5l17.5 17.5q5 3 7.5 5.5t7.5 5.5q5 5 9 12t15 10q3 1 7.5 0t8.5 -1t7.5 2t5.5 3.5t3 1.5t2.5 -0.5t4.5 -5.5q-1 -5 3.5 -7t8.5 -3 q0 -3 2 -5z"/>
<glyph glyph-name="Ucircumflex" horiz-adv-x="617" unicode="" d="M430 503q2 7 5.5 11t8.5 6q0 1 2 3q5 5 15 7h4q5 0 13 -0.5t16 -1.5t13.5 -3.5t5.5 -5.5q0 -1 -0.5 -3.5t-2 -12.5l-4.5 -30t-9 -56q0 -23 -3.5 -46t-9.5 -48l-2 -23q-1 -9 -1 -18v-18q0 -24 1.5 -49t6.5 -49t15 -45.5t27 -37.5l12 -8q14 -13 24 -16.5t14 -3.5 q12 0 26 13q17 15 32.5 15h21.5q1 0 -0.5 -5t-4 -11t-4.5 -12t-2 -9q-23 -32 -39 -37.5t-26 -5.5t-24 5t-31.5 18.5t-32.5 23.5q-32 20 -54 59.5t-23 117.5q-7 -13 -14.5 -25.5t-15.5 -24.5q-8 -21 -21 -43q-12 -20 -25.5 -34.5t-28.5 -28.5q-17 -20 -34 -34l-40 -38 q-5 -5 -13 -6.5t-16 -1.5t-15.5 0.5t-15.5 0.5q-12 0 -22 7t-18.5 17.5t-16 21.5t-13.5 20q-9 10 -14 21q-14 20 -28.5 39.5t-23.5 42.5q-11 30 -23.5 62t-18.5 63q-4 21 -6 42t-7 41q-5 26 -11 51t-8 51v16q0 57 6 112t7 112q4 19 15.5 28t25.5 9q11 0 19 -5q14 19 34 19 q12 0 22.5 -7t14.5 -20q17 -8 24 -30l-6 -127q1 -60 3.5 -119.5t7.5 -119.5v-72q7 -48 19 -92t31 -82q7 -5 20 -5q12 0 21 4q42 27 80 62q5 5 8.5 11.5t8.5 13.5q16 34 30 69.5t26 67.5l8 24t9 24v6q2 12 6 24t9 24q-2 4 -2 7l8 27q2 13 2.5 25.5t1.5 25.5zM537 631 q-2 -2 -5.5 -3t-6.5 -3q-14 -2 -20 -1.5t-21 2.5q0 1 -6 11.5t-14 24t-18 28t-17 23.5h-4q-12 -14 -20 -24t-15 -18.5t-15 -17t-21 -19.5q-6 -5 -22.5 -7t-26.5 -4v2l11 13q9 12 15 18q13 15 23 25.5t19 21t18 22.5t21 29l6 1.5t8 0.5q4 1 7 1q5 0 8 -4.5t13 -7.5 q3 -10 12 -18t14 -16q8 -14 16 -25t18 -25q2 -2 7 -10t16 -20z"/>
<glyph glyph-name="Udieresis" horiz-adv-x="617" unicode="" d="M430 503q2 7 5.5 11t8.5 6q0 1 2 3q5 5 15 7h4q5 0 13 -0.5t16 -1.5t13.5 -3.5t5.5 -5.5q0 -1 -0.5 -3.5t-2 -12.5l-4.5 -30t-9 -56q0 -23 -3.5 -46t-9.5 -48l-2 -23q-1 -9 -1 -18v-18q0 -24 1.5 -49t6.5 -49t15 -45.5t27 -37.5l12 -8q14 -13 24 -16.5t14 -3.5 q12 0 26 13q17 15 32.5 15h21.5q1 0 -0.5 -5t-4 -11t-4.5 -12t-2 -9q-23 -32 -39 -37.5t-26 -5.5t-24 5t-31.5 18.5t-32.5 23.5q-32 20 -54 59.5t-23 117.5q-7 -13 -14.5 -25.5t-15.5 -24.5q-8 -21 -21 -43q-12 -20 -25.5 -34.5t-28.5 -28.5q-17 -20 -34 -34l-40 -38 q-5 -5 -13 -6.5t-16 -1.5t-15.5 0.5t-15.5 0.5q-12 0 -22 7t-18.5 17.5t-16 21.5t-13.5 20q-9 10 -14 21q-14 20 -28.5 39.5t-23.5 42.5q-11 30 -23.5 62t-18.5 63q-4 21 -6 42t-7 41q-5 26 -11 51t-8 51v16q0 57 6 112t7 112q4 19 15.5 28t25.5 9q11 0 19 -5q14 19 34 19 q12 0 22.5 -7t14.5 -20q17 -8 24 -30l-6 -127q1 -60 3.5 -119.5t7.5 -119.5v-72q7 -48 19 -92t31 -82q7 -5 20 -5q12 0 21 4q42 27 80 62q5 5 8.5 11.5t8.5 13.5q16 34 30 69.5t26 67.5l8 24t9 24v6q2 12 6 24t9 24q-2 4 -2 7l8 27q2 13 2.5 25.5t1.5 25.5zM297 748 q2 -6 0.5 -12.5t-4.5 -11.5q-5 -11 -16 -9q-17 4 -33.5 10.5t-24.5 25.5q-2 3 -2 6t-1 5q1 13 7 21t15 13q13 6 29 9h1q3 0 6 -3q3 -4 5 -8q5 -11 9 -22.5t9 -23.5zM435 744q-1 -1 -3 -7q-1 -2 -2 -3t-1 -3q0 -8 -5 -12.5t-12 -6.5q-6 -2 -12 -2q-10 0 -17 6q-5 5 -10.5 10 t-10.5 10q-6 9 -6 19q0 7 5.5 19t19.5 16q8 3 16.5 4.5t16.5 3.5l2 1v-1q4 -5 9 -8.5t6 -11.5q0 -8 1 -16t3 -18z"/>
<glyph glyph-name="Yacute" horiz-adv-x="650" unicode="" d="M374 -100l-4 53q-20 -23 -39.5 -47.5t-38.5 -48.5q-29 -35 -46 -74t-19 -87q-1 -17 0 -26.5t5 -14t12.5 -5.5t22.5 -2q28 3 46.5 24.5t30 50.5t16.5 59.5t8 51.5zM114 605q22 18 46 18q10 0 33.5 -7t77.5 -59q7 -4 13.5 -2t11 3t7 -1.5t2.5 -14.5q-10 -21 -20.5 -54 t-20.5 -72.5t-19 -82t-14.5 -81.5t-6.5 -59.5t-1 -28.5q0 -21 3 -37q0 -2 3 -0.5t7 4.5t7 6t5 4q19 7 29.5 14.5t28.5 17.5l21 30q0 13 1 36t3.5 47.5t5 47.5t4.5 36q3 21 8.5 45.5t16 47t26.5 38.5t42 19q17 2 31 -1.5t26 -16.5q14 -20 16 -40q7 -10 12 -26 q-5 -88 -16 -175.5t-26 -175.5q16 14 30.5 28t29.5 28q27 24 51.5 44.5t46.5 43.5t40.5 53t33.5 73q6 17 13.5 31.5t10.5 28.5q-1 -13 -5 -22.5t-9 -22.5q-7 -20 -11.5 -39.5t-13.5 -39.5q-12 -27 -27.5 -49t-33.5 -41.5t-38 -38.5t-40 -40q-16 -17 -31 -34t-33 -32 q-5 -5 -11 -8.5t-12 -8.5l-2 -13q-1 -3 -1 4q-5 -69 -10.5 -138.5t-25.5 -137.5q-4 -14 -10.5 -32.5t-15.5 -37t-20 -34.5t-24 -25q-14 -10 -27.5 -19.5t-28.5 -16.5q-16 -7 -34 -7q-2 0 -14 0.5t-31.5 8.5t-34 22.5t-18.5 34.5q-3 15 -3 30q0 8 1.5 23t4.5 37q4 33 19 62 t34.5 55t42.5 50t44 46q13 14 25 28.5t25 27.5q-1 26 -3 40.5t-6 26.5t-10 26.5t-15 40.5q-11 -9 -22 -16.5t-22 -15.5q-20 -16 -38.5 -26t-35.5 -11h-10q-15 0 -26 4q-11 0 -23 3q-4 1 -7 4l-5 5q-19 21 -30 38t-16 34t-6.5 37.5t-1.5 49.5q0 24 -2 56t-2.5 57t-0.5 39 q0 22 1 52t7 66q-25 -12 -49.5 -31t-45.5 -40.5t-38 -43t-27 -38.5q6 34 16 55t25 37.5t34.5 32t43.5 38.5l64 54zM510 612q-2 -2 -5 -2t-5 -3q-5 -9 -21.5 -16t-26.5 -15q-21 -17 -45.5 -33.5t-52.5 -32.5q-7 4 -7 7l6 11q5 11 12.5 17t16.5 16q7 8 16.5 17.5l17.5 17.5 q5 3 7.5 5.5t7.5 5.5q5 5 9 12t15 10q3 1 7.5 0t8.5 -1t7.5 2t5.5 3.5t3 1.5t2.5 -0.5t4.5 -5.5q-1 -5 3.5 -7t8.5 -3q0 -3 2 -5z"/>
<glyph glyph-name="Thorn" horiz-adv-x="469" unicode="" d="M436 518q2 14 -6.5 21t-20.5 4l-10 -2t-10 -1q-14 0 -26 -4.5t-23 -15.5q-8 -8 -18 -13q-20 -10 -33 -26t-27 -33q-5 -6 -8 -15t-3 -17q-2 -24 -9 -48q-1 -5 -1.5 -10.5t-2.5 -11.5q2 -6 3.5 -13t3.5 -15q1 -5 3 -5t5 2q21 11 41 21t37 27q20 20 38.5 39.5t38.5 39.5 q15 16 20.5 35.5t7.5 40.5zM503 420q-2 -38 -21 -63.5t-47 -45.5l-30 -22t-29 -23q-10 -9 -21 -12.5t-23 -5.5q-9 -1 -18.5 -1t-18.5 -1l-8 -2t-9 -3q-4 -1 -6 4t-3.5 11t-2 9.5t-0.5 -0.5q1 -11 1.5 -24.5t1 -27.5t1 -27t1.5 -22q-1 -16 -1.5 -23t-1 -12t-1 -11.5 t-1.5 -20.5q-2 -17 -6 -32.5t-8 -32.5q-2 -8 -3.5 -15.5t-2.5 -15.5q-2 -19 -6.5 -36t-11.5 -34q-5 -10 -11 -18.5t-18 -10.5q-4 0 -8 -2q-9 -11 -15.5 -11.5t-8.5 -0.5q-8 0 -17 2t-18 2q-8 0 -15 -1t-13 -1q-10 0 -21 2q-11 3 -18 8.5t-9 17.5q-2 17 -4.5 34t-4.5 34 q-1 11 -1.5 21.5t-2.5 21.5q-5 38 -6.5 75.5t-1.5 75.5q0 18 -2.5 36t-4.5 37q-1 17 -2 35t-3 36q-2 21 -4.5 42.5t-4.5 42.5l-3 45v69v18q0 37 3.5 77t13.5 85q2 8 2.5 17t0.5 17q1 8 3.5 10t9.5 2q68 -3 126 -40q8 -5 11.5 -14.5t8.5 -18.5q2 -3 4 -18.5t4 -33t3.5 -32.5 t2.5 -19q3 -9 5.5 -18t4.5 -19q2 -8 2.5 -16.5t2.5 -17.5q2 -8 4 -9t9 4q14 11 29 21t29 21q15 10 29 17t31 7h4h10l16 1q17 2 27 2l15 -1q20 -2 35.5 -12t24.5 -31q0 -2 2 -4q18 -21 19 -39t1 -29q0 -15 -1 -30z"/>
<glyph glyph-name="germandbls" horiz-adv-x="612" unicode="" d="M367 88q0 4 -1 6q-7 34 -15 64q-2 9 -7 14q-8 9 -15.5 17.5t-14.5 17.5q-8 10 -17.5 12t-20.5 3q-12 2 -12 -11v-20t2 -20q2 -19 4 -37.5t4 -38.5h-3q1 -20 2 -41t2 -41q0 -3 0.5 -6.5t0.5 -6.5q2 -7 8 -6q10 1 20 1t19 7q5 4 11 5q14 3 21 19q8 15 9.5 30.5t2.5 31.5z M411 414h-2v4q-2 8 -3 8.5t-8 -1.5q-19 -7 -34 -11q-13 -3 -24 -15q-8 -10 -16 -19t-16 -19q-4 -5 -6.5 -10.5t-4.5 -10.5q-3 -6 -5.5 -11.5t-5.5 -11.5q-6 -19 -13 -35q0 -4 4 -4q8 3 16.5 5t16.5 7q26 14 45 34.5t35 43.5q3 5 6.5 10t5.5 10q3 6 5 12.5t4 13.5zM524 85 q1 -5 1 -9q0 -17 -12 -33q-11 -13 -22 -24.5t-27 -16.5l-24 -8l-24 -8q-3 -2 -7 -1t-8 0q-10 -2 -19 -5t-19 -6q-8 -2 -15 -4t-15 -4q-5 -2 -9 -2t-8 -2q-14 -8 -27 5q-2 2 -5 4l-6 4q-1 -4 -2 -7.5t-1 -7.5t0.5 -7.5t-0.5 -7.5q-2 -14 -11 -23t-18 -17q-5 -4 -10 -2t-10 2 q-5 1 -7.5 -5.5t-9.5 -5.5q-5 1 -11 1.5t-11 1.5h-2q-6 -5 -10 -5q-2 0 -6.5 2t-10.5 4q-8 2 -16.5 4t-16.5 4q-9 3 -11 6t0 13q1 6 0 12q-4 17 -5 34t-1 34q0 20 -0.5 39.5t-1.5 39.5q0 14 0.5 27.5t0.5 27.5q-1 16 -1 32q0 8 0.5 14.5t0.5 11.5q0 19 -2 38q-1 17 -1 35 q0 39 6 80q5 25 7.5 49t5.5 49q2 11 3.5 20.5t3.5 20.5q1 5 1.5 8.5t-3.5 6.5q-2 1 -2 3t1 3q1 3 4 3q1 0 2 -1q7 -2 13.5 -3.5t13.5 -3.5q2 0 3 -1t3 -1q20 -1 37.5 -10t31.5 -21q14 -11 21.5 -23.5t7.5 -24.5q0 -7 -2 -15q1 -5 1.5 -11.5t1.5 -12.5q2 -7 3.5 -7.5t6.5 4.5 q23 18 47 38q2 2 4 3l4 2q15 5 30 9.5t30 8.5q12 3 23 -1.5t21 -9.5q3 -1 4.5 -6t1.5 -10q0 -8 -0.5 -15.5t-3.5 -15.5q-4 -13 -8.5 -25.5t-12.5 -23.5t-18.5 -19t-21.5 -16q-8 -5 -16 -9.5t-16 -9.5t0 -9t14.5 -6.5t14.5 -5.5q7 -2 14 -5t15 -6l4 -2l4 -2l16.5 -16.5 t17.5 -16.5l48 -45q12 -13 19 -32q4 -13 8 -25.5t6 -25.5z"/>
<glyph glyph-name="agrave" d="M129 380q-7 6 -16 6q-11 0 -21 -11.5t-19 -27.5q-5 -8 -11 -27.5t-11 -44t-8.5 -49t-3.5 -42.5q0 -8 2.5 -25t6.5 -34t8.5 -30t9.5 -13q12 0 24 11t23 26t20.5 31.5t17.5 27.5l12 18q-8 20 -11.5 46t-7.5 46q-5 24 -10 46.5t-5 45.5zM176 146q-8 -14 -19.5 -31t-22.5 -27 q-16 -16 -41.5 -28.5t-51.5 -12.5q-20 0 -35.5 10t-23.5 33q-5 17 -5 38q0 33 9.5 76.5t24.5 84.5t34 72.5t37 41.5q7 3 14.5 7t15.5 4h4l7 -2q4 25 19 38.5t35 13.5q15 0 30 -8.5t28 -26.5q12 -15 12 -36q2 -5 2 -9t1 -8q1 -8 1 -17.5v-20.5q0 -23 -0.5 -49.5t-0.5 -55.5 q0 -21 0.5 -42t2.5 -41q13 -46 21.5 -69.5t14.5 -24.5t7 -1q10 0 27 17.5t49 54.5q12 14 23.5 35.5t22 46t20 51t17.5 50.5l6 26v-5q0 -78 -22 -144.5t-73 -120.5q-12 -12 -19.5 -20.5t-14.5 -14.5q-3 -3 -11.5 -9t-12.5 -8q-8 -3 -16 -3h-33q-17 2 -25 12q-26 35 -42 84 q-2 4 -2 5zM155 617q-9 11 -16 16.5t-12 17.5l-7 11q0 2 7 7q29 -14 53.5 -32t45.5 -35q10 -8 26 -15t21 -16q2 -2 5 -2.5t5 -2.5q-2 -2 -2 -3t-2 -3q-4 -1 -8 -3t-4 -7q-3 -5 -4 -5.5t-2 -0.5q-2 0 -4 1.5t-5 3.5t-7 2t-8 -1t-9 0q-9 4 -15 11z" unicode=""/>
<glyph glyph-name="aacute" d="M129 380q-7 6 -16 6q-11 0 -21 -11.5t-19 -27.5q-5 -8 -11 -27.5t-11 -44t-8.5 -49t-3.5 -42.5q0 -8 2.5 -25t6.5 -34t8.5 -30t9.5 -13q12 0 24 11t23 26t20.5 31.5t17.5 27.5l12 18q-8 20 -11.5 46t-7.5 46q-5 24 -10 46.5t-5 45.5zM176 146q-8 -14 -19.5 -31t-22.5 -27 q-16 -16 -41.5 -28.5t-51.5 -12.5q-20 0 -35.5 10t-23.5 33q-5 17 -5 38q0 33 9.5 76.5t24.5 84.5t34 72.5t37 41.5q7 3 14.5 7t15.5 4h4l7 -2q4 25 19 38.5t35 13.5q15 0 30 -8.5t28 -26.5q12 -15 12 -36q2 -5 2 -9t1 -8q1 -8 1 -17.5v-20.5q0 -23 -0.5 -49.5t-0.5 -55.5 q0 -21 0.5 -42t2.5 -41q13 -46 21.5 -69.5t14.5 -24.5t7 -1q10 0 27 17.5t49 54.5q12 14 23.5 35.5t22 46t20 51t17.5 50.5l6 26v-5q0 -78 -22 -144.5t-73 -120.5q-12 -12 -19.5 -20.5t-14.5 -14.5q-3 -3 -11.5 -9t-12.5 -8q-8 -3 -16 -3h-33q-17 2 -25 12q-26 35 -42 84 q-2 4 -2 5zM310 652q-2 -2 -5 -2t-5 -3q-5 -9 -21.5 -16t-26.5 -15q-21 -17 -45.5 -33.5t-52.5 -32.5q-7 4 -7 7l6 11q5 11 12.5 17t16.5 16q7 8 16.5 17.5l17.5 17.5q5 3 7.5 5.5t7.5 5.5q5 5 9 12t15 10q3 1 7.5 0t8.5 -1t7.5 2t5.5 3.5t3 1.5t2.5 -0.5t4.5 -5.5 q-1 -5 3.5 -7t8.5 -3q0 -3 2 -5z" unicode=""/>
<glyph glyph-name="acircumflex" d="M129 380q-7 6 -16 6q-11 0 -21 -11.5t-19 -27.5q-5 -8 -11 -27.5t-11 -44t-8.5 -49t-3.5 -42.5q0 -8 2.5 -25t6.5 -34t8.5 -30t9.5 -13q12 0 24 11t23 26t20.5 31.5t17.5 27.5l12 18q-8 20 -11.5 46t-7.5 46q-5 24 -10 46.5t-5 45.5zM176 146q-8 -14 -19.5 -31t-22.5 -27 q-16 -16 -41.5 -28.5t-51.5 -12.5q-20 0 -35.5 10t-23.5 33q-5 17 -5 38q0 33 9.5 76.5t24.5 84.5t34 72.5t37 41.5q7 3 14.5 7t15.5 4h4l7 -2q4 25 19 38.5t35 13.5q15 0 30 -8.5t28 -26.5q12 -15 12 -36q2 -5 2 -9t1 -8q1 -8 1 -17.5v-20.5q0 -23 -0.5 -49.5t-0.5 -55.5 q0 -21 0.5 -42t2.5 -41q13 -46 21.5 -69.5t14.5 -24.5t7 -1q10 0 27 17.5t49 54.5q12 14 23.5 35.5t22 46t20 51t17.5 50.5l6 26v-5q0 -78 -22 -144.5t-73 -120.5q-12 -12 -19.5 -20.5t-14.5 -14.5q-3 -3 -11.5 -9t-12.5 -8q-8 -3 -16 -3h-33q-17 2 -25 12q-26 35 -42 84 q-2 4 -2 5zM312 568q-2 -2 -5 -3t-6 -3q-10 -2 -15 -2q-1 0 -4 0.5t-17 2.5q0 1 -5.5 10.5t-13 22t-16 25t-15.5 21.5h-4q-11 -13 -17.5 -22t-13 -17t-14 -15.5t-18.5 -16.5q-5 -5 -20.5 -6.5t-24.5 -3.5v1l10 12q5 5 8.5 9.5t5.5 6.5q12 13 21 22.5t17 19t16 20.5t19 27 q3 0 5 0.5t7 0.5q4 1 7 1q5 0 7.5 -4t11.5 -7q2 -8 10 -15t13 -15q8 -13 15 -22.5t16 -22.5q2 -2 6 -9t14 -18z" unicode=""/>
<glyph glyph-name="atilde" d="M129 380q-7 6 -16 6q-11 0 -21 -11.5t-19 -27.5q-5 -8 -11 -27.5t-11 -44t-8.5 -49t-3.5 -42.5q0 -8 2.5 -25t6.5 -34t8.5 -30t9.5 -13q12 0 24 11t23 26t20.5 31.5t17.5 27.5l12 18q-8 20 -11.5 46t-7.5 46q-5 24 -10 46.5t-5 45.5zM176 146q-8 -14 -19.5 -31t-22.5 -27 q-16 -16 -41.5 -28.5t-51.5 -12.5q-20 0 -35.5 10t-23.5 33q-5 17 -5 38q0 33 9.5 76.5t24.5 84.5t34 72.5t37 41.5q7 3 14.5 7t15.5 4h4l7 -2q4 25 19 38.5t35 13.5q15 0 30 -8.5t28 -26.5q12 -15 12 -36q2 -5 2 -9t1 -8q1 -8 1 -17.5v-20.5q0 -23 -0.5 -49.5t-0.5 -55.5 q0 -21 0.5 -42t2.5 -41q13 -46 21.5 -69.5t14.5 -24.5t7 -1q10 0 27 17.5t49 54.5q12 14 23.5 35.5t22 46t20 51t17.5 50.5l6 26v-5q0 -78 -22 -144.5t-73 -120.5q-12 -12 -19.5 -20.5t-14.5 -14.5q-3 -3 -11.5 -9t-12.5 -8q-8 -3 -16 -3h-33q-17 2 -25 12q-26 35 -42 84 q-2 4 -2 5zM326 657q1 -4 1 -8q0 -9 -6.5 -18.5t-18.5 -12.5q-6 -2 -11.5 -3.5t-9.5 -7.5q-1 -2 -2 -4.5t-2 -4.5q-5 -12 -17 -12h-5q-14 2 -28 6.5t-28 10.5q-12 6 -21.5 13t-23.5 10q-15 3 -30 3q-12 0 -31.5 -3t-42.5 -17q-5 -2 -8.5 -4.5t-8.5 -4.5t-9.5 -2t-8.5 3 q-6 4 -6 10t5 12.5t11 11t9 7.5q30 25 68 33l24 6q8 -2 16 -3.5t16 -3.5q30 -11 56 -22q11 -5 23 -8t26 -1q12 2 23.5 4.5t22.5 10.5q2 2 6 4q9 6 11 -5z" unicode=""/>
<glyph glyph-name="adieresis" d="M129 380q-7 6 -16 6q-11 0 -21 -11.5t-19 -27.5q-5 -8 -11 -27.5t-11 -44t-8.5 -49t-3.5 -42.5q0 -8 2.5 -25t6.5 -34t8.5 -30t9.5 -13q12 0 24 11t23 26t20.5 31.5t17.5 27.5l12 18q-8 20 -11.5 46t-7.5 46q-5 24 -10 46.5t-5 45.5zM176 146q-8 -14 -19.5 -31t-22.5 -27 q-16 -16 -41.5 -28.5t-51.5 -12.5q-20 0 -35.5 10t-23.5 33q-5 17 -5 38q0 33 9.5 76.5t24.5 84.5t34 72.5t37 41.5q7 3 14.5 7t15.5 4h4l7 -2q4 25 19 38.5t35 13.5q15 0 30 -8.5t28 -26.5q12 -15 12 -36q2 -5 2 -9t1 -8q1 -8 1 -17.5v-20.5q0 -23 -0.5 -49.5t-0.5 -55.5 q0 -21 0.5 -42t2.5 -41q13 -46 21.5 -69.5t14.5 -24.5t7 -1q10 0 27 17.5t49 54.5q12 14 23.5 35.5t22 46t20 51t17.5 50.5l6 26v-5q0 -78 -22 -144.5t-73 -120.5q-12 -12 -19.5 -20.5t-14.5 -14.5q-3 -3 -11.5 -9t-12.5 -8q-8 -3 -16 -3h-33q-17 2 -25 12q-26 35 -42 84 q-2 4 -2 5zM168 628q2 -6 0.5 -12.5t-4.5 -11.5q-5 -11 -16 -9q-17 4 -33.5 10.5t-24.5 25.5q-2 3 -2 6t-1 5q1 13 7 21t15 13q13 6 29 9h1q3 0 6 -3q3 -4 5 -8q5 -11 9 -22.5t9 -23.5zM306 624q-1 -1 -3 -7q-1 -2 -2 -3t-1 -3q0 -8 -5 -12.5t-12 -6.5q-6 -2 -12 -2 q-10 0 -17 6q-5 5 -10.5 10t-10.5 10q-6 9 -6 19q0 7 5.5 19t19.5 16q8 3 16.5 4.5t16.5 3.5l1 1l1 -1q4 -5 9 -8.5t6 -11.5q0 -8 1 -16t3 -18z" unicode=""/>
<glyph glyph-name="aring" d="M129 380q-7 6 -16 6q-11 0 -21 -11.5t-19 -27.5q-5 -8 -11 -27.5t-11 -44t-8.5 -49t-3.5 -42.5q0 -8 2.5 -25t6.5 -34t8.5 -30t9.5 -13q12 0 24 11t23 26t20.5 31.5t17.5 27.5l12 18q-8 20 -11.5 46t-7.5 46q-5 24 -10 46.5t-5 45.5zM176 146q-8 -14 -19.5 -31t-22.5 -27 q-16 -16 -41.5 -28.5t-51.5 -12.5q-20 0 -35.5 10t-23.5 33q-5 17 -5 38q0 33 9.5 76.5t24.5 84.5t34 72.5t37 41.5q7 3 14.5 7t15.5 4h4l7 -2q4 25 19 38.5t35 13.5q15 0 30 -8.5t28 -26.5q12 -15 12 -36q2 -5 2 -9t1 -8q1 -8 1 -17.5v-20.5q0 -23 -0.5 -49.5t-0.5 -55.5 q0 -21 0.5 -42t2.5 -41q13 -46 21.5 -69.5t14.5 -24.5t7 -1q10 0 27 17.5t49 54.5q12 14 23.5 35.5t22 46t20 51t17.5 50.5l6 26v-5q0 -78 -22 -144.5t-73 -120.5q-12 -12 -19.5 -20.5t-14.5 -14.5q-3 -3 -11.5 -9t-12.5 -8q-8 -3 -16 -3h-33q-17 2 -25 12q-26 35 -42 84 q-2 4 -2 5zM248 647q0 1 -0.5 1.5t-0.5 1.5q-2 6 -2 10q0 2 -1 2q-6 0 -11.5 -1.5t-8.5 -6.5q-2 -2 -2.5 -4t-2.5 -4q-4 -6 -5 -13.5t-3 -15.5q2 -6 2 -11q1 -3 4 -3q5 1 8.5 2t5.5 5q2 2 4.5 4t4.5 4q1 2 2 3t2 3q2 5 2.5 11t1.5 12zM276 648q-1 -8 -1.5 -14.5t-1.5 -14.5 q-1 -2 -1 -3t-1 -2q-1 -4 -5 -12q-1 -1 -1 -1.5t-1 -1.5l-7 -7t-8 -5q-2 -2 -3 -2q-6 -8 -12.5 -9t-11.5 -1h-6q-1 0 -1.5 0.5t-1.5 0.5q-7 0 -17 4l-6 3q-20 12 -20 31q0 24 14 44q2 3 8 7q11 11 24 11q5 0 10 -2q4 -1 7 -1t6 -2q4 0 7 2q4 2 8 2q3 0 5 -1l3 -3q2 -2 3 -2 q5 -2 9 -10q3 -3 3 -7q0 -2 -1 -4z" unicode=""/>
<glyph glyph-name="ae" horiz-adv-x="588" unicode="" d="M237 396q-1 2 -2 5t-3 5q-4 3 -8.5 6t-7.5 1q-9 -2 -17.5 -4.5t-14.5 -10.5q-8 -9 -16 -18.5t-17 -18.5q-20 -20 -26 -44q-2 -5 -3.5 -8.5t-3.5 -7.5q-2 -5 -3.5 -11t-3.5 -11l-6 -22t-5 -22q-2 -8 -3.5 -14.5t-3.5 -14.5q0 -1 0.5 -1.5t0.5 -2.5q1 1 2 1t2 1 q5 5 11 10.5t11 10.5q14 15 28.5 30t31.5 28q6 4 10 13q5 14 11 28t11 28q2 5 4 8.5t4 7.5q2 8 9 8q5 0 5 5q2 3 2 6.5t1 8.5zM423 406q-1 8 -5 17q-3 9 -11 7q-13 -2 -24.5 -4.5t-22.5 -9.5q-6 -4 -9 -7q-3 -5 -6.5 -9.5t-6.5 -9.5q-2 -4 -3 -7q-3 -15 -8 -29.5t-3 -30.5 q0 -1 -0.5 -2t-0.5 -3q-3 -10 -5.5 -19.5t-4.5 -19.5v-6q2 1 3 1t2 1q14 5 25.5 12.5t22.5 16.5q13 9 23 20.5t18 25.5q4 8 7 15.5t7 15.5q2 5 4 9.5t-3 10.5v5h1zM622.5 357.5q-1.5 -4.5 -4 -10.5t-6.5 -11q-12 -20 -27 -39q-2 -2 -5 -4t-5 -4q-2 -1 -13.5 -12.5 l-28.5 -28.5t-36 -37t-36 -37t-28.5 -29t-12.5 -13q-5 -5 -9.5 -11.5t-11.5 -9.5q-8 -5 -13.5 -12t-13.5 -12q-26 -20 -58 -20q-8 1 -16.5 1h-16.5q-6 0 -8 -2q-12 -7 -29 -10q-7 -1 -13 -1q-29 0 -50 23q-7 8 -10.5 17t-5.5 19q-4 17 -4 33q0 8 1 17q1 8 0.5 15t-0.5 15 q0 1 -0.5 2t-0.5 2q-2 0 -4 -2q-11 -11 -21.5 -21t-20.5 -21q-6 -8 -13.5 -14t-15.5 -13q-3 -2 -5.5 -5.5t-5.5 -6.5q-6 -6 -14 -9l-16 -6q-5 -2 -11.5 -1.5t-12.5 2.5q-9 3 -18.5 6t-18.5 7q-8 4 -11 11t-5 15q-1 3 -1 7l1 15q0 25 4.5 49t9.5 47q6 26 19 48t29 42 q10 14 21.5 26t22.5 24q8 8 16.5 15.5t16.5 15.5q2 1 3.5 2t3.5 2q16 3 31.5 6t32.5 5q8 2 13 2q9 2 19 2t23.5 -3.5t31.5 -9.5q2 -1 2.5 -2t2.5 -2q5 -5 7.5 -4.5t4.5 5.5q5 11 13 14t17 4q25 4 52 6q2 1 3 1q2 0 4 -1q12 -2 23.5 -2t22.5 -1q8 -1 15.5 -3t15.5 -4 q10 -3 12 -17q0 -13 -3.5 -24.5t-8.5 -22.5q-6 -17 -15.5 -31t-19.5 -28q-7 -10 -16 -16t-18 -11l-10 -6t-10 -7q-17 -14 -39 -22q-9 -4 -10 -11l-2 -14l-2 -14q-2 -8 -2 -16t-1 -16v-13q3 -10 6 -19t10 -17q6 -9 9 -18q5 -14 18 -7q8 4 26.5 19.5t41.5 37t48.5 46t48 46.5 t39 40t22.5 25q8 9 15 17.5t15 16.5q3 4 6.5 4.5t7.5 0.5q6 -1 7 -2t1 -3t-1.5 -6.5z"/>
<glyph glyph-name="ccedilla" horiz-adv-x="295" unicode="" d="M192 293v5v9t1 11q5 9 5 11v14q0 15 -4 31t-9 30q-6 14 -15 23q-9 10 -20 14q-16 11 -36 11q-15 0 -31 -6l-15 -9t-14 -12q-11 -14 -21 -37q-9 -23 -17 -50t-12 -57t-5 -57q-1 -24 3 -44t13 -35q11 -17 26 -25t32 -17q15 -7 25 -12v0q2 3 3 7t13 5q12 0 34 -4l2 -8 q22 7 42 21q26 19 48 45q22 25 37 55q16 30 26 57q7 17 13 35t12 35q2 5 2 11t3 11q-5 -6 -13 -21q-8 -14 -16 -32t-15 -34q-8 -16 -14 -27q-17 -19 -25 -30t-14 -19q-8 -8 -20 -15t-35 -19l-27 -7q-12 2 -30 11t-23 20q-5 4 -7 12t-2 17q-4 43 -10 77t-7 60q-1 12 -1 21 q0 13 2 23q2 18 14 26q11 8 23 6t23 -8q12 -6 20 -16t12 -18q2 -2 6 -12t5 -13q0 -1 1 -5t0 -9q-2 -9 -3 -15t-4 -12t-7 -12t-14 -18q2 -11 8 -16t12 -5q7 -1 13 5t7 17zM98 91q9 -5 23 -5q8 0 13 1l16 4v-1v-7q-8 -13 -15 -27t-20 -23q-4 -3 -12 -7q-9 -4 -15 -6t-14 -5 t-17 -3t-18 4q-17 8 -24 27q-1 2 -1 4q0 3 2 5q3 3 6 7q4 6 12 0q2 -1 4 -3t6 -4q11 -8 20 0q8 8 15 16t15 15z"/>
<glyph glyph-name="egrave" horiz-adv-x="332" unicode="" d="M176 350q1 0 1.5 10t2.5 21q1 5 1 9v7q0 11 -6.5 16t-17.5 5t-24.5 -5.5t-25.5 -14.5t-20 -21t-8 -26q0 -2 -1.5 -6.5t-0.5 -9.5q-2 -5 -0.5 -9.5t1.5 -11.5q0 -8 0.5 -17t0.5 -17v-8t-1 -8q12 11 24.5 18.5t25 15.5t25 20t23.5 32zM248 70q-33 -29 -64.5 -43.5 t-67.5 -14.5q-13 0 -28 2q-7 1 -18 14t-22 30.5t-20 33.5t-12 23q-11 25 -17.5 55t-6.5 62q0 26 2 50.5t13 44.5q4 12 9.5 26.5t11.5 25.5q1 4 6.5 12.5t12.5 16.5t12.5 13.5t6.5 5.5q15 15 34 24.5t36 9.5q28 0 42 -25q6 -10 14 -26.5t8 -30.5q0 -5 -1 -8q0 -1 -0.5 -2 t-0.5 -2q-3 -10 -6 -17t-6.5 -13t-8.5 -12t-13 -15q-21 -22 -41.5 -35.5t-42.5 -33.5q2 -14 1 -26t1 -19q6 -19 11 -34t11 -29t16 -29.5t27 -36.5l3 -4h5q3 0 6.5 0.5t6.5 0.5q17 3 36 11t33 25q26 31 42.5 54t27.5 46t18 49t13 64q6 -2 7 -2v-9q0 -68 -20 -124.5 t-77 -107.5zM95 557q-9 11 -16 16.5t-12 17.5l-7 11q0 2 7 7q29 -14 53.5 -32t45.5 -35q10 -8 26 -15t21 -16q2 -2 5 -2.5t5 -2.5q-2 -2 -2 -3t-2 -3q-4 -1 -8 -3t-4 -7q-3 -5 -5 -5.5t-4.5 1t-5.5 3.5t-7 2t-8 -1t-9 0q-9 4 -15 11zM345 311v1v-1z"/>
<glyph glyph-name="eacute" horiz-adv-x="332" unicode="" d="M176 350q1 0 1.5 10t2.5 21q1 5 1 9v7q0 11 -6.5 16t-17.5 5t-24.5 -5.5t-25.5 -14.5t-20 -21t-8 -26q0 -2 -1.5 -6.5t-0.5 -9.5q-2 -5 -0.5 -9.5t1.5 -11.5q0 -8 0.5 -17t0.5 -17v-8t-1 -8q12 11 24.5 18.5t25 15.5t25 20t23.5 32zM248 70q-33 -29 -64.5 -43.5 t-67.5 -14.5q-13 0 -28 2q-7 1 -18 14t-22 30.5t-20 33.5t-12 23q-11 25 -17.5 55t-6.5 62q0 26 2 50.5t13 44.5q4 12 9.5 26.5t11.5 25.5q1 4 6.5 12.5t12.5 16.5t12.5 13.5t6.5 5.5q15 15 34 24.5t36 9.5q28 0 42 -25q6 -10 14 -26.5t8 -30.5q0 -5 -1 -8q0 -1 -0.5 -2 t-0.5 -2q-3 -10 -6 -17t-6.5 -13t-8.5 -12t-13 -15q-21 -22 -41.5 -35.5t-42.5 -33.5q2 -14 1 -26t1 -19q6 -19 11 -34t11 -29t16 -29.5t27 -36.5l3 -4h5q3 0 6.5 0.5t6.5 0.5q17 3 36 11t33 25q26 31 42.5 54t27.5 46t18 49t13 64q6 -2 7 -2v-9q0 -68 -20 -124.5 t-77 -107.5zM250 582q-2 -2 -5 -2t-5 -3q-5 -9 -21.5 -16t-26.5 -15q-21 -17 -45.5 -33.5t-52.5 -32.5q-7 4 -7 7l6 11q5 11 12.5 17t16.5 16q7 8 16.5 17.5l17.5 17.5q5 3 7.5 5.5t7.5 5.5q5 5 9 12t15 10q3 1 7.5 0t8.5 -1t7.5 2t5.5 3.5t3 1.5t2.5 -0.5t4.5 -5.5 q-1 -5 3.5 -7t8.5 -3q0 -3 2 -5zM345 311v1v-1z"/>
<glyph glyph-name="ecircumflex" horiz-adv-x="332" unicode="" d="M176 350q1 0 1.5 10t2.5 21q1 5 1 9v7q0 11 -6.5 16t-17.5 5t-24.5 -5.5t-25.5 -14.5t-20 -21t-8 -26q0 -2 -1.5 -6.5t-0.5 -9.5q-2 -5 -0.5 -9.5t1.5 -11.5q0 -8 0.5 -17t0.5 -17v-8t-1 -8q12 11 24.5 18.5t25 15.5t25 20t23.5 32zM248 70q-33 -29 -64.5 -43.5 t-67.5 -14.5q-13 0 -28 2q-7 1 -18 14t-22 30.5t-20 33.5t-12 23q-11 25 -17.5 55t-6.5 62q0 26 2 50.5t13 44.5q4 12 9.5 26.5t11.5 25.5q1 4 6.5 12.5t12.5 16.5t12.5 13.5t6.5 5.5q15 15 34 24.5t36 9.5q28 0 42 -25q6 -10 14 -26.5t8 -30.5q0 -5 -1 -8q0 -1 -0.5 -2 t-0.5 -2q-3 -10 -6 -17t-6.5 -13t-8.5 -12t-13 -15q-21 -22 -41.5 -35.5t-42.5 -33.5q2 -14 1 -26t1 -19q6 -19 11 -34t11 -29t16 -29.5t27 -36.5l3 -4h5q3 0 6.5 0.5t6.5 0.5q17 3 36 11t33 25q26 31 42.5 54t27.5 46t18 49t13 64q6 -2 7 -2v-9q0 -68 -20 -124.5 t-77 -107.5zM249 532q-2 -2 -5 -3t-6 -3q-13 -2 -17.5 -1.5t-18.5 2.5q0 1 -5.5 10.5t-13 22t-16 25t-15.5 21.5h-4q-11 -13 -17.5 -22t-13 -17t-14 -15.5t-18.5 -16.5q-5 -5 -20.5 -6.5t-24.5 -3.5v1l10 12q5 5 8.5 9.5t5.5 6.5q12 13 21 22.5t17 19t16 20.5t19 27 q3 0 5 0.5t7 0.5q4 1 7 1q5 0 7.5 -4t11.5 -7q2 -8 10 -15t13 -15q8 -13 15 -22.5t16 -22.5q2 -2 6 -9t14 -18zM345 311v1v-1z"/>
<glyph glyph-name="edieresis" horiz-adv-x="332" unicode="" d="M176 350q1 0 1.5 10t2.5 21q1 5 1 9v7q0 11 -6.5 16t-17.5 5t-24.5 -5.5t-25.5 -14.5t-20 -21t-8 -26q0 -2 -1.5 -6.5t-0.5 -9.5q-2 -5 -0.5 -9.5t1.5 -11.5q0 -8 0.5 -17t0.5 -17v-8t-1 -8q12 11 24.5 18.5t25 15.5t25 20t23.5 32zM248 70q-33 -29 -64.5 -43.5 t-67.5 -14.5q-13 0 -28 2q-7 1 -18 14t-22 30.5t-20 33.5t-12 23q-11 25 -17.5 55t-6.5 62q0 26 2 50.5t13 44.5q4 12 9.5 26.5t11.5 25.5q1 4 6.5 12.5t12.5 16.5t12.5 13.5t6.5 5.5q15 15 34 24.5t36 9.5q28 0 42 -25q6 -10 14 -26.5t8 -30.5q0 -5 -1 -8q0 -1 -0.5 -2 t-0.5 -2q-3 -10 -6 -17t-6.5 -13t-8.5 -12t-13 -15q-21 -22 -41.5 -35.5t-42.5 -33.5q2 -14 1 -26t1 -19q6 -19 11 -34t11 -29t16 -29.5t27 -36.5l3 -4h5q3 0 6.5 0.5t6.5 0.5q17 3 36 11t33 25q26 31 42.5 54t27.5 46t18 49t13 64q6 -2 7 -2v-9q0 -68 -20 -124.5 t-77 -107.5zM345 311v1v-1z"/>
<glyph glyph-name="igrave" horiz-adv-x="228" unicode="" d="M259 347l-1 2q1 -1 1 -2zM1 335q-1 4 -1 12q0 32 18 48.5t40 16.5q19 0 35.5 -13t24.5 -40q1 -5 1 -9v-9q0 -21 -4.5 -42t-10.5 -42t-12.5 -42t-10.5 -42l-8 -43q-1 -3 -1 -8t1 -7l6 -7q9 -4 22 -4q19 1 37.5 13t34.5 30t29.5 40t22 42.5t12 37t1.5 23.5q2 3 7 9t7 12 q2 4 5 13t3 17v2q1 -4 1 -11q0 -11 -2.5 -24.5t-6 -27t-6.5 -24.5t-4 -15v-2q-7 -35 -19 -64.5t-35 -58.5q-7 -9 -16.5 -16t-19.5 -13q-1 -1 -1.5 -1t-1.5 -1q-2 -1 -11 -6t-9 -7h1q3 0 5.5 3t5.5 3q2 1 -7 -6t-15 -11q-10 -6 -21.5 -12t-23.5 -6h-4q-45 5 -59 37.5 t-14 77.5q0 35 4 72.5t4 66.5q0 25 -4 38zM25 547q-9 11 -16 16.5t-12 17.5l-7 11q0 2 7 7q29 -14 53.5 -32t45.5 -35q10 -8 26 -15t21 -16q2 -2 5 -2.5t5 -2.5q-2 -2 -2 -3t-2 -3q-4 -1 -8 -3t-4 -7q-3 -5 -5 -5.5t-4.5 1t-5.5 3.5t-7 2t-8 -1t-9 0q-9 4 -15 11zM260 343v1 v-1z"/>
<glyph glyph-name="iacute" horiz-adv-x="228" unicode="" d="M259 347l-1 2q1 -1 1 -2zM1 335q-1 4 -1 12q0 32 18 48.5t40 16.5q19 0 35.5 -13t24.5 -40q1 -5 1 -9v-9q0 -21 -4.5 -42t-10.5 -42t-12.5 -42t-10.5 -42l-8 -43q-1 -3 -1 -8t1 -7l6 -7q9 -4 22 -4q19 1 37.5 13t34.5 30t29.5 40t22 42.5t12 37t1.5 23.5q2 3 7 9t7 12 q2 4 5 13t3 17v2q1 -4 1 -11q0 -11 -2.5 -24.5t-6 -27t-6.5 -24.5t-4 -15v-2q-7 -35 -19 -64.5t-35 -58.5q-7 -9 -16.5 -16t-19.5 -13q-1 -1 -1.5 -1t-1.5 -1q-2 -1 -11 -6t-9 -7h1q3 0 5.5 3t5.5 3q2 1 -7 -6t-15 -11q-10 -6 -21.5 -12t-23.5 -6h-4q-45 5 -59 37.5 t-14 77.5q0 35 4 72.5t4 66.5q0 25 -4 38zM190 544q-2 -2 -5 -2t-5 -3q-5 -9 -21.5 -16t-26.5 -15q-21 -17 -45.5 -33.5t-52.5 -32.5q-7 4 -7 7l6 11q5 11 12.5 17t16.5 16q7 8 16.5 17.5l17.5 17.5q5 3 7.5 5.5t7.5 5.5q5 5 9 12t15 10q3 1 7.5 0t8.5 -1t7.5 2t5.5 3.5 t3 1.5t2.5 -0.5t4.5 -5.5q-1 -5 3.5 -7t8.5 -3q0 -3 2 -5zM260 343v1v-1z"/>
<glyph glyph-name="icircumflex" horiz-adv-x="228" unicode="" d="M259 347l-1 2q1 -1 1 -2zM1 335q-1 4 -1 12q0 32 18 48.5t40 16.5q19 0 35.5 -13t24.5 -40q1 -5 1 -9v-9q0 -21 -4.5 -42t-10.5 -42t-12.5 -42t-10.5 -42l-8 -43q-1 -3 -1 -8t1 -7l6 -7q9 -4 22 -4q19 1 37.5 13t34.5 30t29.5 40t22 42.5t12 37t1.5 23.5q2 3 7 9t7 12 q2 4 5 13t3 17v2q1 -4 1 -11q0 -11 -2.5 -24.5t-6 -27t-6.5 -24.5t-4 -15v-2q-7 -35 -19 -64.5t-35 -58.5q-7 -9 -16.5 -16t-19.5 -13q-1 -1 -1.5 -1t-1.5 -1q-2 -1 -11 -6t-9 -7h1q3 0 5.5 3t5.5 3q2 1 -7 -6t-15 -11q-10 -6 -21.5 -12t-23.5 -6h-4q-45 5 -59 37.5 t-14 77.5q0 35 4 72.5t4 66.5q0 25 -4 38zM195 484q-2 -2 -5 -3t-6 -3q-13 -2 -17.5 -1.5t-18.5 2.5q0 1 -5.5 10.5t-13 22t-16 25t-15.5 21.5h-4q-11 -13 -17.5 -22t-13 -17t-14 -15.5t-18.5 -16.5q-5 -5 -20.5 -6.5t-23.5 -3.5v1l9 12q5 5 8.5 9.5t5.5 6.5q12 13 21 22.5 t17 19t16 20.5t19 27q3 0 5 0.5t7 0.5q4 1 7 1q5 0 7.5 -4t11.5 -7q2 -8 10 -15t13 -15q8 -13 15 -22.5t16 -22.5q2 -2 6 -9t14 -18zM260 343v1v-1z"/>
<glyph glyph-name="idieresis" horiz-adv-x="228" unicode="" d="M259 347l-1 2q1 -1 1 -2zM1 335q-1 4 -1 12q0 32 18 48.5t40 16.5q19 0 35.5 -13t24.5 -40q1 -5 1 -9v-9q0 -21 -4.5 -42t-10.5 -42t-12.5 -42t-10.5 -42l-8 -43q-1 -3 -1 -8t1 -7l6 -7q9 -4 22 -4q19 1 37.5 13t34.5 30t29.5 40t22 42.5t12 37t1.5 23.5q2 3 7 9t7 12 q2 4 5 13t3 17v2q1 -4 1 -11q0 -11 -2.5 -24.5t-6 -27t-6.5 -24.5t-4 -15v-2q-7 -35 -19 -64.5t-35 -58.5q-7 -9 -16.5 -16t-19.5 -13q-1 -1 -1.5 -1t-1.5 -1q-2 -1 -11 -6t-9 -7h1q3 0 5.5 3t5.5 3q2 1 -7 -6t-15 -11q-10 -6 -21.5 -12t-23.5 -6h-4q-45 5 -59 37.5 t-14 77.5q0 35 4 72.5t4 66.5q0 25 -4 38zM58 528q2 -6 0.5 -12.5t-4.5 -11.5q-5 -11 -16 -9q-17 4 -33.5 10.5t-24.5 25.5q-2 3 -2 6t-1 5q1 13 7 21t15 13q13 6 29 9h1q3 0 6 -3q3 -4 5 -8q5 -11 9 -22.5t9 -23.5zM196 524q-1 -1 -3 -7q-1 -2 -2 -3t-1 -3q0 -8 -5 -12.5 t-12 -6.5q-17 -5 -29 4q-5 5 -10.5 10t-10.5 10q-6 9 -6 19q0 7 5.5 19t19.5 16q8 3 16.5 4.5t16.5 3.5l1 1l1 -1q4 -5 9 -8.5t6 -11.5q0 -8 1 -16t3 -18zM260 343v1v-1z"/>
<glyph glyph-name="eth" horiz-adv-x="447" unicode="" d="M192 120q-1 11 -1 20.5t-2 20.5q-2 21 -4.5 42t-4.5 43q0 1 -2 7q-2 -2 -4 -2.5t-4 -2.5l-10 -10t-12 -9q-11 -5 -17 -13t-11 -17q-3 -5 -6 -9t-7 -8q-15 -11 -20 -32q-2 -8 -2.5 -17t-2.5 -17q-3 -16 -3 -31q0 -18 4 -34q1 -8 8 -16q6 -7 13.5 -6.5t15.5 2.5 q21 5 36 17.5t26 30.5q11 16 11 32q0 5 -1 9zM444 423q2 -1 2 -4q0 -2 -1.5 -5.5t-6.5 -6.5q-10 -5 -20 -9.5t-21 -0.5q-26 -2 -49 -5.5t-45 -13.5q-8 -4 -9.5 -7t0.5 -13q5 -20 11 -39.5t11 -39.5q2 -5 2 -8.5t1 -8.5q1 -6 2 -11.5t2 -11.5q1 -8 2.5 -15t-0.5 -15 q-2 -2 0 -5q2 -9 1 -18t-1 -18q-1 -7 -1 -13.5t-6 -11.5q1 -11 -6.5 -17t-11.5 -14q-2 -4 -6 -7t-7 -8q-11 -15 -24 -27q-13 -11 -23.5 -23.5t-23.5 -23.5q-20 -19 -45 -23q-5 -1 -9 -2t-8 -3q-7 -5 -11.5 -5.5t-6.5 -0.5q-5 0 -10 1q-2 0 -3 0.5t-2 0.5q-5 -2 -10 -2 t-11 3.5t-14 11.5q-7 8 -14.5 16.5t-15.5 16.5q-8 7 -12 15l-8 16q-2 6 -3 11.5t2 11.5q2 5 0 7q-8 10 -7 20t5 20q8 25 22.5 44.5t31.5 36.5q10 10 20.5 18.5t21.5 17.5q8 6 16.5 9.5t18.5 5.5q8 2 10 4.5t0 10.5l-4 24l-4 24q-1 7 -8 4q-15 -8 -30.5 -14.5t-31.5 -13.5 q-7 -3 -13 -6t-13 -6q-10 -5 -22 -5q-9 0 -19 3q-9 2 -14.5 8t-11.5 11q-2 2 -2 4t3 4q13 7 25 14t26 13q21 10 42 18t44 13q8 2 9 3.5t-1 9.5q-9 36 -23.5 70t-32.5 67q-3 5 -6.5 9t-7.5 9q-4 4 2 6q9 4 14.5 5t8.5 1l13 -3q14 -5 27 -11.5t27 -12.5q7 -4 13.5 -7t13.5 -7 q6 -3 11.5 -7t10.5 -10q5 -8 12.5 -14t12.5 -14q3 -5 5.5 -10.5t5.5 -10.5l7.5 -15t6.5 -15q3 -7 11 -5q20 5 38.5 9.5t38.5 9.5q12 3 23.5 5.5t24.5 0.5q11 -2 20 -8z"/>
<glyph glyph-name="ntilde" horiz-adv-x="430" unicode="" d="M-4 362q6 29 23 43.5t37 14.5q19 0 35 -13.5t24 -39.5q0 -6 0.5 -15t1 -19t1.5 -19t1 -15l29 49q11 9 16.5 19t10 19t10.5 16.5t17 12.5q13 4 20.5 6.5t21.5 2.5q24 0 37.5 -14t18.5 -37q7 -14 10 -32l1 -4q3 -20 3 -41q0 -42 -6.5 -86t-6.5 -83q0 -21 3 -39h2t3 1t7 2.5 t15 6.5q2 1 6.5 6t9.5 10q5 6 11 13q16 17 26 39t18.5 45.5t17.5 47t23 42.5q4 14 15.5 26.5t24.5 23.5q-5 -16 -14.5 -41t-22 -53.5t-26 -58.5t-26.5 -55.5t-24.5 -43.5t-18.5 -23q-5 -3 -11 -9.5l-12 -13t-13 -11t-14 -4.5q-4 0 -6 1q-6 2 -12.5 4.5t-13.5 4.5 q-8 3 -14.5 11.5t-11 19t-7 21.5t-2.5 17q-2 32 -4 70t-5.5 71t-10.5 55.5t-13 23.5t-7 1q-11 0 -29 -24t-45 -85q1 -15 1 -29.5v-28.5v-47q6 -30 9 -60q2 -10 2 -17v-7q0 -2 -0.5 -2.5t-0.5 -2.5q0 -5 -1 -8q-3 -12 -9 -19l-10 -9q-1 0 -1.5 -0.5t-1.5 -0.5q-10 -5 -20 -5 h-4q-2 0 -3 0.5t-3 0.5q-10 4 -14 7q-16 11 -19 36q0 3 -1 9l-1 5q0 -5 0.5 -7.5t0.5 -4.5l-1 -2v-1q-1 0 -3 8.5t-4 18.5t-3.5 18.5t-1.5 9.5q-6 37 -8 74t-9 75l-9 38q-4 21 -5.5 42t-3.5 42zM326 567q1 -4 1 -8q0 -9 -6.5 -18.5t-18.5 -12.5q-6 -2 -11.5 -3.5t-9.5 -7.5 q-1 -2 -2 -4.5t-2 -4.5q-5 -12 -17 -12h-5q-14 2 -28 6.5t-28 10.5q-12 6 -21.5 13t-23.5 10q-15 3 -30 3q-12 0 -31.5 -3t-42.5 -17q-5 -2 -8.5 -4.5t-8.5 -4.5t-9.5 -2t-8.5 3q-6 4 -6 10t5 12.5t11 11t9 7.5q30 25 68 33l24 6q8 -2 16 -3.5t16 -3.5q30 -11 56 -22 q11 -5 23 -8t26 -1q12 2 23.5 4.5t22.5 10.5q2 2 6 4q9 6 11 -5z"/>
<glyph glyph-name="ograve" horiz-adv-x="321" unicode="" d="M131 358q16 -13 35.5 -20t42.5 -9q-1 7 -2 13t-3 12q-6 28 -22 51q-6 6 -11 7q-1 -3 -5.5 -4t-10 -2t-10.5 -2t-8 -4q-5 -5 -5 -15q0 -5 0.5 -9.5t0.5 -8.5q0 -5 -2 -9zM211 303q-52 2 -92 24q-2 -10 -3 -20.5t-1 -21.5q0 -27 4.5 -54t12 -49.5t18 -36.5t21.5 -14 q17 0 31 34q6 8 8 30t2 46q0 20 -0.5 36.5t-0.5 25.5zM42 430q13 11 25.5 15t23.5 4q20 0 34 -11q5 1 11 1.5t11 0.5q7 0 14 -1.5t13 -2.5q17 -3 32 -20t26.5 -36.5t18 -35t6.5 -16.5q4 -8 15 -5t19 3q17 0 31.5 3.5t26.5 13.5l30 25l-9 -12q-3 -5 -8 -10.5t-11 -13.5 q-13 -17 -31 -23t-39 -6h-11t-11 1q1 -5 1 -10.5v-11.5q0 -21 -3 -44t-9 -45t-14.5 -40.5t-19.5 -30.5q-33 -34 -76 -34q-22 0 -43 8.5t-39.5 23.5t-33 34.5t-22.5 41.5q-8 21 -13 44.5t-5 46.5v5q1 42 17 75.5t43 62.5zM95 577q-9 11 -16 16.5t-12 17.5l-7 11q0 2 7 7 q29 -14 53.5 -32t45.5 -35q10 -8 26 -15t21 -16q2 -2 5 -2.5t5 -2.5q-2 -2 -2 -3t-2 -3q-4 -1 -8 -3t-4 -7q-3 -5 -4 -5.5t-2 -0.5q-2 0 -4 1.5t-5 3.5t-7 2t-8 -1t-9 0q-9 4 -15 11z"/>
<glyph glyph-name="oacute" horiz-adv-x="321" unicode="" d="M131 358q16 -13 35.5 -20t42.5 -9q-1 7 -2 13t-3 12q-6 28 -22 51q-6 6 -11 7q-1 -3 -5.5 -4t-10 -2t-10.5 -2t-8 -4q-5 -5 -5 -15q0 -5 0.5 -9.5t0.5 -8.5q0 -5 -2 -9zM211 303q-52 2 -92 24q-2 -10 -3 -20.5t-1 -21.5q0 -27 4.5 -54t12 -49.5t18 -36.5t21.5 -14 q17 0 31 34q6 8 8 30t2 46q0 20 -0.5 36.5t-0.5 25.5zM42 430q13 11 25.5 15t23.5 4q20 0 34 -11q5 1 11 1.5t11 0.5q7 0 14 -1.5t13 -2.5q17 -3 32 -20t26.5 -36.5t18 -35t6.5 -16.5q4 -8 15 -5t19 3q17 0 31.5 3.5t26.5 13.5l30 25l-9 -12q-3 -5 -8 -10.5t-11 -13.5 q-13 -17 -31 -23t-39 -6h-11t-11 1q1 -5 1 -10.5v-11.5q0 -21 -3 -44t-9 -45t-14.5 -40.5t-19.5 -30.5q-33 -34 -76 -34q-22 0 -43 8.5t-39.5 23.5t-33 34.5t-22.5 41.5q-8 21 -13 44.5t-5 46.5v5q1 42 17 75.5t43 62.5zM290 612q-2 -2 -5 -2t-5 -3q-5 -9 -21.5 -16 t-26.5 -15q-21 -17 -45.5 -33.5t-52.5 -32.5q-7 4 -7 7l6 11q5 11 12.5 17t16.5 16q7 8 16.5 17.5l17.5 17.5q5 3 7.5 5.5t7.5 5.5q5 5 9 12t15 10q3 1 7.5 0t8.5 -1t7.5 2t5.5 3.5t3 1.5t2.5 -0.5t4.5 -5.5q-1 -5 3.5 -7t8.5 -3q0 -3 2 -5z"/>
<glyph glyph-name="ocircumflex" horiz-adv-x="323" unicode="" d="M131 358q16 -13 35.5 -20t42.5 -9q-1 7 -2 13t-3 12q-6 28 -22 51q-6 6 -11 7q-1 -3 -5.5 -4t-10 -2t-10.5 -2t-8 -4q-5 -5 -5 -15q0 -5 0.5 -9.5t0.5 -8.5q0 -5 -2 -9zM211 303q-52 2 -92 24q-2 -10 -3 -20.5t-1 -21.5q0 -27 4.5 -54t12 -49.5t18 -36.5t21.5 -14 q17 0 31 34q6 8 8 30t2 46q0 20 -0.5 36.5t-0.5 25.5zM42 430q13 11 25.5 15t23.5 4q20 0 34 -11q5 1 11 1.5t11 0.5q7 0 14 -1.5t13 -2.5q17 -3 32 -20t26.5 -36.5t18 -35t6.5 -16.5q4 -8 15 -5t19 3q17 0 31.5 3.5t26.5 13.5l30 25l-9 -12q-3 -5 -8 -10.5t-11 -13.5 q-13 -17 -31 -23t-39 -6h-11t-11 1q1 -5 1 -10.5v-11.5q0 -21 -3 -44t-9 -45t-14.5 -40.5t-19.5 -30.5q-33 -34 -76 -34q-22 0 -43 8.5t-39.5 23.5t-33 34.5t-22.5 41.5q-8 21 -13 44.5t-5 46.5v5q1 42 17 75.5t43 62.5zM249 532q-2 -2 -5 -3t-6 -3q-10 -2 -15 -2 q-1 0 -4 0.5t-17 2.5q0 1 -5.5 10.5t-13 22t-16 25t-15.5 21.5h-4q-11 -13 -17.5 -22t-13 -17t-14 -15.5t-18.5 -16.5q-5 -5 -20.5 -6.5t-24.5 -3.5v1l10 12q5 5 8.5 9.5t5.5 6.5q12 13 21 22.5t17 19t16 20.5t19 27q3 0 5 0.5t7 0.5q4 1 7 1q5 0 7.5 -4t11.5 -7 q2 -8 10 -15t13 -15q8 -13 15 -22.5t16 -22.5q2 -2 6 -9t14 -18z"/>
<glyph glyph-name="otilde" horiz-adv-x="329" unicode="" d="M131 358q16 -13 35.5 -20t42.5 -9q-1 7 -2 13t-3 12q-6 28 -22 51q-6 6 -11 7q-1 -3 -5.5 -4t-10 -2t-10.5 -2t-8 -4q-5 -5 -5 -15q0 -5 0.5 -9.5t0.5 -8.5q0 -5 -2 -9zM211 303q-52 2 -92 24q-2 -10 -3 -20.5t-1 -21.5q0 -27 4.5 -54t12 -49.5t18 -36.5t21.5 -14 q17 0 31 34q6 8 8 30t2 46q0 20 -0.5 36.5t-0.5 25.5zM42 430q13 11 25.5 15t23.5 4q20 0 34 -11q5 1 11 1.5t11 0.5q7 0 14 -1.5t13 -2.5q17 -3 32 -20t26.5 -36.5t18 -35t6.5 -16.5q4 -8 15 -5t19 3q17 0 31.5 3.5t26.5 13.5l30 25l-9 -12q-3 -5 -8 -10.5t-11 -13.5 q-13 -17 -31 -23t-39 -6h-11t-11 1q1 -5 1 -10.5v-11.5q0 -21 -3 -44t-9 -45t-14.5 -40.5t-19.5 -30.5q-33 -34 -76 -34q-22 0 -43 8.5t-39.5 23.5t-33 34.5t-22.5 41.5q-8 21 -13 44.5t-5 46.5v5q1 42 17 75.5t43 62.5zM326 576q1 -4 1 -8q0 -9 -6.5 -18.5t-18.5 -12.5 q-6 -2 -11.5 -3.5t-9.5 -7.5q-1 -2 -2 -4.5t-2 -4.5q-5 -13 -17 -13q-2 0 -5 1q-14 2 -28 6.5t-28 10.5q-12 6 -21.5 13t-23.5 10q-15 3 -30 3q-12 0 -31.5 -3t-42.5 -17q-5 -2 -8.5 -4.5t-8.5 -4.5t-9.5 -2t-8.5 3q-6 4 -6 10t5 12.5t11 11t9 7.5q30 25 68 33l24 6 q8 -2 16 -3.5t16 -3.5q30 -11 56 -22q11 -5 23 -8t26 -1q12 2 23.5 4.5t22.5 10.5q2 2 6 4q9 6 11 -5z"/>
<glyph glyph-name="odieresis" horiz-adv-x="319" unicode="" d="M131 358q16 -13 35.5 -20t42.5 -9q-1 7 -2 13t-3 12q-6 28 -22 51q-6 6 -11 7q-1 -3 -5.5 -4t-10 -2t-10.5 -2t-8 -4q-5 -5 -5 -15q0 -5 0.5 -9.5t0.5 -8.5q0 -5 -2 -9zM211 303q-52 2 -92 24q-2 -10 -3 -20.5t-1 -21.5q0 -27 4.5 -54t12 -49.5t18 -36.5t21.5 -14 q17 0 31 34q6 8 8 30t2 46q0 20 -0.5 36.5t-0.5 25.5zM42 430q13 11 25.5 15t23.5 4q20 0 34 -11q5 1 11 1.5t11 0.5q7 0 14 -1.5t13 -2.5q17 -3 32 -20t26.5 -36.5t18 -35t6.5 -16.5q4 -8 15 -5t19 3q17 0 31.5 3.5t26.5 13.5l30 25l-9 -12q-3 -5 -8 -10.5t-11 -13.5 q-13 -17 -31 -23t-39 -6h-11t-11 1q1 -5 1 -10.5v-11.5q0 -21 -3 -44t-9 -45t-14.5 -40.5t-19.5 -30.5q-33 -34 -76 -34q-22 0 -43 8.5t-39.5 23.5t-33 34.5t-22.5 41.5q-8 21 -13 44.5t-5 46.5v5q1 42 17 75.5t43 62.5zM148 588q2 -6 0.5 -12.5t-4.5 -11.5q-5 -11 -16 -9 q-17 4 -33.5 10.5t-24.5 25.5q-2 3 -2 6t-1 5q1 13 7 21t15 13q13 6 29 9h1q3 0 6 -3q3 -4 5 -8q5 -11 9 -22.5t9 -23.5zM286 584q-1 -1 -3 -7q-1 -2 -2 -3t-1 -3q0 -8 -5 -12.5t-12 -6.5q-6 -2 -12 -2q-10 0 -17 6q-5 5 -10.5 10t-10.5 10q-6 9 -6 19q0 7 5.5 19t19.5 16 q8 3 16.5 4.5t16.5 3.5l1 1l1 -1q4 -5 9 -8.5t6 -11.5q0 -8 1 -16t3 -18z"/>
<glyph glyph-name="divide" horiz-adv-x="390" unicode="" d="M243 198q0 -2 -0.5 -3t0.5 -3q2 -14 -9 -19q-1 -1 -1.5 -2.5t-1.5 -3.5q-2 -7 -7.5 -10.5t-11.5 -5.5q-5 -1 -9.5 -2t-9.5 -3q-17 0 -30.5 12t-14.5 32q0 15 5 33q1 4 5 5l8 2q14 1 26.5 -0.5t25.5 -2.5l12 -3q13 -5 13 -20v-6zM326 306q3 -5 3 -10q0 -4 -2.5 -11 t-10.5 -7q-18 0 -36 0.5t-36 0.5q-12 0 -23.5 -0.5t-23.5 -1.5q-11 -1 -21 -2t-20 1t-19 1.5t-18 -5.5t-17 -5q-7 0 -14 3q-6 2 -9 7.5t-6 10.5q-3 7 -6 18t-3 13q0 3 3 4q11 2 22 3.5t22 3.5q8 1 14.5 2t14.5 1q11 2 23 2t23 1v-1q16 1 31.5 1t31.5 1q5 0 10.5 1t10.5 2 q2 1 3.5 1t3.5 1q17 3 28.5 -8t20.5 -28zM243 424q0 -2 -1 -2l1 -8q0 -10 -9 -16q-1 -1 -3 -5q-2 -7 -7.5 -10.5t-11.5 -5.5q-5 -2 -9.5 -3t-9.5 -3q-17 0 -30.5 12.5t-14.5 32.5q0 15 5 32q1 5 5 6t8 1q7 1 14 1t16 -1.5t22 -2.5q4 0 12 -2q13 -5 13 -20v-6z"/>
<glyph glyph-name="oslash" horiz-adv-x="351" unicode="" d="M239 333l-2 2q-1 0 -2 -1q-1 -2 -2 -3.5t-2 -3.5q-5 -7 -10.5 -14t-11.5 -14q-9 -11 -19 -22t-18 -22q-17 -26 -40 -42q-9 -7 -10 -11t4 -12q2 -6 3 -8l9 -27q1 -2 2.5 -2.5t2.5 -1.5q2 1 3.5 1t3.5 1q21 6 36 21q12 15 27 27q9 8 12 20q0 6 1 9q2 11 4.5 21.5t4.5 21.5 q2 14 0.5 29.5t3.5 30.5zM212 378q-4 4 -7 8t-10 6q-5 1 -8.5 5.5t-8.5 8.5q-1 1 -2 1.5t-2 1.5q-4 -2 -5 -3q-2 -4 -5.5 -7t-5.5 -7q-7 -14 -14 -28.5t-13 -30.5q-6 -18 -9 -31.5t-3 -21.5q0 -11 3 -22q0 -2 1 -3q2 0 2 1l13.5 13.5t12.5 13.5q5 5 9 10.5t8 10.5 q8 11 15 22.5t15 22.5q2 5 6 8t8 7q6 6 0 14zM311 448q1 -2 1 -3q0 -3 -3 -6q-7 -11 -13.5 -21t-14.5 -21q-5 -6 -4.5 -9.5t6.5 -8.5q7 -4 7 -12q3 -16 5.5 -31.5t4.5 -31.5q1 -2 0.5 -4.5t-0.5 -4.5q-1 -8 -1.5 -16.5t-0.5 -16.5q-1 -4 1 -9q5 -11 0 -25q-5 -10 -8.5 -19.5 t-8.5 -20.5q0 -2 -2 -2q-11 -8 -16 -18.5t-11 -20.5q-7 -11 -19 -20q-6 -4 -10 -9t-9 -10q-14 -15 -27 -22q-11 -7 -22.5 -12t-24.5 -7q-21 -2 -32.5 -2.5t-13.5 -0.5q-18 0 -36 7q-15 4 -30 16q-6 5 -13 1q-11 -7 -11 -15q-1 -11 -6 -20t-10 -17q-4 -7 -8 -13l-8 -12 q-5 -6 -9 -11t-9 -10q-4 -4 -9 -4q-3 0 -8.5 2.5t-7.5 11.5q-1 1 -1 3q0 3 3 5q5 7 9 13t9 12q9 13 20 26q5 6 11 11t11 10t9 9.5t8 9.5q5 4 1 10q-14 21 -18 43q-2 15 -3.5 30t-3.5 29v14q0 23 5.5 49t13.5 55q5 22 14.5 42t25.5 37q5 5 8 11t8 11q3 5 9 10q12 8 23 14 q3 2 7 2t9 1h10.5t10.5 -2q11 -3 21 2q6 2 11 2q2 0 6.5 -0.5t12.5 -2.5q4 -2 8 -3t8 -4t8 -6.5t6 -7.5q2 -8 7.5 -9.5t11.5 -3.5q2 -1 4.5 -1t4.5 -2q5 -6 8 2q2 4 4 7t4 8q3 11 11.5 13t18.5 4h15q5 1 7 -0.5t5 -4.5z"/>
<glyph glyph-name="ugrave" horiz-adv-x="406" unicode="" d="M17 360q-1 -3 -1 -8q1 2 1 4v4zM32 443q25 19 50 19q23 0 38.5 -15.5t15.5 -41.5q0 -13 -4 -25l-1 -1l-4 -44q-5 -24 -12.5 -47.5t-11.5 -49.5q-2 -9 -1.5 -18.5t-3.5 -18.5l-1 -1q0 -10 -2.5 -21.5t-2.5 -21.5q0 -15 10 -19q5 -2 8.5 -3t8.5 -1q22 0 41.5 20t35 48.5 t27 58.5t17.5 50q10 25 15.5 41t16.5 33q13 10 24 10q22 0 28 -26q3 -9 3 -21q0 -23 -6 -47q-6 -22 -6 -39l-1 -18q0 -12 -2 -22v7q-1 -8 -2.5 -24t-2.5 -34q2 -8 3 -17t3 -17q1 -5 4.5 -22t10.5 -27h2q6 0 14 4t19 15q11 10 20 20.5t17 21.5q24 30 42 66t37 67q3 10 8.5 25 t11.5 28.5t12 21.5t11 4t5 -11t-8.5 -21.5t-27.5 -52.5q-18 -36 -32 -72t-37 -71q-8 -13 -16.5 -25.5t-19.5 -23.5q-20 -19 -36 -27t-29 -8q-18 0 -29.5 13.5t-18.5 35t-10 48t-3 53.5q-10 -20 -21 -38.5t-25 -36.5q-26 -35 -58 -57.5t-63 -22.5q-28 0 -51 22.5t-35 73.5 q-5 19 -6.5 39t-1.5 40q0 16 1 31.5t3 30.5q2 16 5 31t6 29v5v-1v4q1 7 1 13.5v12.5q0 20 3 35.5t14 32.5zM145 617q-9 11 -16 16.5t-12 17.5l-7 11q0 2 7 7q29 -14 53.5 -32t45.5 -35q10 -8 26 -15t21 -16q2 -2 5 -2.5t5 -2.5q-2 -2 -2 -3t-2 -3q-4 -1 -8 -3t-4 -7 q-3 -5 -4 -5.5t-2 -0.5q-2 0 -4 1.5t-5 3.5t-7 2t-8 -1t-9 0q-9 4 -15 11z"/>
<glyph glyph-name="uacute" d="M17 360q-1 -3 -1 -8q1 2 1 4v4zM32 443q25 19 50 19q23 0 38.5 -15.5t15.5 -41.5q0 -13 -4 -25l-1 -1l-4 -44q-5 -24 -12.5 -47.5t-11.5 -49.5q-2 -9 -1.5 -18.5t-3.5 -18.5l-1 -1q0 -10 -2.5 -21.5t-2.5 -21.5q0 -15 10 -19q5 -2 8.5 -3t8.5 -1q22 0 41.5 20t35 48.5 t27 58.5t17.5 50q10 25 15.5 41t16.5 33q13 10 24 10q22 0 28 -26q3 -9 3 -21q0 -23 -6 -47q-6 -22 -6 -39l-1 -18q0 -12 -2 -22v7q-1 -8 -2.5 -24t-2.5 -34q2 -8 3 -17t3 -17q1 -5 4.5 -22t10.5 -27h2q6 0 14 4t19 15q11 10 20 20.5t17 21.5q24 30 42 66t37 67q3 10 8.5 25 t11.5 28.5t12 21.5t11 4t5 -11t-8.5 -21.5t-27.5 -52.5q-18 -36 -32 -72t-37 -71q-8 -13 -16.5 -25.5t-19.5 -23.5q-20 -19 -36 -27t-29 -8q-18 0 -29.5 13.5t-18.5 35t-10 48t-3 53.5q-10 -20 -21 -38.5t-25 -36.5q-26 -35 -58 -57.5t-63 -22.5q-28 0 -51 22.5t-35 73.5 q-5 19 -6.5 39t-1.5 40q0 16 1 31.5t3 30.5q2 16 5 31t6 29v5v-1v4q1 7 1 13.5v12.5q0 20 3 35.5t14 32.5zM300 602q-2 -2 -5 -2t-5 -3q-5 -9 -21.5 -16t-26.5 -15q-21 -17 -45.5 -33.5t-52.5 -32.5q-7 4 -7 7l6 11q5 11 12.5 17t16.5 16q7 8 16.5 17.5l17.5 17.5 q5 3 7.5 5.5t7.5 5.5q5 5 9 12t15 10q3 1 7.5 0t8.5 -1t7.5 2t5.5 3.5t3 1.5t2.5 -0.5t4.5 -5.5q-1 -5 3.5 -7t8.5 -3q0 -3 2 -5z" unicode=""/>
<glyph glyph-name="ucircumflex" horiz-adv-x="426" unicode="" d="M17 360q-1 -3 -1 -8q1 2 1 4v4zM32 443q25 19 50 19q23 0 38.5 -15.5t15.5 -41.5q0 -13 -4 -25l-1 -1l-4 -44q-5 -24 -12.5 -47.5t-11.5 -49.5q-2 -9 -1.5 -18.5t-3.5 -18.5l-1 -1q0 -10 -2.5 -21.5t-2.5 -21.5q0 -15 10 -19q5 -2 8.5 -3t8.5 -1q22 0 41.5 20t35 48.5 t27 58.5t17.5 50q10 25 15.5 41t16.5 33q13 10 24 10q22 0 28 -26q3 -9 3 -21q0 -23 -6 -47q-6 -22 -6 -39l-1 -18q0 -12 -2 -22v7q-1 -8 -2.5 -24t-2.5 -34q2 -8 3 -17t3 -17q1 -5 4.5 -22t10.5 -27h2q6 0 14 4t19 15q11 10 20 20.5t17 21.5q24 30 42 66t37 67q3 10 8.5 25 t11.5 28.5t12 21.5t11 4t5 -11t-8.5 -21.5t-27.5 -52.5q-18 -36 -32 -72t-37 -71q-8 -13 -16.5 -25.5t-19.5 -23.5q-20 -19 -36 -27t-29 -8q-18 0 -29.5 13.5t-18.5 35t-10 48t-3 53.5q-10 -20 -21 -38.5t-25 -36.5q-26 -35 -58 -57.5t-63 -22.5q-28 0 -51 22.5t-35 73.5 q-5 19 -6.5 39t-1.5 40q0 16 1 31.5t3 30.5q2 16 5 31t6 29v5v-1v4q1 7 1 13.5v12.5q0 20 3 35.5t14 32.5zM303 523q-2 -2 -5 -3t-6 -3q-10 -2 -15 -2q-1 0 -4 0.5t-17 2.5q0 1 -5.5 10.5t-13 22t-16 25t-15.5 21.5h-4q-11 -13 -17.5 -22t-13 -17t-14 -15.5t-18.5 -16.5 q-5 -5 -20.5 -6.5t-24.5 -3.5v1l10 12q5 5 8.5 9.5t5.5 6.5q12 13 21 22.5t17 19t16 20.5t19 27q3 0 5 0.5t7 0.5q4 1 7 1q5 0 7.5 -4t11.5 -7q2 -8 10 -15t13 -15q8 -13 15 -22.5t16 -22.5q2 -2 6 -9t14 -18z"/>
<glyph glyph-name="udieresis" horiz-adv-x="424" unicode="" d="M17 360q-1 -3 -1 -8q1 2 1 4v4zM32 443q25 19 50 19q23 0 38.5 -15.5t15.5 -41.5q0 -13 -4 -25l-1 -1l-4 -44q-5 -24 -12.5 -47.5t-11.5 -49.5q-2 -9 -1.5 -18.5t-3.5 -18.5l-1 -1q0 -10 -2.5 -21.5t-2.5 -21.5q0 -15 10 -19q5 -2 8.5 -3t8.5 -1q22 0 41.5 20t35 48.5 t27 58.5t17.5 50q10 25 15.5 41t16.5 33q13 10 24 10q22 0 28 -26q3 -9 3 -21q0 -23 -6 -47q-6 -22 -6 -39l-1 -18q0 -12 -2 -22v7q-1 -8 -2.5 -24t-2.5 -34q2 -8 3 -17t3 -17q1 -5 4.5 -22t10.5 -27h2q6 0 14 4t19 15q11 10 20 20.5t17 21.5q24 30 42 66t37 67q3 10 8.5 25 t11.5 28.5t12 21.5t11 4t5 -11t-8.5 -21.5t-27.5 -52.5q-18 -36 -32 -72t-37 -71q-8 -13 -16.5 -25.5t-19.5 -23.5q-20 -19 -36 -27t-29 -8q-18 0 -29.5 13.5t-18.5 35t-10 48t-3 53.5q-10 -20 -21 -38.5t-25 -36.5q-26 -35 -58 -57.5t-63 -22.5q-28 0 -51 22.5t-35 73.5 q-5 19 -6.5 39t-1.5 40q0 16 1 31.5t3 30.5q2 16 5 31t6 29v5v-1v4q1 7 1 13.5v12.5q0 20 3 35.5t14 32.5zM168 538q2 -6 0.5 -12.5t-4.5 -11.5q-5 -11 -16 -9q-17 4 -33.5 10.5t-24.5 25.5q-2 3 -2 6t-1 5q1 13 7 21t15 13q13 6 29 9h1q3 0 6 -3q3 -4 5 -8q5 -11 9 -22.5 t9 -23.5zM306 534q-1 -1 -3 -7q-1 -2 -2 -3t-1 -3q0 -8 -5 -12.5t-12 -6.5q-6 -2 -12 -2q-10 0 -17 6q-5 5 -10.5 10t-10.5 10q-6 9 -6 19q0 7 5.5 19t19.5 16q8 3 16.5 4.5t16.5 3.5l1 1l1 -1q4 -5 9 -8.5t6 -11.5q0 -8 1 -16t3 -18z"/>
<glyph glyph-name="yacute" horiz-adv-x="412" unicode="" d="M206 -136q1 20 1 39t-1 38l-21.5 -21.5t-19.5 -24.5q-20 -29 -24 -50t-4 -31q0 -23 10 -48q4 -8 8 -17.5t9 -18.5q0 1 1 1q5 2 7 -5t7 -10q0 -1 1 -1q5 5 6.5 10.5t3.5 10.5q9 29 11.5 64t4.5 64zM177 277q-9 20 -9 37q0 8 4.5 23.5t20 24.5t30.5 9q7 0 22.5 -3t34.5 -30 q11 -21 14 -42t3 -40q0 -3 -0.5 -16.5t-3 -37t-2.5 -46.5v-108q32 18 55 45t28 47q19 83 34 131.5t24 66.5t11 12.5t2 -12.5q0 -10 -3.5 -33t-16.5 -70.5t-35 -106.5q-5 -12 -16.5 -30.5t-26 -37.5t-30 -35.5t-26.5 -23.5q0 -56 -4 -111.5t-15 -111.5q-4 -20 -10.5 -45 t-18.5 -45.5t-27 -30t-29 -9.5q-10 0 -21 3q-29 8 -47 35.5t-26 59.5t-8 61q0 5 1 25t11 42q16 38 44 67t62 52q-2 28 -5.5 56t-6.5 56q-14 -21 -32 -38.5t-37.5 -28t-30 -11t-12.5 -0.5q-19 0 -36 13q-15 10 -23 38.5t-11.5 61t-5 63.5t-3.5 47l-4 30l-4 30q0 1 -0.5 4.5 t-0.5 7.5v6l9 33q8 14 20 19.5t24 5.5q5 0 16.5 -1.5t30.5 -14.5q6 -11 11.5 -17t7.5 -20q2 -11 0 -17t-4 -15l-2 -4q0 4 1 10.5t1.5 11.5t0.5 7t-1 -1q-10 -57 -17.5 -109t-7.5 -91q0 -22 2 -43q9 -5 21.5 -1.5t26.5 11.5t29 20.5t28 25.5q-1 4 -1 14q-2 26 -2.5 53 t-2.5 54q-1 1 -2 8t-3 10zM290 562q-2 -2 -5 -2t-5 -3q-5 -9 -21.5 -16t-26.5 -15q-21 -17 -45.5 -33.5t-52.5 -32.5q-7 4 -7 7l6 11q5 11 12.5 17t16.5 16q7 8 16.5 17.5l17.5 17.5q5 3 7.5 5.5t7.5 5.5q5 5 9 12t15 10q3 1 7.5 0t8.5 -1t7.5 2t5.5 3.5t3 1.5t2.5 -0.5 t4.5 -5.5q-1 -5 3.5 -7t8.5 -3q0 -3 2 -5z"/>
<glyph glyph-name="thorn" horiz-adv-x="469" unicode="" d="M361 456q1 10 -5 14.5t-15 2.5q-10 -2 -15 -2q-22 0 -36 -14q-3 -2 -6.5 -4.5t-7.5 -4.5q-14 -7 -24 -18t-20 -23q-4 -4 -6 -10t-3 -11q0 -9 -2 -17.5t-4 -16.5q-1 -4 -1.5 -7.5t-1.5 -8.5q1 -4 2 -9t3 -10q1 -4 6 -2q15 8 30 15t28 19l57 54q11 11 15 24.5t6 28.5z M411 388q-2 -26 -16.5 -44t-34.5 -32q-11 -8 -22 -15.5t-22 -15.5q-13 -10 -33 -12q-7 -1 -13.5 -1t-13.5 -1q-3 0 -6 -1t-7 -2q-9 -3 -8 -13q1 -15 1.5 -29t1.5 -26q-1 -23 -1.5 -43.5t-2.5 -40.5q-1 -11 -4 -22.5t-6 -22.5q-1 -5 -2 -10.5t-2 -11.5q-2 -13 -5.5 -24.5 t-8.5 -23.5q-3 -7 -7.5 -13t-14.5 -7q-4 0 -5 -2q-7 -7 -11.5 -7.5t-6.5 -0.5q-6 0 -13 2q-12 2 -24 0.5t-25 0.5q-8 2 -13.5 6t-6.5 12q-2 12 -3.5 24t-3.5 24q-1 7 -1.5 14t-1.5 15q-4 26 -5 52.5t-1 52.5q0 12 -1.5 24.5t-3.5 25.5q-1 12 -1.5 24.5t-2.5 24.5 q-2 15 -3 30t-3 29q-1 8 -1.5 16t-1.5 16v48q0 32 2.5 62.5t10.5 61.5q2 6 2 12v12q0 8 9 8q50 -3 94 -27q7 -5 9.5 -11t5.5 -13q3 -5 6 -9.5t5 -9.5q2 -6 3.5 -12.5t3.5 -12.5l3 -24q3 -9 10 -4q11 8 22 15l22 14q11 8 22 12.5t25 4.5q13 0 25.5 1.5t24.5 -0.5q14 -1 26 -8 t19 -21q0 -2 1 -3q14 -15 15 -28t1 -22t-1 -18z"/>
<glyph glyph-name="OE" horiz-adv-x="813" unicode="" d="M393 286q-1 11 -2 21.5t-3 21.5l-2 14t-3 14q-1 5 -2.5 10t-0.5 10q3 14 -2 29q-1 5 -4 9.5t-4 9.5q-2 12 -3 23.5t-2 22.5q-1 7 -2 13.5t-4 12.5q-3 5 -6 11t-4 12q-5 24 -23 34q-6 3 -10.5 6.5t-6.5 9.5q-1 5 -7 9q-5 4 -8 1q-5 -5 -7 -3.5l-6 4.5q-3 4 -8.5 8t-9.5 3 q-6 -2 -9.5 -8t-5.5 -14q-2 -5 -3.5 -11t-3.5 -11q-2 -8 -2 -10q-4 -14 -6.5 -27t-6.5 -27q-9 -33 -12 -68l-2 -24t-2 -23q-2 -14 -3 -28.5t-1 -28.5q0 -17 1 -34l2 -34h-2q2 -13 2.5 -25.5t2.5 -25.5q3 -20 6.5 -39.5t8.5 -39.5q5 -17 11 -33.5t16 -31.5q6 -11 10 -12t15 3 q14 5 26.5 12t24.5 16q11 8 18.5 19.5t15.5 23.5q2 6 3 10q2 11 3 21.5t3 21.5q1 7 3 13.5t2 13.5q1 19 4 36.5t8 35.5q3 10 3 23zM774 -21q-7 -14 -18.5 -20t-25.5 -6q-31 0 -61 -4t-60 -9q-20 -4 -41 -4q-25 0 -51 6q-15 3 -30 7t-29 9q-3 2 -5 4.5t-5 4.5q-21 20 -27 47 q-2 10 -7 2q-3 -3 -5.5 -6t-4.5 -6q-5 -13 -13 -21.5t-19 -15.5q-6 -5 -11.5 -9t-10.5 -11q-3 -6 -12 -8q-35 -14 -66.5 -21.5t-59.5 -7.5q-10 0 -20 1q-26 2 -47.5 11.5t-39.5 27.5q-8 9 -14 18.5t-12 19.5q-22 32 -34 67t-19 72q-5 19 -6.5 38t-3.5 38q-1 9 -1.5 17.5 t-1.5 16.5q-1 15 -2 29t-2 27q2 22 2 41.5t3 38.5q4 25 7 50t11 49q5 17 9.5 35t11.5 35q9 23 19 44.5t25 40.5q10 13 22 25q3 3 9 3q11 0 21 -0.5t21 -0.5q6 -2 10 -1q8 1 15 1q9 0 21 -2t29 -5l16 -4t16 -3q4 -1 8 0t9 3q4 1 7 1q15 0 15 -18v-3v-6q0 -18 17 -24 q7 -2 12.5 -8t10.5 -11q4 -4 5 -1.5t2 4.5q0 2 -0.5 3t-0.5 3q-1 10 -1.5 19.5t-2.5 19.5v9t-4 9q-4 3 -2 6t5 4q6 3 13 3q11 -1 22 -2.5t22 -0.5q8 0 15 1.5t15 3.5q32 8 63 10.5t63 3.5h16t16 -1q14 -2 27 -8.5t26 -13.5q5 -3 11 -5t11 -6q8 -7 8 -14t-1 -14 q0 -8 -5.5 -10.5t-11.5 -4.5q-9 -2 -18 -2.5t-18 -1.5l-102 -6q-12 -1 -16 -5t-4 -16q0 -16 4 -28q13 -29 13 -57q1 -27 1.5 -53.5t1.5 -52.5q0 -6 1 -9q2 -15 5 -16.5t18 -1.5q13 -1 26 -3l26 -4q5 -2 9 -9q7 -8 -3 -14q-8 -4 -13 -4h-52q-8 1 -9.5 0t-1.5 -10q0 -31 3 -61 q1 -10 -1.5 -19t-4.5 -19q-2 -9 -2 -18.5v-19.5q0 -8 1 -15.5t1 -15.5q-2 -19 -2.5 -37.5t-5.5 -37.5q-3 -10 -3 -21t-1 -22v-7q0 -3 -0.5 -6.5t-0.5 -6.5q4 0 7 -1t7 0q25 4 49 7.5t48 8.5q4 0 5 1q12 9 25 9.5t27 -1.5q12 -1 24.5 -0.5t25.5 0.5h3q17 0 30 -12q8 -6 8 -13 q0 -6 -4 -13z"/>
<glyph glyph-name="oe" horiz-adv-x="551" unicode="" d="M250 234h-2v21q0 8 -8 8q-11 1 -21.5 3t-19.5 9q-5 5 -10.5 9t-10.5 8q-1 1 -6 4q-1 -2 -2 -3.5t-1 -3.5q0 -8 -2.5 -16.5t-0.5 -17.5q1 -4 -3 -12q-1 -5 -2.5 -8.5t-1.5 -8.5q-1 -12 -1.5 -24.5t1.5 -24.5q1 -10 2.5 -19t2.5 -18q0 -11 3 -20.5t8 -19.5q4 -9 12 -4 q5 4 11 7.5t11 7.5q15 10 23.5 23t8.5 32q0 7 1 11q2 14 4 28.5t4 28.5zM257 324q0 5 -0.5 11t-1.5 11q-1 6 -1.5 11.5t-1.5 11.5h2q-2 8 -3 16t-3 16h-2l-2 -1q-3 -6 -8.5 -7.5t-11.5 -3.5q-5 -2 -10 -5l-7.5 -7.5t-6.5 -8.5q-5 -9 -10.5 -18.5t2.5 -21.5v-3q0 -20 14 -32 q12 -13 30 -13q3 0 7 1q6 0 8 7zM422 422l-9 18q-3 6 -8.5 8t-11.5 2q-2 0 -5 -3l-5 -5q-2 -6 -3 -12l-2 -12q-2 -10 -4 -19.5t-4 -18.5q-2 -8 -3.5 -15t-3.5 -14q2 -5 2.5 -9t1.5 -8q3 2 6.5 3.5t7.5 3.5q8 6 11 9l4.5 4.5t2.5 5.5q2 13 7.5 23.5t13.5 21.5q5 7 2 17z M574 177q-5 -14 -9 -29t-9 -29q-3 -11 -9 -20t-14 -17l-4.5 -4.5t-3.5 -4.5q-3 -13 -12 -20.5t-15 -17.5q-6 -9 -15 -13q-7 -2 -12.5 -6t-12.5 -7l-3 -3q-11 -2 -21 -7.5t-21 -9.5q-5 -2 -10.5 -2t-11.5 -1q-26 2 -50.5 10t-45.5 25q-12 10 -20.5 22t-15.5 26q-3 9 -7 2 q-11 -18 -27.5 -25.5t-34.5 -15.5q-13 -5 -26 -5q-6 0 -18 2.5t-30 10.5q-37 17 -59 45.5t-36 65.5q-11 30 -13 54t-2 41q0 14 1 28q2 29 8 56.5t16 54.5q8 23 21 41.5t26 38.5q1 3 4 4q12 3 24 4.5t24 -0.5q10 -2 19.5 -2.5t19.5 -2.5q6 0 8 1q6 1 12 1q10 0 19 -4 q2 -2 4.5 -1.5t4.5 0.5q4 -1 8 -1h8q20 -1 31 -18q5 -9 9 1q5 13 14.5 22t16.5 21q1 2 4.5 2h6.5q17 -3 34.5 -6.5t34.5 -5.5q15 -2 27.5 -9.5t23.5 -15.5q7 -5 12 -13t9 -16q2 -4 1 -9t-3 -10q-4 -11 -6.5 -21.5t-3.5 -21.5q-1 -3 -2.5 -5.5t-3.5 -4.5q-9 -8 -18 -15 t-17 -15q-3 -2 -9 -8l-7.5 -7.5t-8.5 -6.5q-6 -5 -7 -8.5t2 -11.5q2 -7 1 -14t-3 -13q-2 -12 -3.5 -23t1.5 -23q2 -4 1.5 -8t-0.5 -9q1 -26 4.5 -52t14.5 -51q3 -8 5.5 -15t6.5 -15q4 -10 17.5 -16.5t22.5 -2.5q13 6 25 18q5 6 9.5 12.5t9.5 13.5q4 5 7 10t5 10q12 31 30 60 q8 13 7 26q0 3 2 9q6 18 22 8q4 -2 7 -5.5t6 -6.5q4 -4 4 -10q0 -3 -1 -6z"/>
<glyph glyph-name="Scaron" horiz-adv-x="438" unicode="" d="M119 548q-4 -18 -4 -36q0 -12 2 -23q23 14 47 30t42 34q14 22 16 45v6q0 19 -13 36q-5 5 -9 5t-11 2l-21 -5l-5 -10q-3 -3 -5 -7t-6 -8q-8 -17 -19 -33t-14 -36zM168 150q-9 11 -5 22l-37 74l-3 5q-27 -21 -47 -41t-26 -37q-8 -23 -12 -43q-2 -9 -1 -19q0 -12 2 -26 q5 -29 25 -56t44 -45l48 -9q6 1 10 1t9 2q9 6 16 13q2 20 10 33q0 14 -2 28t-5 30q-2 18 -8 36t-18 32zM137 749h8q20 0 34 -8q17 -10 25 -25q9 -10 20 -23q11 -15 17 -29t11 -31q6 -17 6 -33q0 -10 -2 -18q-6 -24 -22 -44t-38 -36t-46 -29l-3 -2q-5 -5 -11 -9t-10 -9 q8 -25 14 -45t14 -40q8 -19 16 -37t19 -37h4q9 0 27 6q22 8 47 20t47 28q22 15 30 27q6 5 16 11t23 13q-8 -11 -26 -35t-42 -48q-25 -24 -53 -38q-19 -10 -36 -11q-9 0 -19 3l10 -25q9 -17 27 -46t32 -61t20 -66q2 -10 2 -19q0 -21 -10 -39q-18 -33 -48 -47q-29 -14 -63 -14 q-1 1 -3 1q-34 0 -70 13t-64 35t-46 52q-18 29 -18 62q0 14 -2 28v6q0 10 4 19q6 14 14 18t16 15q20 26 46 40t56 29q-32 53 -58 103t-38 99q-6 27 -6 54q0 25 4 49q10 52 50 111q16 23 32 39t43 23zM253 890l-10 -12q-5 -6 -9 -10t-5 -6q-12 -12 -21 -22t-17 -20l-16 -20 q-8 -11 -19 -27q-3 -1 -5 -1h-7q-4 -1 -7 -1q-5 0 -7 3q-3 5 -12 8q-2 8 -10 15t-13 15q-8 12 -15 22t-16 23q-2 2 -6 9t-14 18q2 2 5 3t6 3q10 2 15 2h2q4 0 19 -3q-1 -2 5 -11q6 -10 14 -22l16 -24t15 -22h4q10 13 17 22q8 9 14 17q6 7 14 15t18 17q4 5 20 7t25 2z"/>
<glyph glyph-name="scaron" horiz-adv-x="279" unicode="" d="M113 500q30 0 49.5 -14t39.5 -34l5 -6q18 -18 34 -45.5t16 -54.5q0 -30 -26 -50q-5 -5 -10 -6t-10 -1t-11.5 6.5t-12.5 14t-10 14t-5 6.5q8 0 17 -1.5t17 -1.5q9 0 15.5 3t6.5 12q0 2 0.5 4t0.5 4q0 16 -7.5 30.5t-18.5 25t-24.5 17t-25.5 6.5q-9 0 -21 -8.5t-20 -18.5 q-1 -1 -0.5 -10t2 -19.5t3 -20t1.5 -11.5q0 -17 16.5 -42.5t36.5 -57t36.5 -66t16.5 -68.5q0 -5 -1.5 -16.5t-4 -24.5t-5 -24.5t-3.5 -14.5q-11 -23 -22.5 -37.5t-23 -24t-23 -15.5t-21.5 -12q-20 -11 -37.5 -20t-41.5 -9h-4q-19 0 -34.5 8t-26 20t-16.5 27.5t-6 30.5 q0 14 6.5 29.5t18.5 29t28.5 24.5t37.5 16q1 1 7 1.5t12 0.5q9 0 9 -2q0 -4 -21 -15q-12 -7 -21.5 -18.5t-16 -23.5t-10 -24t-3.5 -20q0 -20 11.5 -33.5t28.5 -13.5q23 0 43 28q15 22 15 52q0 21 -5.5 43t-13 43t-16 40t-14.5 34q-7 18 -15.5 39t-16 44t-12.5 46t-5 46 q0 28 8 48q7 18 17 34t23.5 29t29.5 20.5t34 7.5zM118 502q-2 8 -10 15t-13 15q-8 13 -15 22.5t-16 22.5q-2 2 -6 9t-14 18q2 2 5 3t6 3q10 2 15 2q1 0 4 -0.5t17 -2.5q0 -2 5.5 -11t13 -21.5t16 -25t15.5 -21.5h4q10 13 17 22t13.5 17t14 15.5t18.5 16.5q5 5 20.5 6.5 t24.5 3.5v-1l-10 -12q-5 -5 -8.5 -9.5t-5.5 -6.5z"/>
<glyph glyph-name="Ydieresis" horiz-adv-x="650" unicode="" d="M374 -100l-4 53q-20 -23 -39.5 -47.5t-38.5 -48.5q-29 -35 -46 -74t-19 -87q-1 -17 0 -26.5t5 -14t12.5 -5.5t22.5 -2q28 3 46.5 24.5t30 50.5t16.5 59.5t8 51.5zM114 605q22 18 46 18q10 0 33.5 -7t77.5 -59q7 -4 13.5 -2t11 3t7 -1.5t2.5 -14.5q-10 -21 -20.5 -54 t-20.5 -72.5t-19 -82t-14.5 -81.5t-6.5 -59.5t-1 -28.5q0 -21 3 -37q0 -2 3 -0.5t7 4.5t7 6t5 4q19 7 29.5 14.5t28.5 17.5l21 30q0 13 1 36t3.5 47.5t5 47.5t4.5 36q3 21 8.5 45.5t16 47t26.5 38.5t42 19q17 2 31 -1.5t26 -16.5q14 -20 16 -40q7 -10 12 -26 q-5 -88 -16 -175.5t-26 -175.5q16 14 30.5 28t29.5 28q27 24 51.5 44.5t46.5 43.5t40.5 53t33.5 73q6 17 13.5 31.5t10.5 28.5q-1 -13 -5 -22.5t-9 -22.5q-7 -20 -11.5 -39.5t-13.5 -39.5q-12 -27 -27.5 -49t-33.5 -41.5t-38 -38.5t-40 -40q-16 -17 -31 -34t-33 -32 q-5 -5 -11 -8.5t-12 -8.5l-2 -13q-1 -3 -1 4q-5 -69 -10.5 -138.5t-25.5 -137.5q-4 -14 -10.5 -32.5t-15.5 -37t-20 -34.5t-24 -25q-14 -10 -27.5 -19.5t-28.5 -16.5q-16 -7 -34 -7q-2 0 -14 0.5t-31.5 8.5t-34 22.5t-18.5 34.5q-3 15 -3 30q0 8 1.5 23t4.5 37q4 33 19 62 t34.5 55t42.5 50t44 46q13 14 25 28.5t25 27.5q-1 26 -3 40.5t-6 26.5t-10 26.5t-15 40.5q-11 -9 -22 -16.5t-22 -15.5q-20 -16 -38.5 -26t-35.5 -11h-10q-15 0 -26 4q-11 0 -23 3q-4 1 -7 4l-5 5q-19 21 -30 38t-16 34t-6.5 37.5t-1.5 49.5q0 24 -2 56t-2.5 57t-0.5 39 q0 22 1 52t7 66q-25 -12 -49.5 -31t-45.5 -40.5t-38 -43t-27 -38.5q6 34 16 55t25 37.5t34.5 32t43.5 38.5l64 54zM428 588q2 -6 0.5 -12.5t-4.5 -11.5q-5 -11 -16 -9q-17 4 -33.5 10.5t-24.5 25.5q-2 3 -2 6t-1 5q1 13 7 21t15 13q13 6 29 9h1q3 0 6 -3q3 -4 5 -8 q5 -11 9 -22.5t9 -23.5zM566 564q-1 -1 -3 -7q-1 -2 -2 -3t-1 -3q0 -8 -5 -12.5t-12 -6.5q-6 -2 -12 -2q-10 0 -17 6q-5 5 -10.5 10t-10.5 10q-6 9 -6 19q0 7 5.5 19t19.5 16q8 3 16.5 4.5t16.5 3.5l1 1l1 -1q4 -5 9 -8.5t6 -11.5q0 -8 1 -16t3 -18z"/>
<glyph glyph-name="circumflex" horiz-adv-x="309" unicode="" d="M212 718q-2 -2 -5 -3t-6 -3q-10 -2 -15 -2q-1 0 -4 0.5t-17 2.5q0 1 -5.5 10.5t-13 22t-16 25t-15.5 21.5h-4q-11 -13 -17.5 -22t-13 -17t-14 -15.5t-18.5 -16.5q-5 -5 -20.5 -6.5t-24.5 -3.5v1l10 12q5 5 8.5 9.5t5.5 6.5q12 13 21 22.5t17 19t16 20.5t19 27q3 0 5 0.5 t7 0.5q4 1 7 1q5 0 7.5 -4t11.5 -7q2 -8 10 -15t13 -15q8 -13 15 -22.5t16 -22.5q2 -2 6 -9t14 -18z"/>
<glyph glyph-name="tilde" horiz-adv-x="529" unicode="" d="M466 747q1 -4 1 -8q0 -9 -6.5 -18.5t-18.5 -12.5q-6 -2 -11.5 -3.5t-9.5 -7.5q-1 -2 -2 -4.5t-2 -4.5q-5 -12 -17 -12h-5q-14 2 -28 6.5t-28 10.5q-12 6 -21.5 13t-23.5 10q-15 3 -30 3q-12 0 -31.5 -3t-42.5 -17q-5 -2 -8.5 -4.5t-8.5 -4.5t-9.5 -2t-8.5 3q-6 4 -6 10 t5 12.5t11 11t9 7.5q30 25 68 33l24 6q8 -2 16 -3.5t16 -3.5q30 -11 56 -22q11 -5 23 -8t26 -1q12 2 23.5 4.5t22.5 10.5q2 2 6 4q9 6 11 -5z"/>
<glyph glyph-name="pi" horiz-adv-x="431" unicode="" d="M419 371q2 -4 2 -7t-2.5 -6t-7.5 -6q-15 -10 -30 -10q-6 0 -12 -1l-12 -2l-36 -3q-1 0 -7 -2q-4 -1 -1 -6q1 -1 1 -5q-1 -5 3.5 -9t-0.5 -10q-4 -4 -4.5 -10t-1.5 -11q-2 -6 -2.5 -12.5t-1.5 -12.5q0 -12 -0.5 -24t1.5 -23t2 -22v-22q0 -8 -1 -16l-2 -16q-2 -17 -3 -33.5 t-3 -33.5q-1 -15 0 -29q1 -6 -1.5 -8.5t-7.5 -5.5q-7 -6 -13 -2h-2q-17 7 -23 13.5t-10 23.5q-8 29 -8 54q0 12 1.5 24t3.5 24q1 11 2 21.5t2 21.5v72q0 11 1.5 20.5t3.5 19.5q1 5 1 9q0 13 -14 14q-3 0 -7 -1q-5 -1 -11 -1t-12 -2t-9 -4t-2 -5t2 -5q0 -5 -0.5 -10.5 t-0.5 -10.5q-2 -10 -3.5 -19.5t-0.5 -18.5q0 -21 -9 -39q-8 -17 -10.5 -34.5t-4.5 -36.5q0 -12 -2 -24t-5 -24q-2 -9 -4.5 -18t-2.5 -19q0 -14 -3 -24q-2 -5 -2.5 -9.5t2.5 -9.5q-3 -9 -2.5 -18.5t-0.5 -18.5q0 -4 -5 -7.5t-8 -3.5h-2q-8 2 -15.5 5t-14.5 10 q-13 13 -19 28.5t-10 32.5q-5 21 -6 43t-1 44v17v11q0 14 2 31.5t5 37.5q2 14 2 29v29q-1 10 -3 19.5t3 19.5q1 4 -4 6q-4 2 -7 2q-9 2 -17.5 5.5t-16.5 7.5q-1 1 -2 1t-2 1q-9 13 -22 22q-1 1 -1 2l1 1q0 1 2 1q16 4 31 8t32 5q14 1 27.5 2t27.5 3q2 0 3 0.5t3 0.5 q34 1 67 1.5t67 1.5q12 0 24.5 1t24.5 2h36h3q30 0 56 -21q2 -2 4 -2.5t4 -2.5q3 -1 3 -4z"/>
<glyph glyph-name="endash" horiz-adv-x="585" unicode="" d="M570 239q0 -9 -6 -17.5t-16 -8.5q-51 0 -100.5 4.5t-100.5 4.5q-17 0 -39.5 -6.5t-39.5 -10.5l-9 2l-16 -5q-29 6 -58 8t-58 10l-21 -3q-5 4 -10.5 6.5t-11.5 4.5q-7 7 -20 7q-14 0 -26 -5t-23 -13q0 23 2.5 47t10.5 47q13 0 24 -6t24 -6q45 0 87.5 3t85.5 3 q24 0 48.5 -2.5t48.5 -2.5q38 0 76 8.5t76 13.5q16 -13 30 -27.5t34 -22.5v-15z"/>
<glyph glyph-name="emdash" horiz-adv-x="1020" unicode="" d="M988 239q-1 -9 -6.5 -17.5t-15.5 -8.5l-401 9q-7 0 -17.5 1t-21.5 1.5l-22 1t-18 -0.5l-9 2l-16 -5q-33 4 -78 4t-91.5 -3t-91 -7.5t-76.5 -8.5q-10 6 -21 7t-21 4q-4 4 -13 -3t-16 -7q-6 0 -11 3t-9.5 5.5t-9 3.5t-10.5 -3q0 12 -3.5 22.5l-7 21t-4.5 17t-1 9.5 q0 8 3 17q14 0 38.5 -2.5t38.5 -2.5q97 0 192 3t192 3q23 0 44.5 -2.5t44.5 -2.5q97 0 193 8t193 14q8 -6 12 -13.5t7.5 -14t9 -12.5t15.5 -10v-15z"/>
<glyph glyph-name="quoteleft" horiz-adv-x="175" unicode="" d="M123 502q-1 -11 -11 -29q-1 -2 -1.5 -4t-1.5 -4q-9 -16 -23 -16q-4 0 -8 1q-5 2 -9 3t-9 3q-8 2 -6 9q-2 4 -3.5 7.5t-3.5 7.5q-5 14 -5.5 23t-0.5 14q0 9 1 18l6 66q1 3 4 3h1l45 -9q21 -6 32 -31q1 -5 1 -8z"/>
<glyph glyph-name="quotesinglbase" horiz-adv-x="192" unicode="" d="M142 44q-2 -5 -4.5 -8.5t-0.5 -8.5q-8 1 -13 -9t-10 -15q-3 -5 -9 -17.5t-14.5 -24.5t-17.5 -20.5t-16 -5.5l-9 -4l-6 4q6 7 11 20.5t9.5 29.5t7 31t2.5 24l-5 10q-1 3 -1 9q0 4 4 7t7 3q5 0 14 -2.5t19 -6.5t18.5 -8.5t13.5 -7.5z"/>
<glyph glyph-name="quotedblleft" horiz-adv-x="275" unicode="" d="M124 568q-4 -20 -6.5 -41.5t-12.5 -39.5q-1 -2 -1.5 -3.5t-2.5 -3.5q-8 -17 -21 -17q-4 0 -9 2t-9 2.5t-9 2.5q-8 2 -6 10l-3.5 7l-3.5 7q-5 14 -5.5 23t-0.5 14q0 9 1 18l6 66q1 4 4 4h1q11 -3 22.5 -5.5t22.5 -4.5t19 -10.5t13 -19.5q2 -8 1 -11zM250 568 q-5 -20 -7 -41.5t-12 -39.5q-2 -2 -2.5 -3.5t-1.5 -3.5q-8 -17 -21 -17q-4 0 -9 2t-9 2.5t-9 2.5q-8 2 -7 10q-2 4 -3 7t-3 7q-5 14 -5.5 23t-0.5 14q0 9 1 18q1 17 2.5 33t3.5 33q0 5 3 5q1 0 2 -1q11 -3 22.5 -5.5t22.5 -4.5t18.5 -10.5t12.5 -19.5q2 -4 2 -11z"/>
<glyph glyph-name="quotedblright" horiz-adv-x="275" unicode="" d="M124 568q-4 -20 -6.5 -41.5t-12.5 -39.5q-1 -2 -1.5 -3.5t-2.5 -3.5q-8 -17 -21 -17q-4 0 -9 2t-9 2.5t-9 2.5q-8 2 -6 10l-3.5 7l-3.5 7q-5 14 -5.5 23t-0.5 14q0 9 1 18l6 66q1 4 4 4h1q11 -3 22.5 -5.5t22.5 -4.5t19 -10.5t13 -19.5q2 -8 1 -11zM250 568 q-5 -20 -7 -41.5t-12 -39.5q-2 -2 -2.5 -3.5t-1.5 -3.5q-8 -17 -21 -17q-4 0 -9 2t-9 2.5t-9 2.5q-8 2 -7 10q-2 4 -3 7t-3 7q-5 14 -5.5 23t-0.5 14q0 9 1 18q1 17 2.5 33t3.5 33q0 5 3 5q1 0 2 -1q11 -3 22.5 -5.5t22.5 -4.5t18.5 -10.5t12.5 -19.5q2 -4 2 -11z"/>
<glyph glyph-name="dagger" horiz-adv-x="507" unicode="" d="M440 416q4 -2 4 -6q0 -8 -8 -11q-8 -4 -15 -6.5t-15 -3.5q-11 -2 -22 -2.5t-22 -1.5q-2 1 -3.5 1t-3.5 1q-16 0 -16 -16q0 -15 0.5 -29.5t0.5 -29.5v-28v-53v-25.5t2 -24.5q1 -8 1 -17q0 -15 -3 -32q-1 -7 -1.5 -14.5t-8.5 -13.5q-2 -12 -11.5 -17t-17.5 -12 q-1 -1 -2 -1.5t-2 -1.5q-2 -4 -2 -6q1 -3 6 -3q1 -1 1.5 1t1.5 3q1 2 3 4q1 -1 1 -3q1 -5 0 -9q-3 -11 -6.5 -22t-6.5 -22q-4 -14 -12.5 -27.5t-10.5 -28.5q0 -2 -1 -4l-2 -4q-7 -10 -9 -10.5t-3 -0.5q-4 0 -11 7q-11 10 -16 23.5t-9 27.5q-2 6 -4.5 12t-6.5 11 q-17 21 -27 45.5t-10 53.5v30t-1 30q-1 31 -2 61.5t-2 61.5q0 17 0.5 35t1.5 36q0 10 -9 10q-13 0 -25.5 -0.5t-25.5 -4.5q-20 -7 -38 -8q-11 -1 -23 -0.5t-21 8.5q-2 2 -3 3.5t-3 3.5q6 4 9 5q26 8 51.5 13.5t51.5 7.5q6 0 11.5 0.5t11.5 1.5q13 2 12 14q-1 13 -2 25t-2 25 q0 9 0.5 18t1.5 18q2 20 3.5 38.5t3.5 38.5v10q-2 8 -0.5 9.5t5.5 1.5h4q12 -2 18 -4l34 -12t34 -13q10 -3 17 -14q5 -8 11 -15.5t11 -15.5q5 -10 9.5 -20t5.5 -23q1 -14 4.5 -28t6.5 -28q2 -4 6 -4h12t11 1q9 2 17 2q13 0 28 -5.5t32 -16.5z"/>
<glyph glyph-name="daggerdbl" horiz-adv-x="411" unicode="" d="M361 291l-30 -12l-1 1q-8 2 -13 2q-14 1 -26.5 -2t-25.5 -8q-8 -3 -8 -11v-7v0v0v-7q1 -18 3 -35.5t4 -35.5q1 -11 2.5 -23t-0.5 -24t-1 -25t5 -25q2 -8 2 -15q0 -10 -4 -20q-1 -2 -0.5 -4t-0.5 -4q-1 -8 -2 -15.5t-3 -15.5q0 -3 -3 -4q-8 -8 -18 -10.5t-21 -3.5h-3 q-7 0 -14 6q-14 14 -21 30.5t-12 34.5q-6 27 -10.5 54t-6.5 56q-1 10 -2.5 15t-3 9t-3 9t-2.5 15q-2 6 -2 12t-1 12q-1 8 -8 5q-4 -2 -7 -3t-7 -2q-9 -3 -18.5 -5.5t-18.5 -5.5q-3 -1 -6 -1t-6 -2t-6.5 -1t-6.5 2q-2 2 -4.5 3.5t-4.5 3.5q2 2 4 3t4 3q16 14 34 21t38 12 q9 2 10 4t1 10v60q0 9 -8 7t-14.5 -3.5t-14.5 -3.5q-9 -2 -17.5 -3t-17.5 -3q-8 -2 -13 -4q-2 -1 -4 -3t-4 -2q-4 1 -7.5 2.5t-8.5 3.5v4q3 3 7 5q22 14 44.5 24.5t48.5 13.5q8 2 8 10q-1 9 -1 17q0 15 3 34.5t8 42.5q1 3 1 6.5v6.5t-3 6q-2 2 -4 3q2 2 2.5 3.5t2.5 1.5 q5 1 8.5 1.5t8.5 0.5q2 0 4.5 -1t4.5 1q5 3 10 3q2 0 5.5 -1t10.5 -5q2 -2 5 -1.5t6 -0.5q7 -2 12.5 -5t9.5 -9l4.5 -4.5l4.5 -4.5q8 -6 8 -14q2 -16 3.5 -27.5t1.5 -19.5t-1 -16q0 -9 8 -7q11 2 22.5 3.5t22.5 3.5t20.5 -0.5t19.5 -6.5q5 -2 5 -7.5t-4 -8.5t-7.5 -5.5 t-7.5 -5.5q-7 -6 -15 -7t-16 -3t-17 -3t-17 -2q-2 -1 -4 -1.5t-4 -1.5q-6 -3 -5 -10q0 -2 0.5 -8t1 -13.5t0.5 -14v-8.5q0 -6 1.5 -7.5t7.5 0.5q8 2 17 4t17 4q10 2 19 4.5t20 0.5q10 -1 23 -5q6 -2 6 -11q0 -4 -4 -6z"/>
<glyph glyph-name="ellipsis" horiz-adv-x="590" unicode="" d="M141 95q0 -2 -0.5 -3.5t0.5 -3.5q2 -15 -10 -22q-2 -2 -4 -6q-2 -8 -8 -12.5t-14 -6.5q-5 -2 -10.5 -3t-11.5 -3q-19 0 -35 14t-16 37q0 17 5 37q2 5 6.5 6.5t9.5 1.5q8 1 15 1t18 -1.5t26 -2.5q10 -2 14 -3q15 -7 15 -24v-6zM341 95q0 -2 -0.5 -3.5t0.5 -3.5 q2 -15 -10 -22q-2 -2 -4 -6q-2 -8 -8 -12.5t-14 -6.5q-5 -2 -10.5 -3t-11.5 -3q-19 0 -35 14t-16 37q0 17 5 37q2 5 6.5 6.5t9.5 1.5q8 1 15 1t18 -1.5t26 -2.5q10 -2 14 -3q15 -7 15 -24v-6zM541 95q0 -2 -1 -3l1 -8q0 -12 -10 -18q-2 -2 -4 -6q-2 -8 -8 -12.5t-14 -6.5 q-5 -2 -10.5 -3t-11.5 -3q-19 0 -35 14t-16 37q0 17 5 37q2 5 6.5 6.5t9.5 1.5q8 1 15 1t18 -1.5t26 -2.5q10 -2 14 -3q15 -7 15 -24v-6z"/>
<glyph glyph-name="perthousand" horiz-adv-x="675" unicode="" d="M525 43q-3 11 -7 20.5t-6 20.5q-5 20 -6 33t-1 18q0 16 4 31q2 8 -1.5 9.5t-8.5 0.5q-15 -4 -28.5 -11t-22.5 -20q-14 -18 -25.5 -37t-25.5 -37q-8 -10 -11.5 -21t-5.5 -22v-6q0 -20 13.5 -37t32.5 -17q8 0 12 1q26 8 46.5 22.5t37.5 34.5q5 7 3 17zM244 447 q-2 5 -3.5 11t-3.5 11q-4 13 -13 13q-5 0 -11 -5q-12 -9 -18 -21t-7 -25q-1 -20 5 -24.5t23 1.5q13 3 22 11q9 7 10 12t-4 16zM788 52q-2 8 -5 16.5t-5 16.5q-5 17 -6 27t-1 13q0 12 4 26q2 10 -8 8q-12 -3 -22.5 -8.5t-18.5 -16.5q-11 -14 -20.5 -29.5t-20.5 -29.5 q-6 -8 -8.5 -17t-4.5 -18v-5q0 -15 11 -29t26 -14q6 0 9 1q40 11 68 46q4 6 2 13zM585 17q-14 -22 -33 -46q-11 -14 -25 -24t-30 -19q-20 -11 -39 -11q-3 0 -16 1t-36 10q-47 20 -69.5 56t-25.5 84v10q0 18 6.5 39t19.5 41q5 7 9 13.5t9 12.5q3 4 6.5 7.5t8.5 5.5 q20 9 41 16t44 8l34 -6l34 -6q10 -3 20 -11q12 -9 -2 -17q-6 -4 -6.5 -8t1.5 -9q14 -46 43 -81q15 -18 15 -37q0 -14 -9 -29zM578 600q-19 -15 -29.5 -35.5t-24.5 -38.5q-15 -20 -29.5 -39t-28.5 -39q-10 -15 -18 -31l-16 -32l-4 -6l-4 -6q-28 -33 -51 -69.5t-49 -72.5 q-23 -32 -46 -65l-46 -66q-16 -23 -26.5 -47.5t-22.5 -48.5q-11 -21 -23 -41.5t-24 -40.5q-8 -14 -14.5 -28t-14.5 -28q-4 -10 -7 -14q-5 -6 -7.5 -13t-10.5 -7h-4q-10 2 -19 14t-9 24q1 3 2.5 8.5t3.5 10.5q17 34 35 67.5t35 68.5q17 32 32 65.5t32 66.5q2 5 5 10l48 64 t47 65q10 13 18.5 26.5t16.5 27.5q26 42 52.5 83t52.5 83q14 23 30 45t31 45q2 1 4 5q7 11 11.5 16.5t8.5 7t9 1.5q2 0 6.5 -0.5t17.5 -3.5q5 -2 11 -3t11 -3q11 -4 13.5 -11.5t-5.5 -14.5zM332 430q-2 -4 -3.5 -8t-3.5 -8q-14 -33 -39.5 -47.5t-57.5 -18.5q-12 -2 -25 3 t-24 12q-25 14 -39 36.5t-22 48.5q-1 3 -1 7q0 7 3 15q6 14 14 25.5t19 22.5q8 7 15 15.5t15 16.5q4 4 7.5 5.5t5.5 2.5q23 -2 43.5 -5t39.5 -11q11 -4 13 -13q4 -14 13 -24.5t18 -20.5q14 -17 14 -34q0 -10 -5 -20zM836 31q-6 -10 -12.5 -19t-13.5 -17q-9 -12 -20 -20 t-24 -15q-17 -10 -33 -10q-2 0 -12 1t-28 9q-38 16 -56 45t-20 67q-1 5 -1 11q0 14 5 29.5t16 32.5q4 5 7 10.5t8 10.5q6 7 12 10q16 8 32.5 13.5t35.5 5.5q14 -2 27.5 -4.5t27.5 -5.5q9 -2 15 -8q10 -7 -1 -14q-7 -5 -4 -14q6 -17 14.5 -33.5t20.5 -31.5q12 -14 12 -29 q0 -12 -8 -24z"/>
<glyph glyph-name="guilsinglleft" horiz-adv-x="237" unicode="" d="M189 339q-5 -19 -17 -31q-6 -8 -15 -13q-3 -2 -5 -5q-5 -5 -10 -9.5t-11 -8.5q-5 -4 -10 -6.5t-10 -5.5q-8 -5 -15 -9.5t-13 -9.5q8 -6 17.5 -11t17.5 -11l24 -16t23 -16q6 -4 8 -8q3 -5 -1 -9q-2 -1 -5 -1t-7 2q-35 19 -63 40q-8 5 -15.5 11.5t-15.5 10.5l-13 6.5 t-9 11.5q-2 2 -1.5 4.5t-0.5 4.5q2 21 13 34q4 4 7 7.5t7 7.5q12 12 24 24.5t23 24.5l15 15h4q5 -2 11 -3t11 -3q3 -1 7 -1q4 2 10 -2q8 -6 11 -10q5 -5 5 -10q0 -3 -1 -5z"/>
<glyph glyph-name="guilsinglright" horiz-adv-x="237" unicode="" d="M189 247q-1 -2 -1 -4.5t-1 -4.5q-5 -8 -10.5 -10.5t-13.5 -6.5q-8 -3 -15.5 -9t-15.5 -11q-16 -11 -32.5 -19.5t-33.5 -16.5q-4 -2 -7 -2q-2 0 -4 1q-5 5 -1 10q1 3 7 7q13 8 25 15t25 15q8 5 18 9.5t18 10.5q-6 5 -13 9.5t-14 9.5q-5 4 -9.5 7t-9.5 7q-5 5 -10 9.5 t-10 9.5q-2 3 -5 5q-5 3 -8 6.5t-7 7.5q-5 8 -8.5 16t-6.5 16q-1 9 5 15q3 3 6 5l6 4q5 5 10 2q2 -1 3.5 -0.5t3.5 0.5q13 4 23 5h4q4 -4 7 -8l6 -8q11 -13 22.5 -26t22.5 -26l12 -15q12 -13 12 -35z"/>
<glyph glyph-name="fraction" horiz-adv-x="392" unicode="" d="M401 616q-5 -11 -8 -22t-5 -23q0 -10 -4 -20t-8 -21q-8 -20 -16 -38t-17 -38q-13 -34 -29 -66t-36 -64q-12 -18 -20 -34t-18 -33q-4 -5 -8 -8t-7 -8q-17 -23 -35 -47t-27 -52q-6 -17 -17 -30t-21 -27q-9 -13 -17 -26t-18 -25l-10 -12t-11 -9q-8 -6 -16 -11t-16 -7 q-5 -2 -8 -2q-7 0 -11 6q-4 7 -4 18v8l2 12t2 11q-1 0 -2 1q9 23 17 45t17 46q24 66 56 127t66 122q8 15 16 29t15 28q25 48 54 92t61 85l8 14t9 14q2 5 4 7q1 1 3 1t4 -1q11 -3 22 -7t20 -12l4 -4t5 -3q7 -1 7 -6q0 -4 -3 -10z"/>
<glyph glyph-name="Euro" horiz-adv-x="621" unicode="" d="M578 431q-1 -8 -6.5 -11t-12.5 1q-7 3 -13 6t-11 8t-9 10l-8 10q-5 5 -9 10t-9 10q-13 13 -34 13h-6q-10 -1 -19 -2.5t-18 -6.5q-11 -6 -17.5 -15t-11.5 -20q-3 -6 -4 -12t-3 -12q-1 -4 -1.5 -8t-2.5 -8q-8 -21 -8 -40q0 -8 -1.5 -16.5t-2.5 -16.5q-1 -6 0 -7.5t6 -0.5 q9 0 17.5 -0.5t16.5 -4.5q14 -6 13 -17q-1 -5 -6 -9.5t-11 -4.5q-14 0 -27.5 -6.5t-27.5 -7.5q-10 0 -13 -13q-1 -6 -4 -12t-5 -11q-1 -3 -3 -7q-1 -5 5 -5q7 2 13.5 3.5t13.5 1.5q19 0 36.5 -2.5t32.5 -16.5q2 -1 3.5 -1t2.5 -2q3 -3 1 -5q-5 -5 -11 -10t-14 -5 q-12 0 -22.5 -3.5t-21.5 -8.5q-11 -6 -23 -9.5t-24 -7.5q-1 -1 -2 -1t-3 -1q-13 -1 -13 -16q0 -6 -1.5 -12t-0.5 -11q1 -17 3 -33t4 -33q12 -30 30 -54t52 -34q17 -6 33 -6t32 6q4 2 6 4q13 11 26 22.5t21 27.5q5 11 12 20t13 18q5 8 10 0l2 -4q2 -12 3.5 -23.5t-4.5 -22.5 q-2 -3 -2.5 -5.5t-2.5 -4.5q-8 -10 -15 -19.5t-16 -18.5q-8 -8 -15.5 -15t-18.5 -12q-6 -3 -12 -6.5t-13 -6.5q-8 -4 -22 -7q-2 -1 -8 -1q-10 -2 -18 -7t-19 -1q-5 -4 -11 -4.5t-12 -2.5q-9 -2 -17 -2q-2 0 -8.5 0.5t-17.5 2.5q-50 9 -93 41q-37 29 -60 65.5t-29 83.5 q-2 14 -2.5 27.5t-2.5 27.5q0 6 -7 7q-9 2 -18.5 5t-19.5 6q-8 1 -15 6l-12 4t-13 1q-5 0 -9.5 1t-9.5 3q-5 1 -5 4q0 2 3 4q10 9 22 11.5t25 4.5q6 1 12 1t12 2q8 1 15.5 -1t15.5 -4q7 -1 8.5 0t3.5 8q2 13 4.5 25t4.5 24q1 5 -5 7q-14 2 -26 8.5t-23 14.5q-13 10 -17 23 q-4 6 -5 9q-2 2 -2 5q2 0 2.5 0.5t2.5 -0.5q10 0 15 -1v1q9 -1 18 -1.5t19 -2.5q5 -2 10 -5q4 -4 7 -5q11 -6 15 -4.5t8 12.5q11 29 23 56.5t26 54.5q8 14 16.5 28t17.5 28q11 15 22 28q9 9 23 8q11 -2 22 0t22 5q12 3 24 4t25 3q6 0 12 -1t13 -2l44 -4t43 -8q12 -3 19 -7 q9 -5 18 -9.5t17 -11.5q28 -20 28 -55z"/>
<glyph glyph-name="trademark" horiz-adv-x="508" unicode="" d="M477 697q-1 -7 -1.5 -13.5t-5.5 -11.5q-1 -1 -0.5 -1.5t-0.5 -2.5q0 -2 -0.5 -3.5t-0.5 -3.5q-3 -7 -5.5 -14t-4.5 -14q-5 -14 -11 -28t-11 -28q-1 -2 -0.5 -3t0.5 -3q-1 -6 0 -11.5t-1 -10.5q-2 -9 2 -17q2 -3 2.5 -6t2.5 -7q3 -11 15 -8q8 2 12 7q2 2 3 1.5l3 -1.5 q7 -5 7 -9t-8 -8q-4 -2 -7.5 -4.5t-8.5 -4.5q-5 -1 -10 -1q-9 0 -19.5 4t-17.5 17q-11 24 -17 47q-1 2 -1 7q1 8 0 14.5t-3 13.5v18q1 7 1.5 13.5t1.5 12.5v4q0 1 -0.5 1t-0.5 1q-2 0 -2 -1q-1 -2 -2 -4.5t-2 -4.5q0 -5 -5 -10q-12 -12 -20 -24l-1 -1q-3 -9 -8 -15.5 t-10 -14.5q-2 -2 -3 -3.5t-3 -3.5q-6 -4 -9 -11q-5 -12 -10 -23q-4 -7 -15 -7q-2 0 -2.5 0.5t-2.5 0.5q-8 -1 -12 3.5t-8 10.5q-9 15 -9 34v10h-1q1 10 1.5 19.5t0.5 19.5q1 5 0 9t-1 9t1 9t1 9q1 4 1 8v8l-1 2q-2 0 -2 -1q-3 -5 -3 -8l-2 -6l-2 -6q-2 -4 -3.5 -7.5 t-0.5 -8.5q0 -5 -4 -9q-5 -5 -6.5 -10t-2.5 -11q0 -4 -1 -6q-2 -5 -4.5 -10t-2.5 -11q0 -1 -4 -7q-2 -4 -4.5 -7.5t-4.5 -8.5q-4 -9 -3 -19q1 -6 -4 -10q-3 -2 -8 -7q-9 -6 -18 -3q-10 2 -14 3q-6 2 -8 7q-4 8 -6 16.5t0 18.5q1 5 1 11t1 12q1 8 2 15t2 15q1 5 1.5 10.5 t2.5 10.5q1 5 1.5 9t2.5 9q1 10 6 21q3 10 6 19l6 18q1 5 -3 4q-2 0 -3.5 -0.5t-3.5 -0.5q-5 -2 -9 -4l-8 -4q-5 -2 -5 -6q1 -2 0 -3t-1 -3l-2 -10l-2 -10q0 -8 -1 -15t-3 -15q-1 -4 -3 -10q-4 -11 -5 -20q-1 -5 -2.5 -9.5t-3.5 -9.5q-2 -7 -4 -13.5t0 -14.5q0 -3 -1 -3 q-2 -3 -2 -6.5t-2 -6.5q-2 -5 -2.5 -10t-0.5 -11q0 -5 -0.5 -10.5t-1.5 -10.5q0 -4 -1 -5q-6 -4 -11.5 -8t-12.5 -5q-3 -1 -7 -1l-4 1q-4 0 -9 1t-10 8q-8 13 -6 30q2 6 2 12.5t1 12.5q0 9 1 14q2 11 3.5 22t3.5 22q2 17 4.5 32.5t6.5 31.5q1 2 0.5 2.5t-0.5 2.5q1 2 0 3 t-3 -1q-7 -2 -13.5 -4t-13.5 -4q-5 -2 -10 -2t-10 -1h-3q-3 4 -7.5 4.5t-7.5 5.5q-4 4 -6 5q-4 4 0 6v2q-1 2 -3 4t-2 3t3 1q4 1 7 1t6 1q8 2 14.5 3t14.5 3q6 1 12.5 1.5t12.5 2.5q8 2 17 4.5t17 4.5q9 2 18.5 4t18.5 4q11 3 21 6t21 5q6 2 11 2q2 1 3 1t3 2q1 1 4 1 q10 -2 14 -3q3 -1 6 -1t6 -1q7 0 10 -6q7 -9 4 -17q-2 -7 -2 -14t-4 -13l-1 -1v-8.5t1 -8.5q3 3 6 5.5t5 4.5q5 5 8.5 9t8.5 9q3 3 12 5h7q10 2 14 -7q2 -2 5 -3t5 -3q7 -3 13.5 -5.5t13.5 -6.5q5 -3 8.5 -9.5t1.5 -11.5q-5 -14 -11 -21q-4 -5 -8.5 -9.5t-8.5 -10.5 q-2 -3 -3.5 -6t-1.5 -7q-2 -10 -4.5 -19t-4.5 -19q-2 -8 -2 -13v-2q1 1 2 1q1 2 5 6q4 6 7.5 12t7.5 13l8 12l8 12q2 4 4.5 7t4.5 7q2 5 4.5 8.5t4.5 8.5q2 6 5.5 12t2.5 13q5 10 7.5 20t8.5 19q1 3 3 11v6.5t2 7.5q0 2 1.5 4t2.5 2q5 1 9.5 2.5t9.5 -0.5q12 -4 25 -3 q17 0 24 -13q3 -5 5.5 -9t4.5 -9q1 -3 1 -11z"/>
</font>
</defs>
</svg>
